<?xml version="1.0" standalone="no"?>
<!DOCTYPE svg PUBLIC "-//W3C//DTD SVG 1.1//EN" "http://www.w3.org/Graphics/SVG/1.1/DTD/svg11.dtd" >
<svg>
<metadata>
Created by FontForge 20090622 at Mon Oct 31 13:36:05 2016
 By deploy user
&#194;&#169; Apple Computer, Inc. 2015-2016 all rights reserved.
</metadata>
<defs>
<font id="Gulf-Text" horiz-adv-x="0" >
  <font-face 
    font-family="Gulf"
    font-weight="400"
    font-stretch="normal"
    units-per-em="1000"
    panose-1="2 11 5 3 3 4 3 2 2 4"
    ascent="792"
    descent="-208"
    bbox="-231 -694 6435 1792"
    underline-thickness="50"
    underline-position="-100"
    unicode-range="U+0009-U+FEFC"
  />
<missing-glyph horiz-adv-x="448" 
d="M64 718h317v-616h-317v616zM316 166v488h-188v-488h188z" />
    <glyph glyph-name="uniE06D.PUA" unicode="&#xfedf;&#xfee4;" horiz-adv-x="913" 
d="M115 225q0 63 25.5 116.5t75 86t118.5 32.5q96 0 146.5 -72t50.5 -182q0 -63 -20 -117q15 -11 40 -17t54 -6h33q73 0 102 30t29 90v488h76v-504q0 -170 -203 -170h-37q-27 0 -60 8.5t-61 26.5q-48 -67 -128 -67q-43 0 -148 32h-217v66h148q-24 65 -24 159zM212 67
q59 -19 85 -25t52 -6q55 0 83 52.5t28 121.5q0 43 -13.5 86t-43 72.5t-76.5 29.5q-64 0 -101 -51t-37 -128q0 -84 23 -152z" />
    <glyph glyph-name="uniE06E.PUA" unicode="&#xfee8;&#xfee6;" horiz-adv-x="1131" 
d="M988.5 584.5q-14.5 -14.5 -37.5 -14.5q-21 0 -35.5 14.5t-14.5 37.5q0 22 14.5 37t36.5 15q23 0 37 -15t14 -37q0 -23 -14.5 -37.5zM396 528q-14 -15 -38 -15q-21 0 -35.5 14.5t-14.5 37.5q0 22 14.5 37t36.5 15t36.5 -14.5t14.5 -35.5q0 -24 -14 -39zM1027 10
q-36 10 -65 31q-24 -24 -67 -32.5t-108 -8.5h-68q-20 0 -45 5t-49 16v-31q0 -31 -19.5 -65t-68.5 -59.5t-133 -25.5h-51q-133 0 -214.5 47t-81.5 181q0 47 20 125t39 133l68 -18l-10 -33q-44 -148 -44 -207q0 -74 38.5 -109.5t89 -43.5t123.5 -8h39q50 0 89.5 23t39.5 71
v397h76v-309q15 -11 40 -17t54 -6h75q51 0 76 7.5t34.5 26t9.5 57.5v298h76v-361q15 -14 43.5 -21t58.5 -7h48v-66h-48q-29 0 -65 10z" />
    <glyph glyph-name="uniE06F.PUA" unicode="&#xfef4;&#xfee6;" horiz-adv-x="1131" 
d="M396 528q-14 -15 -38 -15q-21 0 -35.5 14.5t-14.5 37.5q0 22 14.5 37t36.5 15t36.5 -14.5t14.5 -35.5q0 -24 -14 -39zM1027 10q-36 10 -65 31q-24 -24 -67 -32.5t-108 -8.5h-68q-20 0 -45 5t-49 16v-31q0 -31 -19.5 -65t-68.5 -59.5t-133 -25.5h-51q-133 0 -214.5 47
t-81.5 181q0 47 20 125t39 133l68 -18l-10 -33q-44 -148 -44 -207q0 -74 38.5 -109.5t89 -43.5t123.5 -8h39q50 0 89.5 23t39.5 71v397h76v-309q15 -11 40 -17t54 -6h75q51 0 76 7.5t34.5 26t9.5 57.5v298h76v-361q15 -14 43.5 -21t58.5 -7h48v-66h-48q-29 0 -65 10z
M920.5 -183.5q-14.5 -14.5 -37.5 -14.5q-21 0 -35.5 14.5t-14.5 37.5q0 22 14.5 37t36.5 15q23 0 37 -15t14 -37q0 -23 -14.5 -37.5zM1057.5 -183.5q-14.5 -14.5 -37.5 -14.5q-21 0 -35.5 14.5t-14.5 37.5q0 22 14.5 37t36.5 15q23 0 37 -15t14 -37q0 -23 -14.5 -37.5z" />
    <glyph glyph-name="uniE070.PUA" unicode="&#xfe92;&#xfee6;" horiz-adv-x="1131" 
d="M396 528q-14 -15 -38 -15q-21 0 -35.5 14.5t-14.5 37.5q0 22 14.5 37t36.5 15t36.5 -14.5t14.5 -35.5q0 -24 -14 -39zM1027 10q-36 10 -65 31q-24 -24 -67 -32.5t-108 -8.5h-68q-20 0 -45 5t-49 16v-31q0 -31 -19.5 -65t-68.5 -59.5t-133 -25.5h-51q-133 0 -214.5 47
t-81.5 181q0 47 20 125t39 133l68 -18l-10 -33q-44 -148 -44 -207q0 -74 38.5 -109.5t89 -43.5t123.5 -8h39q50 0 89.5 23t39.5 71v397h76v-309q15 -11 40 -17t54 -6h75q51 0 76 7.5t34.5 26t9.5 57.5v298h76v-361q15 -14 43.5 -21t58.5 -7h48v-66h-48q-29 0 -65 10z
M985.5 -183.5q-14.5 -14.5 -37.5 -14.5q-21 0 -35.5 14.5t-14.5 37.5q0 22 14.5 37t36.5 15q23 0 37 -15t14 -37q0 -23 -14.5 -37.5z" />
    <glyph glyph-name="uniE071.PUA" unicode="&#xfe98;&#xfee6;" horiz-adv-x="1131" 
d="M920.5 584.5q-14.5 -14.5 -37.5 -14.5q-21 0 -35.5 14.5t-14.5 37.5q0 22 14.5 37t36.5 15q23 0 37 -15t14 -37q0 -23 -14.5 -37.5zM1057.5 584.5q-14.5 -14.5 -37.5 -14.5q-21 0 -35.5 14.5t-14.5 37.5q0 22 14.5 37t36.5 15q23 0 37 -15t14 -37q0 -23 -14.5 -37.5z
M396 528q-14 -15 -38 -15q-21 0 -35.5 14.5t-14.5 37.5q0 22 14.5 37t36.5 15t36.5 -14.5t14.5 -35.5q0 -24 -14 -39zM1027 10q-36 10 -65 31q-24 -24 -67 -32.5t-108 -8.5h-68q-20 0 -45 5t-49 16v-31q0 -31 -19.5 -65t-68.5 -59.5t-133 -25.5h-51q-133 0 -214.5 47
t-81.5 181q0 47 20 125t39 133l68 -18l-10 -33q-44 -148 -44 -207q0 -74 38.5 -109.5t89 -43.5t123.5 -8h39q50 0 89.5 23t39.5 71v397h76v-309q15 -11 40 -17t54 -6h75q51 0 76 7.5t34.5 26t9.5 57.5v298h76v-361q15 -14 43.5 -21t58.5 -7h48v-66h-48q-29 0 -65 10z" />
    <glyph glyph-name="uniE072.PUA" unicode="&#xfedf;&#xfe82;" horiz-adv-x="592" 
d="M35 66h189l-71 449h79l71 -449h14q73 0 102 30t29 90v488h76v-504q0 -170 -203 -170h-286v66zM311.5 585q-18.5 -23 -51.5 -23q-17 0 -34 6t-43 17q-16 7 -32.5 12.5t-27.5 5.5q-12 0 -18.5 -12t-6.5 -36h-47q0 42 18.5 69t48.5 27q11 0 26.5 -5t26 -9.5l15.5 -6.5
q50 -23 73 -23q26 0 26 46h45q0 -45 -18.5 -68z" />
    <glyph glyph-name="uniE073.PUA" unicode="&#xfee0;&#xfe82;" horiz-adv-x="664" 
d="M673 0h-48q-28 0 -64 10t-65 30q0 1 -0.5 1h-0.5q-24 -24 -67 -32.5t-108 -8.5h-285v66h189l-71 449h79l71 -449h24q51 0 76 7.5t34.5 26t9.5 57.5v517h76v-580q15 -14 43 -21t58 -7v0h1h48v-66zM104.5 591q-6.5 -12 -6.5 -36h-47q0 42 18.5 69t48.5 27q11 0 26.5 -5
t26 -9.5l15.5 -6.5q50 -23 73 -23q26 0 26 46h45q0 -45 -18.5 -68t-51.5 -23q-17 0 -34 6t-43 17q-16 7 -32.5 12.5t-27.5 5.5q-12 0 -18.5 -12z" />
    <glyph glyph-name="uniE074.PUA" unicode="&#xe180;&#xfe8e;" horiz-adv-x="592" 
d="M180 592l-92 141h58l58 -95h2l59 95h60l-94 -141h-51zM35 66h189l-71 449h79l71 -449h14q73 0 102 30t29 90v488h76v-504q0 -170 -203 -170h-286v66z" />
    <glyph glyph-name="uniE075.PUA" unicode="&#xe181;&#xfe8e;" horiz-adv-x="664" 
d="M180 592l-92 141h58l58 -95h2l59 95h60l-94 -141h-51zM560 10q-36 10 -65 31q-24 -24 -67 -32.5t-108 -8.5h-285v66h189l-71 449h79l71 -449h24q51 0 76 7.5t34.5 26t9.5 57.5v517h76v-580q15 -14 43.5 -21t58.5 -7h48v-66h-48q-29 0 -65 10z" />
    <glyph glyph-name="uniE076.PUA" unicode="&#xfedf;&#xfe84;" horiz-adv-x="592" 
d="M98 560v40h40q-8 7 -12.5 22t-4.5 26q0 38 23.5 57t59.5 19q32 0 57 -12l-12 -34q-22 10 -44 10q-18 0 -29.5 -9.5t-11.5 -29.5q0 -14 5.5 -28t16.5 -21h71v-40h-159zM35 66h189l-71 449h79l71 -449h14q73 0 102 30t29 90v488h76v-504q0 -170 -203 -170h-286v66z" />
    <glyph glyph-name="uniE077.PUA" unicode="&#xfee0;&#xfe84;" horiz-adv-x="664" 
d="M98 560v40h40q-8 7 -12.5 22t-4.5 26q0 38 23.5 57t59.5 19q32 0 57 -12l-12 -34q-22 10 -44 10q-18 0 -29.5 -9.5t-11.5 -29.5q0 -14 5.5 -28t16.5 -21h71v-40h-159zM560 10q-36 10 -65 31q-24 -24 -67 -32.5t-108 -8.5h-285v66h189l-71 449h79l71 -449h24q51 0 76 7.5
t34.5 26t9.5 57.5v517h76v-580q15 -14 43.5 -21t58.5 -7h48v-66h-48q-29 0 -65 10z" />
    <glyph glyph-name="uniE078.PUA" unicode="&#xfedf;&#xfe88;" horiz-adv-x="592" 
d="M35 66h189l-71 449h79l71 -449h14q73 0 102 30t29 90v488h76v-504q0 -170 -203 -170h-286v66zM174 -228v40h40q-8 7 -12.5 22t-4.5 26q0 38 23.5 57t59.5 19q32 0 57 -12l-12 -34q-22 10 -44 10q-18 0 -29.5 -9.5t-11.5 -29.5q0 -14 5.5 -28t16.5 -21h71v-40h-159z" />
    <glyph glyph-name="uniE079.PUA" unicode="&#xfee0;&#xfe88;" horiz-adv-x="664" 
d="M560 10q-36 10 -65 31q-24 -24 -67 -32.5t-108 -8.5h-285v66h189l-71 449h79l71 -449h24q51 0 76 7.5t34.5 26t9.5 57.5v517h76v-580q15 -14 43.5 -21t58.5 -7h48v-66h-48q-29 0 -65 10zM174 -228v40h40q-8 7 -12.5 22t-4.5 26q0 38 23.5 57t59.5 19q32 0 57 -12l-12 -34
q-22 10 -44 10q-18 0 -29.5 -9.5t-11.5 -29.5q0 -14 5.5 -28t16.5 -21h71v-40h-159z" />
    <glyph glyph-name="uniE07A.PUA" unicode="&#xfedf;&#xfe8e;" horiz-adv-x="592" 
d="M35 66h189l-71 449h79l71 -449h14q73 0 102 30t29 90v488h76v-504q0 -170 -203 -170h-286v66z" />
    <glyph glyph-name="uniE07B.PUA" unicode="&#xfee0;&#xfe8e;&#x64b;" horiz-adv-x="664" 
d="M560 10q-36 10 -65 31q-24 -24 -67 -32.5t-108 -8.5h-285v66h189l-71 449h79l71 -449h24q51 0 76 7.5t34.5 26t9.5 57.5v517h76v-580q15 -14 43.5 -21t58.5 -7h48v-66h-48q-29 0 -65 10z" />
    <glyph glyph-name="uniFB50" unicode="&#x671;" horiz-adv-x="232" arabic-form="isolated" 
d="M9 751h20v100h36v-22q3 3 17.5 12.5t37.5 18.5t50 9q26 0 43 -19.5t17 -49.5q0 -32 -14 -59t-45 -27h-162v37zM184 821.5q-8 8.5 -28 8.5q-22 0 -42.5 -11t-33 -22.5t-15.5 -15.5v-30h91q16 0 26 13t10 30q0 19 -8 27.5zM78 0v674h76v-674h-76z" />
    <glyph glyph-name="uniFB51" unicode="&#x671;" horiz-adv-x="286" arabic-form="final" 
d="M1 751h20v100h36v-22q3 3 17.5 12.5t37.5 18.5t50 9q26 0 43 -19.5t17 -49.5q0 -32 -14 -59t-45 -27h-162v37zM176 821.5q-8 8.5 -28 8.5q-22 0 -42.5 -11t-33 -22.5t-15.5 -15.5v-30h91q16 0 26 13t10 30q0 19 -8 27.5zM68 170v504h76v-488q0 -60 29 -90t102 -30h20v-66
h-24q-203 0 -203 170z" />
    <glyph glyph-name="uniFB52" unicode="&#x67b;" horiz-adv-x="839" arabic-form="isolated" 
d="M128 228q0 -74 38.5 -109.5t89.5 -44t123 -8.5h185q73 0 102 30t29 90v269h76v-285q0 -170 -203 -170h-217q-133 0 -214.5 47t-81.5 181q0 44 25 142l69 -17q-21 -82 -21 -125zM477.5 -163.5q-14.5 -14.5 -37.5 -14.5q-21 0 -35.5 14.5t-14.5 37.5q0 22 14.5 37t36.5 15
q23 0 37 -15t14 -37q0 -23 -14.5 -37.5zM475.5 -310.5q-14.5 -14.5 -37.5 -14.5q-21 0 -35.5 14.5t-14.5 37.5q0 22 14.5 37t36.5 15q23 0 37 -15t14 -37q0 -23 -14.5 -37.5z" />
    <glyph glyph-name="uniFB53" unicode="&#x67b;" horiz-adv-x="886" arabic-form="final" 
d="M895 0h-18q-35 0 -71.5 11t-62.5 30q-24 -24 -67 -32.5t-108 -8.5h-217q-133 0 -214.5 47t-81.5 181q0 44 25 142l69 -17q-21 -82 -21 -125q0 -74 38.5 -109.5t89.5 -44t123 -8.5h196q51 0 76 7.5t34.5 26t9.5 57.5v298h76v-361q15 -14 43.5 -21t58.5 -7h22v-66zM478 -89
q14 -15 14 -37q0 -23 -14.5 -37.5t-37.5 -14.5q-21 0 -35.5 14.5t-14.5 37.5q0 22 14.5 37t36.5 15q23 0 37 -15zM476 -236q14 -15 14 -37q0 -23 -14.5 -37.5t-37.5 -14.5q-21 0 -35.5 14.5t-14.5 37.5q0 22 14.5 37t36.5 15q23 0 37 -15z" />
    <glyph glyph-name="uniFB54" unicode="&#x67b;" horiz-adv-x="303" arabic-form="initial" 
d="M226 455v-285q0 -170 -203 -170h-32v66h28q73 0 102 30t29 90v269h76zM136.5 -163.5q-14.5 -14.5 -37.5 -14.5q-21 0 -35.5 14.5t-14.5 37.5q0 22 14.5 37t36.5 15q23 0 37 -15t14 -37q0 -23 -14.5 -37.5zM134.5 -310.5q-14.5 -14.5 -37.5 -14.5q-21 0 -35.5 14.5
t-14.5 37.5q0 22 14.5 37t36.5 15q23 0 37 -15t14 -37q0 -23 -14.5 -37.5z" />
    <glyph glyph-name="uniFB55" unicode="&#x67b;" horiz-adv-x="403" arabic-form="medial" 
d="M299 10q-36 10 -65 31q-24 -24 -67 -32.5t-108 -8.5h-68v66h75q51 0 76 7.5t34.5 26t9.5 57.5v298h76v-361q15 -14 43.5 -21t58.5 -7h48v-66h-48q-29 0 -65 10zM253.5 -163.5q-14.5 -14.5 -37.5 -14.5q-21 0 -35.5 14.5t-14.5 37.5q0 22 14.5 37t36.5 15q23 0 37 -15
t14 -37q0 -23 -14.5 -37.5zM251.5 -310.5q-14.5 -14.5 -37.5 -14.5q-21 0 -35.5 14.5t-14.5 37.5q0 22 14.5 37t36.5 15q23 0 37 -15t14 -37q0 -23 -14.5 -37.5z" />
    <glyph glyph-name="uniFB56" unicode="&#x67e;" horiz-adv-x="839" arabic-form="isolated" 
d="M128 228q0 -74 38.5 -109.5t89.5 -44t123 -8.5h185q73 0 102 30t29 90v269h76v-285q0 -170 -203 -170h-217q-133 0 -214.5 47t-81.5 181q0 44 25 142l69 -17q-21 -82 -21 -125zM327.5 -108.5q14.5 14.5 37.5 14.5q21 0 35.5 -14.5t14.5 -37.5q0 -22 -14.5 -37t-36.5 -15
q-23 0 -37 15t-14 37q0 23 14.5 37.5zM464.5 -108.5q14.5 14.5 37.5 14.5q21 0 35.5 -14.5t14.5 -37.5q0 -22 -14.5 -37t-36.5 -15q-23 0 -37 15t-14 37q0 23 14.5 37.5zM394.5 -240.5q14.5 14.5 37.5 14.5q21 0 35.5 -14.5t14.5 -37.5q0 -22 -14.5 -37t-36.5 -15
q-23 0 -37 15t-14 37q0 23 14.5 37.5z" />
    <glyph glyph-name="uniFB57" unicode="&#x67e;" horiz-adv-x="886" arabic-form="final" 
d="M895 0h-18q-35 0 -71.5 11t-62.5 30q-24 -24 -67 -32.5t-108 -8.5h-217q-133 0 -214.5 47t-81.5 181q0 44 25 142l69 -17q-21 -82 -21 -125q0 -74 38.5 -109.5t89.5 -44t123 -8.5h196q51 0 76 7.5t34.5 26t9.5 57.5v298h76v-361q15 -14 43.5 -21t58.5 -7h22v-66z
M417.5 -183q-14.5 -15 -36.5 -15q-23 0 -37 15t-14 37q0 23 14.5 37.5t37.5 14.5q21 0 35.5 -14.5t14.5 -37.5q0 -22 -14.5 -37zM554.5 -108.5q14.5 -14.5 14.5 -37.5q0 -22 -14.5 -37t-36.5 -15q-23 0 -37 15t-14 37q0 23 14.5 37.5t37.5 14.5q21 0 35.5 -14.5z
M484.5 -240.5q14.5 -14.5 14.5 -37.5q0 -22 -14.5 -37t-36.5 -15q-23 0 -37 15t-14 37q0 23 14.5 37.5t37.5 14.5q21 0 35.5 -14.5z" />
    <glyph glyph-name="uniFB58" unicode="&#x67e;" horiz-adv-x="373" arabic-form="initial" 
d="M305 455v-285q0 -170 -203 -170h-111v66h107q73 0 102 30t29 90v269h76zM76.5 -108.5q14.5 14.5 37.5 14.5q21 0 35.5 -14.5t14.5 -37.5q0 -22 -14.5 -37t-36.5 -15q-23 0 -37 15t-14 37q0 23 14.5 37.5zM213.5 -108.5q14.5 14.5 37.5 14.5q21 0 35.5 -14.5t14.5 -37.5
q0 -22 -14.5 -37t-36.5 -15q-23 0 -37 15t-14 37q0 23 14.5 37.5zM143.5 -240.5q14.5 14.5 37.5 14.5q21 0 35.5 -14.5t14.5 -37.5q0 -22 -14.5 -37t-36.5 -15q-23 0 -37 15t-14 37q0 23 14.5 37.5z" />
    <glyph glyph-name="uniFB59" unicode="&#x67e;" horiz-adv-x="403" arabic-form="medial" 
d="M299 10q-36 10 -65 31q-24 -24 -67 -32.5t-108 -8.5h-68v66h75q51 0 76 7.5t34.5 26t9.5 57.5v298h76v-361q15 -14 43.5 -21t58.5 -7h48v-66h-48q-29 0 -65 10zM102.5 -108.5q14.5 14.5 37.5 14.5q21 0 35.5 -14.5t14.5 -37.5q0 -22 -14.5 -37t-36.5 -15q-23 0 -37 15
t-14 37q0 23 14.5 37.5zM239.5 -108.5q14.5 14.5 37.5 14.5q21 0 35.5 -14.5t14.5 -37.5q0 -22 -14.5 -37t-36.5 -15q-23 0 -37 15t-14 37q0 23 14.5 37.5zM169.5 -240.5q14.5 14.5 37.5 14.5q21 0 35.5 -14.5t14.5 -37.5q0 -22 -14.5 -37t-36.5 -15q-23 0 -37 15t-14 37
q0 23 14.5 37.5z" />
    <glyph glyph-name="uniFB5A" unicode="&#x680;" horiz-adv-x="825" arabic-form="isolated" 
d="M128 228q0 -74 38.5 -109.5t89.5 -44t123 -8.5h185q73 0 102 30t29 90v269h76v-285q0 -170 -203 -170h-217q-133 0 -214.5 47t-81.5 181q0 44 25 142l69 -17q-21 -82 -21 -125zM327.5 -108.5q14.5 14.5 37.5 14.5q21 0 35.5 -14.5t14.5 -37.5q0 -22 -14.5 -37t-36.5 -15
q-23 0 -37 15t-14 37q0 23 14.5 37.5zM464.5 -108.5q14.5 14.5 37.5 14.5q21 0 35.5 -14.5t14.5 -37.5q0 -22 -14.5 -37t-36.5 -15q-23 0 -37 15t-14 37q0 23 14.5 37.5zM327.5 -240.5q14.5 14.5 37.5 14.5q21 0 35.5 -14.5t14.5 -37.5q0 -22 -14.5 -37t-36.5 -15
q-23 0 -37 15t-14 37q0 23 14.5 37.5zM464.5 -240.5q14.5 14.5 37.5 14.5q21 0 35.5 -14.5t14.5 -37.5q0 -22 -14.5 -37t-36.5 -15q-23 0 -37 15t-14 37q0 23 14.5 37.5z" />
    <glyph glyph-name="uniFB5B" unicode="&#x680;" horiz-adv-x="886" arabic-form="final" 
d="M895 0h-18q-35 0 -71.5 11t-62.5 30q-24 -24 -67 -32.5t-108 -8.5h-217q-133 0 -214.5 47t-81.5 181q0 44 25 142l69 -17q-21 -82 -21 -125q0 -74 38.5 -109.5t89.5 -44t123 -8.5h196q51 0 76 7.5t34.5 26t9.5 57.5v298h76v-361q15 -14 43.5 -21t58.5 -7h22v-66z
M400.5 -108.5q14.5 -14.5 14.5 -37.5q0 -22 -14.5 -37t-36.5 -15q-23 0 -37 15t-14 37q0 23 14.5 37.5t37.5 14.5q21 0 35.5 -14.5zM537.5 -108.5q14.5 -14.5 14.5 -37.5q0 -22 -14.5 -37t-36.5 -15q-23 0 -37 15t-14 37q0 23 14.5 37.5t37.5 14.5q21 0 35.5 -14.5z
M400.5 -240.5q14.5 -14.5 14.5 -37.5q0 -22 -14.5 -37t-36.5 -15q-23 0 -37 15t-14 37q0 23 14.5 37.5t37.5 14.5q21 0 35.5 -14.5zM537.5 -240.5q14.5 -14.5 14.5 -37.5q0 -22 -14.5 -37t-36.5 -15q-23 0 -37 15t-14 37q0 23 14.5 37.5t37.5 14.5q21 0 35.5 -14.5z" />
    <glyph glyph-name="uniFB5C" unicode="&#x680;" horiz-adv-x="368" arabic-form="initial" 
d="M300 455v-285q0 -170 -203 -170h-106v66h102q73 0 102 30t29 90v269h76zM75.5 -108.5q14.5 14.5 37.5 14.5q21 0 35.5 -14.5t14.5 -37.5q0 -22 -14.5 -37t-36.5 -15q-23 0 -37 15t-14 37q0 23 14.5 37.5zM212.5 -108.5q14.5 14.5 37.5 14.5q21 0 35.5 -14.5t14.5 -37.5
q0 -22 -14.5 -37t-36.5 -15q-23 0 -37 15t-14 37q0 23 14.5 37.5zM75.5 -240.5q14.5 14.5 37.5 14.5q21 0 35.5 -14.5t14.5 -37.5q0 -22 -14.5 -37t-36.5 -15q-23 0 -37 15t-14 37q0 23 14.5 37.5zM212.5 -240.5q14.5 14.5 37.5 14.5q21 0 35.5 -14.5t14.5 -37.5
q0 -22 -14.5 -37t-36.5 -15q-23 0 -37 15t-14 37q0 23 14.5 37.5z" />
    <glyph glyph-name="uniFB5D" unicode="&#x680;" horiz-adv-x="403" arabic-form="medial" 
d="M299 10q-36 10 -65 31q-24 -24 -67 -32.5t-108 -8.5h-68v66h75q51 0 76 7.5t34.5 26t9.5 57.5v298h76v-361q15 -14 43.5 -21t58.5 -7h48v-66h-48q-29 0 -65 10zM117.5 -108.5q14.5 14.5 37.5 14.5q21 0 35.5 -14.5t14.5 -37.5q0 -22 -14.5 -37t-36.5 -15q-23 0 -37 15
t-14 37q0 23 14.5 37.5zM254.5 -108.5q14.5 14.5 37.5 14.5q21 0 35.5 -14.5t14.5 -37.5q0 -22 -14.5 -37t-36.5 -15q-23 0 -37 15t-14 37q0 23 14.5 37.5zM117.5 -240.5q14.5 14.5 37.5 14.5q21 0 35.5 -14.5t14.5 -37.5q0 -22 -14.5 -37t-36.5 -15q-23 0 -37 15t-14 37
q0 23 14.5 37.5zM254.5 -240.5q14.5 14.5 37.5 14.5q21 0 35.5 -14.5t14.5 -37.5q0 -22 -14.5 -37t-36.5 -15q-23 0 -37 15t-14 37q0 23 14.5 37.5z" />
    <glyph glyph-name="uniFB5E" unicode="&#x67a;" horiz-adv-x="827" arabic-form="isolated" 
d="M464.5 704.5q-14.5 -14.5 -37.5 -14.5q-21 0 -35.5 14.5t-14.5 37.5q0 22 14.5 37t36.5 15q23 0 37 -15t14 -37q0 -23 -14.5 -37.5zM462.5 557.5q-14.5 -14.5 -37.5 -14.5q-21 0 -35.5 14.5t-14.5 37.5q0 22 14.5 37t36.5 15q23 0 37 -15t14 -37q0 -23 -14.5 -37.5z
M128 228q0 -74 38.5 -109.5t88.5 -43.5t124 -9h185q73 -1 102 29.5t29 90.5v269h76v-285q0 -170 -203 -170h-217q-133 0 -214.5 47t-81.5 181q0 44 25 142l69 -17q-21 -82 -21 -125z" />
    <glyph glyph-name="uniFB5F" unicode="&#x67a;" horiz-adv-x="886" arabic-form="final" 
d="M391.5 704.5q-14.5 14.5 -14.5 37.5q0 22 14.5 37t36.5 15q23 0 37 -15t14 -37q0 -23 -14.5 -37.5t-37.5 -14.5q-21 0 -35.5 14.5zM389.5 557.5q-14.5 14.5 -14.5 37.5q0 22 14.5 37t36.5 15q23 0 37 -15t14 -37q0 -23 -14.5 -37.5t-37.5 -14.5q-21 0 -35.5 14.5zM895 0
h-18q-35 0 -71.5 11t-62.5 30q-24 -24 -67 -32.5t-108 -8.5h-217q-133 0 -214.5 47t-81.5 181q0 44 25 142l69 -17q-21 -82 -21 -125q0 -74 38.5 -109.5t89.5 -44t123 -8.5h196q51 0 76 7.5t34.5 26t9.5 57.5v298h76v-361q15 -14 43.5 -21t58.5 -7h22v-66z" />
    <glyph glyph-name="uniFB60" unicode="&#x67a;" horiz-adv-x="320" arabic-form="initial" 
d="M228.5 704.5q-14.5 -14.5 -37.5 -14.5q-21 0 -35.5 14.5t-14.5 37.5q0 22 14.5 37t36.5 15q23 0 37 -15t14 -37q0 -23 -14.5 -37.5zM226.5 557.5q-14.5 -14.5 -37.5 -14.5q-21 0 -35.5 14.5t-14.5 37.5q0 22 14.5 37t36.5 15q23 0 37 -15t14 -37q0 -23 -14.5 -37.5z
M226 455v-285q0 -170 -203 -170h-32v66h28q73 0 102 30t29 90v269h76z" />
    <glyph glyph-name="uniFB61" unicode="&#x67a;" horiz-adv-x="403" arabic-form="medial" 
d="M262.5 704.5q-14.5 -14.5 -37.5 -14.5q-21 0 -35.5 14.5t-14.5 37.5q0 22 14.5 37t36.5 15q23 0 37 -15t14 -37q0 -23 -14.5 -37.5zM260.5 557.5q-14.5 -14.5 -37.5 -14.5q-21 0 -35.5 14.5t-14.5 37.5q0 22 14.5 37t36.5 15q23 0 37 -15t14 -37q0 -23 -14.5 -37.5z
M299 10q-36 10 -65 31q-24 -24 -67 -32.5t-108 -8.5h-68v66h75q51 0 76 7.5t34.5 26t9.5 57.5v298h76v-361q15 -14 43.5 -21t58.5 -7h48v-66h-48q-29 0 -65 10z" />
    <glyph glyph-name="uniFB62" unicode="&#x67f;" horiz-adv-x="814" arabic-form="isolated" 
d="M320.5 764.5q14.5 14.5 37.5 14.5q21 0 35.5 -14.5t14.5 -37.5q0 -22 -14.5 -37t-36.5 -15q-23 0 -37 15t-14 37q0 23 14.5 37.5zM457.5 764.5q14.5 14.5 37.5 14.5q21 0 35.5 -14.5t14.5 -37.5q0 -22 -14.5 -37t-36.5 -15q-23 0 -37 15t-14 37q0 23 14.5 37.5z
M320.5 632.5q14.5 14.5 37.5 14.5q21 0 35.5 -14.5t14.5 -37.5q0 -22 -14.5 -37t-36.5 -15q-23 0 -37 15t-14 37q0 23 14.5 37.5zM457.5 632.5q14.5 14.5 37.5 14.5q21 0 35.5 -14.5t14.5 -37.5q0 -22 -14.5 -37t-36.5 -15q-23 0 -37 15t-14 37q0 23 14.5 37.5zM128 228
q0 -74 38.5 -109.5t89.5 -44t123 -8.5h185q73 0 102 30t29 90v269h76v-285q0 -170 -203 -170h-217q-133 0 -214.5 47t-81.5 181q0 44 25 142l69 -17q-21 -82 -21 -125z" />
    <glyph glyph-name="uniFB63" unicode="&#x67f;" horiz-adv-x="886" arabic-form="final" 
d="M320 690q-14 15 -14 37q0 23 14.5 37.5t37.5 14.5q21 0 35.5 -14.5t14.5 -37.5q0 -22 -14.5 -37t-36.5 -15q-23 0 -37 15zM457 690q-14 15 -14 37q0 23 14.5 37.5t37.5 14.5q21 0 35.5 -14.5t14.5 -37.5q0 -22 -14.5 -37t-36.5 -15q-23 0 -37 15zM320 558q-14 15 -14 37
q0 23 14.5 37.5t37.5 14.5q21 0 35.5 -14.5t14.5 -37.5q0 -22 -14.5 -37t-36.5 -15q-23 0 -37 15zM457 558q-14 15 -14 37q0 23 14.5 37.5t37.5 14.5q21 0 35.5 -14.5t14.5 -37.5q0 -22 -14.5 -37t-36.5 -15q-23 0 -37 15zM895 0h-18q-35 0 -71.5 11t-62.5 30
q-24 -24 -67 -32.5t-108 -8.5h-217q-133 0 -214.5 47t-81.5 181q0 44 25 142l69 -17q-21 -82 -21 -125q0 -74 38.5 -109.5t89.5 -44t123 -8.5h196q51 0 76 7.5t34.5 26t9.5 57.5v298h76v-361q15 -14 43.5 -21t58.5 -7h22v-66z" />
    <glyph glyph-name="uniFB64" unicode="&#x67f;" horiz-adv-x="300" arabic-form="initial" 
d="M81.5 764.5q14.5 14.5 37.5 14.5q21 0 35.5 -14.5t14.5 -37.5q0 -22 -14.5 -37t-36.5 -15q-23 0 -37 15t-14 37q0 23 14.5 37.5zM218.5 764.5q14.5 14.5 37.5 14.5q21 0 35.5 -14.5t14.5 -37.5q0 -22 -14.5 -37t-36.5 -15q-23 0 -37 15t-14 37q0 23 14.5 37.5z
M81.5 632.5q14.5 14.5 37.5 14.5q21 0 35.5 -14.5t14.5 -37.5q0 -22 -14.5 -37t-36.5 -15q-23 0 -37 15t-14 37q0 23 14.5 37.5zM218.5 632.5q14.5 14.5 37.5 14.5q21 0 35.5 -14.5t14.5 -37.5q0 -22 -14.5 -37t-36.5 -15q-23 0 -37 15t-14 37q0 23 14.5 37.5zM226 455v-285
q0 -170 -203 -170h-32v66h28q73 0 102 30t29 90v269h76z" />
    <glyph glyph-name="uniFB65" unicode="&#x67f;" horiz-adv-x="403" arabic-form="medial" 
d="M116.5 764.5q14.5 14.5 37.5 14.5q21 0 35.5 -14.5t14.5 -37.5q0 -22 -14.5 -37t-36.5 -15q-23 0 -37 15t-14 37q0 23 14.5 37.5zM253.5 764.5q14.5 14.5 37.5 14.5q21 0 35.5 -14.5t14.5 -37.5q0 -22 -14.5 -37t-36.5 -15q-23 0 -37 15t-14 37q0 23 14.5 37.5z
M116.5 632.5q14.5 14.5 37.5 14.5q21 0 35.5 -14.5t14.5 -37.5q0 -22 -14.5 -37t-36.5 -15q-23 0 -37 15t-14 37q0 23 14.5 37.5zM253.5 632.5q14.5 14.5 37.5 14.5q21 0 35.5 -14.5t14.5 -37.5q0 -22 -14.5 -37t-36.5 -15q-23 0 -37 15t-14 37q0 23 14.5 37.5zM299 10
q-36 10 -65 31q-24 -24 -67 -32.5t-108 -8.5h-68v66h75q51 0 76 7.5t34.5 26t9.5 57.5v298h76v-361q15 -14 43.5 -21t58.5 -7h48v-66h-48q-29 0 -65 10z" />
    <glyph glyph-name="uniFB66" unicode="&#x679;" horiz-adv-x="814" arabic-form="isolated" 
d="M306 580h31v169h36v-91q3 3 17.5 12.5t37.5 18.5t50 9q26 0 43 -19.5t17 -49.5q0 -32 -14 -59t-45 -27h-173v37zM492 650.5q-8 8.5 -28 8.5q-22 0 -42.5 -11t-33 -22.5t-15.5 -15.5v-30h91q16 0 26 13t10 30q0 19 -8 27.5zM128 228q0 -74 38.5 -109.5t88.5 -43.5t124 -9
h185q73 -1 102 29.5t29 90.5v269h76v-285q0 -170 -203 -170h-217q-133 0 -214.5 47t-81.5 181q0 44 25 142l69 -17q-21 -82 -21 -125z" />
    <glyph glyph-name="uniFB67" unicode="&#x679;" horiz-adv-x="886" arabic-form="final" 
d="M546 570q-14 -27 -45 -27h-173v37h31v169h36v-91q3 3 17.5 12.5t37.5 18.5t50 9q26 0 43 -19.5t17 -49.5q0 -32 -14 -59zM486 580q16 0 26 13t10 30q0 19 -8 27.5t-28 8.5q-22 0 -42.5 -11t-33 -22.5t-15.5 -15.5v-30h91zM895 0h-18q-35 0 -71.5 11t-62.5 30
q-24 -24 -67 -32.5t-108 -8.5h-217q-133 0 -214.5 47t-81.5 181q0 44 25 142l69 -17q-21 -82 -21 -125q0 -74 38.5 -109.5t89.5 -44t123 -8.5h196q51 0 76 7.5t34.5 26t9.5 57.5v298h76v-361q15 -14 43.5 -21t58.5 -7h22v-66z" />
    <glyph glyph-name="uniFB68" unicode="&#x679;" horiz-adv-x="303" arabic-form="initial" 
d="M61 580h31v169h36v-91q3 3 17.5 12.5t37.5 18.5t50 9q26 0 43 -19.5t17 -49.5q0 -32 -14 -59t-45 -27h-173v37zM247 650.5q-8 8.5 -28 8.5q-22 0 -42.5 -11t-33 -22.5t-15.5 -15.5v-30h91q16 0 26 13t10 30q0 19 -8 27.5zM226 455v-285q0 -170 -203 -170h-32v66h28
q73 0 102 30t29 90v269h76z" />
    <glyph glyph-name="uniFB69" unicode="&#x679;" horiz-adv-x="403" arabic-form="medial" 
d="M93 580h31v169h36v-91q3 3 17.5 12.5t37.5 18.5t50 9q26 0 43 -19.5t17 -49.5q0 -32 -14 -59t-45 -27h-173v37zM279 650.5q-8 8.5 -28 8.5q-22 0 -42.5 -11t-33 -22.5t-15.5 -15.5v-30h91q16 0 26 13t10 30q0 19 -8 27.5zM299 10q-36 10 -65 31q-24 -24 -67 -32.5
t-108 -8.5h-68v66h75q51 0 76 7.5t34.5 26t9.5 57.5v298h76v-361q15 -14 43.5 -21t58.5 -7h48v-66h-48q-29 0 -65 10z" />
    <glyph glyph-name="uniFB6A" unicode="&#x6a4;" horiz-adv-x="954" arabic-form="isolated" 
d="M754.5 663.5q-14.5 -14.5 -37.5 -14.5q-21 0 -35.5 14.5t-14.5 37.5q0 22 14.5 37t36.5 15q23 0 37 -15t14 -37q0 -23 -14.5 -37.5zM684.5 531.5q-14.5 -14.5 -37.5 -14.5q-21 0 -35.5 14.5t-14.5 37.5q0 22 14.5 37t36.5 15q23 0 37 -15t14 -37q0 -23 -14.5 -37.5z
M821.5 531.5q-14.5 -14.5 -37.5 -14.5q-21 0 -35.5 14.5t-14.5 37.5q0 22 14.5 37t36.5 15q23 0 37 -15t14 -37q0 -23 -14.5 -37.5zM518 217q0 63 21.5 118.5t68 90t115.5 34.5q91 0 134 -65t43 -171v-224h-549q-133 0 -214.5 47t-81.5 181q0 44 25 142l69 -17
q-21 -82 -21 -125q0 -74 38.5 -109.5t89.5 -44t123 -8.5h180q-41 55 -41 151zM611.5 110.5q22.5 -42.5 83.5 -44.5h129v175q0 72 -21 114.5t-87 42.5q-61 0 -94 -52.5t-33 -125.5q0 -67 22.5 -109.5z" />
    <glyph glyph-name="uniFB6B" unicode="&#x6a4;" horiz-adv-x="956" arabic-form="final" 
d="M754.5 663.5q-14.5 -14.5 -37.5 -14.5q-21 0 -35.5 14.5t-14.5 37.5q0 22 14.5 37t36.5 15q23 0 37 -15t14 -37q0 -23 -14.5 -37.5zM684.5 531.5q-14.5 -14.5 -37.5 -14.5q-21 0 -35.5 14.5t-14.5 37.5q0 22 14.5 37t36.5 15q23 0 37 -15t14 -37q0 -23 -14.5 -37.5z
M821.5 531.5q-14.5 -14.5 -37.5 -14.5q-21 0 -35.5 14.5t-14.5 37.5q0 22 14.5 37t36.5 15q23 0 37 -15t14 -37q0 -23 -14.5 -37.5zM518 217q0 63 21.5 118.5t68 90t115.5 34.5q91 0 134 -65t43 -171v-158h65v-66h-614q-133 0 -214.5 47t-81.5 181q0 44 25 142l69 -17
q-21 -82 -21 -125q0 -74 38.5 -109.5t89.5 -44t123 -8.5h180q-41 55 -41 151zM611.5 110.5q22.5 -42.5 83.5 -44.5h129v175q0 72 -21 114.5t-87 42.5q-61 0 -94 -52.5t-33 -125.5q0 -67 22.5 -109.5z" />
    <glyph glyph-name="uniFB6C" unicode="&#x6a4;" horiz-adv-x="497" arabic-form="initial" 
d="M302.5 663.5q-14.5 -14.5 -37.5 -14.5q-21 0 -35.5 14.5t-14.5 37.5q0 22 14.5 37t36.5 15q23 0 37 -15t14 -37q0 -23 -14.5 -37.5zM232.5 531.5q-14.5 -14.5 -37.5 -14.5q-21 0 -35.5 14.5t-14.5 37.5q0 22 14.5 37t36.5 15q23 0 37 -15t14 -37q0 -23 -14.5 -37.5z
M369.5 531.5q-14.5 -14.5 -37.5 -14.5q-21 0 -35.5 14.5t-14.5 37.5q0 22 14.5 37t36.5 15q23 0 37 -15t14 -37q0 -23 -14.5 -37.5zM102 66q-41 55 -41 151q0 63 21.5 118.5t68 90t115.5 34.5q91 0 134 -65t43 -171v-224h-452v66h111zM154.5 109q22.5 -43 83.5 -43h129v175
q0 72 -21 114.5t-87 42.5q-61 0 -94 -52.5t-33 -125.5q0 -68 22.5 -111z" />
    <glyph glyph-name="uniFB6D" unicode="&#x6a4;" horiz-adv-x="499" arabic-form="medial" 
d="M302.5 663.5q-14.5 -14.5 -37.5 -14.5q-21 0 -35.5 14.5t-14.5 37.5q0 22 14.5 37t36.5 15q23 0 37 -15t14 -37q0 -23 -14.5 -37.5zM232.5 531.5q-14.5 -14.5 -37.5 -14.5q-21 0 -35.5 14.5t-14.5 37.5q0 22 14.5 37t36.5 15q23 0 37 -15t14 -37q0 -23 -14.5 -37.5z
M369.5 531.5q-14.5 -14.5 -37.5 -14.5q-21 0 -35.5 14.5t-14.5 37.5q0 22 14.5 37t36.5 15q23 0 37 -15t14 -37q0 -23 -14.5 -37.5zM102 66q-41 55 -41 151q0 63 21.5 118.5t68 90t115.5 34.5q91 0 134 -65t43 -171v-158h65v-66h-517v66h111zM154.5 109q22.5 -43 83.5 -43
h129v175q0 72 -21 114.5t-87 42.5q-61 0 -94 -52.5t-33 -125.5q0 -68 22.5 -111z" />
    <glyph glyph-name="uniFB6E" unicode="&#x6a6;" horiz-adv-x="954" arabic-form="isolated" 
d="M609.5 764.5q14.5 14.5 37.5 14.5q21 0 35.5 -14.5t14.5 -37.5q0 -22 -14.5 -37t-36.5 -15q-23 0 -37 15t-14 37q0 23 14.5 37.5zM746.5 764.5q14.5 14.5 37.5 14.5q21 0 35.5 -14.5t14.5 -37.5q0 -22 -14.5 -37t-36.5 -15q-23 0 -37 15t-14 37q0 23 14.5 37.5z
M609.5 632.5q14.5 14.5 37.5 14.5q21 0 35.5 -14.5t14.5 -37.5q0 -22 -14.5 -37t-36.5 -15q-23 0 -37 15t-14 37q0 23 14.5 37.5zM746.5 632.5q14.5 14.5 37.5 14.5q21 0 35.5 -14.5t14.5 -37.5q0 -22 -14.5 -37t-36.5 -15q-23 0 -37 15t-14 37q0 23 14.5 37.5zM518 217
q0 63 21.5 118.5t68 90t115.5 34.5q91 0 134 -65t43 -171v-224h-549q-133 0 -214.5 47t-81.5 181q0 44 25 142l69 -17q-21 -82 -21 -125q0 -74 38.5 -109.5t89.5 -44t123 -8.5h180q-41 55 -41 151zM611.5 110.5q22.5 -42.5 83.5 -44.5h129v175q0 72 -21 114.5t-87 42.5
q-61 0 -94 -52.5t-33 -125.5q0 -67 22.5 -109.5z" />
    <glyph glyph-name="uniFB6F" unicode="&#x6a6;" horiz-adv-x="956" arabic-form="final" 
d="M609.5 764.5q14.5 14.5 37.5 14.5q21 0 35.5 -14.5t14.5 -37.5q0 -22 -14.5 -37t-36.5 -15q-23 0 -37 15t-14 37q0 23 14.5 37.5zM746.5 764.5q14.5 14.5 37.5 14.5q21 0 35.5 -14.5t14.5 -37.5q0 -22 -14.5 -37t-36.5 -15q-23 0 -37 15t-14 37q0 23 14.5 37.5z
M609.5 632.5q14.5 14.5 37.5 14.5q21 0 35.5 -14.5t14.5 -37.5q0 -22 -14.5 -37t-36.5 -15q-23 0 -37 15t-14 37q0 23 14.5 37.5zM746.5 632.5q14.5 14.5 37.5 14.5q21 0 35.5 -14.5t14.5 -37.5q0 -22 -14.5 -37t-36.5 -15q-23 0 -37 15t-14 37q0 23 14.5 37.5zM518 217
q0 63 21.5 118.5t68 90t115.5 34.5q91 0 134 -65t43 -171v-158h65v-66h-614q-133 0 -214.5 47t-81.5 181q0 44 25 142l69 -17q-21 -82 -21 -125q0 -74 38.5 -109.5t89.5 -44t123 -8.5h180q-41 55 -41 151zM611.5 110.5q22.5 -42.5 83.5 -44.5h129v175q0 72 -21 114.5
t-87 42.5q-61 0 -94 -52.5t-33 -125.5q0 -67 22.5 -109.5z" />
    <glyph glyph-name="uniFB70" unicode="&#x6a6;" horiz-adv-x="497" arabic-form="initial" 
d="M154.5 764.5q14.5 14.5 37.5 14.5q21 0 35.5 -14.5t14.5 -37.5q0 -22 -14.5 -37t-36.5 -15q-23 0 -37 15t-14 37q0 23 14.5 37.5zM291.5 764.5q14.5 14.5 37.5 14.5q21 0 35.5 -14.5t14.5 -37.5q0 -22 -14.5 -37t-36.5 -15q-23 0 -37 15t-14 37q0 23 14.5 37.5z
M154.5 632.5q14.5 14.5 37.5 14.5q21 0 35.5 -14.5t14.5 -37.5q0 -22 -14.5 -37t-36.5 -15q-23 0 -37 15t-14 37q0 23 14.5 37.5zM291.5 632.5q14.5 14.5 37.5 14.5q21 0 35.5 -14.5t14.5 -37.5q0 -22 -14.5 -37t-36.5 -15q-23 0 -37 15t-14 37q0 23 14.5 37.5zM102 66
q-41 55 -41 151q0 63 21.5 118.5t68 90t115.5 34.5q91 0 134 -65t43 -171v-224h-452v66h111zM154.5 109q22.5 -43 83.5 -43h129v175q0 72 -21 114.5t-87 42.5q-61 0 -94 -52.5t-33 -125.5q0 -68 22.5 -111z" />
    <glyph glyph-name="uniFB71" unicode="&#x6a6;" horiz-adv-x="499" arabic-form="medial" 
d="M154.5 764.5q14.5 14.5 37.5 14.5q21 0 35.5 -14.5t14.5 -37.5q0 -22 -14.5 -37t-36.5 -15q-23 0 -37 15t-14 37q0 23 14.5 37.5zM291.5 764.5q14.5 14.5 37.5 14.5q21 0 35.5 -14.5t14.5 -37.5q0 -22 -14.5 -37t-36.5 -15q-23 0 -37 15t-14 37q0 23 14.5 37.5z
M154.5 632.5q14.5 14.5 37.5 14.5q21 0 35.5 -14.5t14.5 -37.5q0 -22 -14.5 -37t-36.5 -15q-23 0 -37 15t-14 37q0 23 14.5 37.5zM291.5 632.5q14.5 14.5 37.5 14.5q21 0 35.5 -14.5t14.5 -37.5q0 -22 -14.5 -37t-36.5 -15q-23 0 -37 15t-14 37q0 23 14.5 37.5zM102 66
q-41 55 -41 151q0 63 21.5 118.5t68 90t115.5 34.5q91 0 134 -65t43 -171v-158h65v-66h-517v66h111zM154.5 109q22.5 -43 83.5 -43h129v175q0 72 -21 114.5t-87 42.5q-61 0 -94 -52.5t-33 -125.5q0 -68 22.5 -111z" />
    <glyph glyph-name="uniFB72" unicode="&#x684;" horiz-adv-x="585" arabic-form="isolated" 
d="M258 460q120 0 179.5 -44.5t59.5 -158.5v-57q0 -34 7 -65t17.5 -50t18.5 -19v-66h-335q-64 0 -98.5 -22.5t-34.5 -85.5q0 -70 48.5 -103t127.5 -33h46v-66h-25q-122 0 -195.5 48t-73.5 156q0 172 192 172h260q-9 9 -20.5 48.5t-10.5 89.5v50q0 53 -10.5 82.5t-48 45.5
t-114.5 16q-62 0 -126 -21l1 64q58 19 135 19zM472.5 -160.5q-14.5 -14.5 -37.5 -14.5q-21 0 -35.5 14.5t-14.5 37.5q0 22 14.5 37t36.5 15q23 0 37 -15t14 -37q0 -23 -14.5 -37.5zM470.5 -307.5q-14.5 -14.5 -37.5 -14.5q-21 0 -35.5 14.5t-14.5 37.5q0 22 14.5 37t36.5 15
q23 0 37 -15t14 -37q0 -23 -14.5 -37.5z" />
    <glyph glyph-name="uniFB73" unicode="&#x684;" horiz-adv-x="591" arabic-form="final" 
d="M258 460q120 0 179.5 -44.5t59.5 -158.5v-57q0 -34 7 -65t17.5 -50t18.5 -19h60v-66h-395q-64 0 -98.5 -22.5t-34.5 -85.5q0 -70 48.5 -103t127.5 -33h46v-66h-25q-122 0 -195.5 48t-73.5 156q0 172 192 172h260q-9 9 -20.5 48.5t-10.5 89.5v50q0 53 -10.5 82.5t-48 45.5
t-114.5 16q-62 0 -126 -21l1 64q58 19 135 19zM497.5 -160.5q-14.5 -14.5 -37.5 -14.5q-21 0 -35.5 14.5t-14.5 37.5q0 22 14.5 37t36.5 15q23 0 37 -15t14 -37q0 -23 -14.5 -37.5zM495.5 -307.5q-14.5 -14.5 -37.5 -14.5q-21 0 -35.5 14.5t-14.5 37.5q0 22 14.5 37t36.5 15
q23 0 37 -15t14 -37q0 -23 -14.5 -37.5z" />
    <glyph glyph-name="uniFB74" unicode="&#x684;" horiz-adv-x="537" arabic-form="initial" 
d="M381.5 114.5q-11.5 39.5 -10.5 89.5v50q0 53 -10.5 82.5t-48 45.5t-114.5 16q-62 0 -126 -21l1 64q58 19 135 19q120 0 179.5 -44.5t59.5 -158.5v-57q0 -34 7 -65t17.5 -50t18.5 -19v-66h-499v66h411q-9 9 -20.5 48.5zM271.5 -160.5q-14.5 -14.5 -37.5 -14.5
q-21 0 -35.5 14.5t-14.5 37.5q0 22 14.5 37t36.5 15q23 0 37 -15t14 -37q0 -23 -14.5 -37.5zM269.5 -307.5q-14.5 -14.5 -37.5 -14.5q-21 0 -35.5 14.5t-14.5 37.5q0 22 14.5 37t36.5 15q23 0 37 -15t14 -37q0 -23 -14.5 -37.5z" />
    <glyph glyph-name="uniFB75" unicode="&#x684;" horiz-adv-x="505" arabic-form="medial" 
d="M-9 0v66h375q-9 9 -20.5 48.5t-10.5 89.5v50q0 53 -10.5 82.5t-48 45.5t-114.5 16q-62 0 -126 -21l1 64q58 19 135 19q120 0 179.5 -44.5t59.5 -158.5v-57q0 -34 7 -65t17.5 -50t18.5 -19h60v-66h-523zM270.5 -160.5q-14.5 -14.5 -37.5 -14.5q-21 0 -35.5 14.5
t-14.5 37.5q0 22 14.5 37t36.5 15q23 0 37 -15t14 -37q0 -23 -14.5 -37.5zM268.5 -307.5q-14.5 -14.5 -37.5 -14.5q-21 0 -35.5 14.5t-14.5 37.5q0 22 14.5 37t36.5 15q23 0 37 -15t14 -37q0 -23 -14.5 -37.5z" />
    <glyph glyph-name="uniFB76" unicode="&#x683;" horiz-adv-x="585" arabic-form="isolated" 
d="M258 460q120 0 179.5 -44.5t59.5 -158.5v-57q0 -34 7 -65t17.5 -50t18.5 -19v-66h-335q-64 0 -98.5 -22.5t-34.5 -85.5q0 -70 48.5 -103t127.5 -33h46v-66h-25q-122 0 -195.5 48t-73.5 156q0 172 192 172h260q-9 9 -20.5 48.5t-10.5 89.5v50q0 53 -10.5 82.5t-48 45.5
t-114.5 16q-62 0 -126 -21l1 64q58 19 135 19zM386.5 -183.5q-14.5 -14.5 -37.5 -14.5q-21 0 -35.5 14.5t-14.5 37.5q0 22 14.5 37t36.5 15q23 0 37 -15t14 -37q0 -23 -14.5 -37.5zM523.5 -183.5q-14.5 -14.5 -37.5 -14.5q-21 0 -35.5 14.5t-14.5 37.5q0 22 14.5 37t36.5 15
q23 0 37 -15t14 -37q0 -23 -14.5 -37.5z" />
    <glyph glyph-name="uniFB77" unicode="&#x683;" horiz-adv-x="591" arabic-form="final" 
d="M258 460q120 0 179.5 -44.5t59.5 -158.5v-57q0 -34 7 -65t17.5 -50t18.5 -19h60v-66h-395q-64 0 -98.5 -22.5t-34.5 -85.5q0 -70 48.5 -103t127.5 -33h46v-66h-25q-122 0 -195.5 48t-73.5 156q0 172 192 172h260q-9 9 -20.5 48.5t-10.5 89.5v50q0 53 -10.5 82.5t-48 45.5
t-114.5 16q-62 0 -126 -21l1 64q58 19 135 19zM386.5 -183.5q-14.5 -14.5 -37.5 -14.5q-21 0 -35.5 14.5t-14.5 37.5q0 22 14.5 37t36.5 15q23 0 37 -15t14 -37q0 -23 -14.5 -37.5zM523.5 -183.5q-14.5 -14.5 -37.5 -14.5q-21 0 -35.5 14.5t-14.5 37.5q0 22 14.5 37t36.5 15
q23 0 37 -15t14 -37q0 -23 -14.5 -37.5z" />
    <glyph glyph-name="uniFB78" unicode="&#x683;" horiz-adv-x="537" arabic-form="initial" 
d="M381.5 114.5q-11.5 39.5 -10.5 89.5v50q0 53 -10.5 82.5t-48 45.5t-114.5 16q-62 0 -126 -21l1 64q58 19 135 19q120 0 179.5 -44.5t59.5 -158.5v-57q0 -34 7 -65t17.5 -50t18.5 -19v-66h-499v66h411q-9 9 -20.5 48.5zM216.5 -183.5q-14.5 -14.5 -37.5 -14.5
q-21 0 -35.5 14.5t-14.5 37.5q0 22 14.5 37t36.5 15q23 0 37 -15t14 -37q0 -23 -14.5 -37.5zM353.5 -183.5q-14.5 -14.5 -37.5 -14.5q-21 0 -35.5 14.5t-14.5 37.5q0 22 14.5 37t36.5 15q23 0 37 -15t14 -37q0 -23 -14.5 -37.5z" />
    <glyph glyph-name="uniFB79" unicode="&#x683;" horiz-adv-x="505" arabic-form="medial" 
d="M-9 0v66h375q-9 9 -20.5 48.5t-10.5 89.5v50q0 53 -10.5 82.5t-48 45.5t-114.5 16q-62 0 -126 -21l1 64q58 19 135 19q120 0 179.5 -44.5t59.5 -158.5v-57q0 -34 7 -65t17.5 -50t18.5 -19h60v-66h-523zM212.5 -183.5q-14.5 -14.5 -37.5 -14.5q-21 0 -35.5 14.5
t-14.5 37.5q0 22 14.5 37t36.5 15q23 0 37 -15t14 -37q0 -23 -14.5 -37.5zM349.5 -183.5q-14.5 -14.5 -37.5 -14.5q-21 0 -35.5 14.5t-14.5 37.5q0 22 14.5 37t36.5 15q23 0 37 -15t14 -37q0 -23 -14.5 -37.5z" />
    <glyph glyph-name="uniFB7A" unicode="&#x686;" horiz-adv-x="586" arabic-form="isolated" 
d="M258 460q120 0 179.5 -44.5t59.5 -158.5v-57q0 -34 7 -65t17.5 -50t18.5 -19v-66h-335q-64 0 -98.5 -22.5t-34.5 -85.5q0 -70 48.5 -103t127.5 -33h46v-66h-25q-122 0 -195.5 48t-73.5 156q0 172 192 172h260q-9 9 -20.5 48.5t-10.5 89.5v50q0 53 -10.5 82.5t-48 45.5
t-114.5 16q-62 0 -126 -21l1 64q58 19 135 19zM316.5 -108.5q14.5 14.5 37.5 14.5q21 0 35.5 -14.5t14.5 -37.5q0 -22 -14.5 -37t-36.5 -15q-23 0 -37 15t-14 37q0 23 14.5 37.5zM453.5 -108.5q14.5 14.5 37.5 14.5q21 0 35.5 -14.5t14.5 -37.5q0 -22 -14.5 -37t-36.5 -15
q-23 0 -37 15t-14 37q0 23 14.5 37.5zM383.5 -240.5q14.5 14.5 37.5 14.5q21 0 35.5 -14.5t14.5 -37.5q0 -22 -14.5 -37t-36.5 -15q-23 0 -37 15t-14 37q0 23 14.5 37.5z" />
    <glyph glyph-name="uniFB7B" unicode="&#x686;" horiz-adv-x="591" arabic-form="final" 
d="M258 460q120 0 179.5 -44.5t59.5 -158.5v-57q0 -34 7 -65t17.5 -50t18.5 -19h60v-66h-395q-64 0 -98.5 -22.5t-34.5 -85.5q0 -70 48.5 -103t127.5 -33h46v-66h-25q-122 0 -195.5 48t-73.5 156q0 172 192 172h260q-9 9 -20.5 48.5t-10.5 89.5v50q0 53 -10.5 82.5t-48 45.5
t-114.5 16q-62 0 -126 -21l1 64q58 19 135 19zM316.5 -108.5q14.5 14.5 37.5 14.5q21 0 35.5 -14.5t14.5 -37.5q0 -22 -14.5 -37t-36.5 -15q-23 0 -37 15t-14 37q0 23 14.5 37.5zM453.5 -108.5q14.5 14.5 37.5 14.5q21 0 35.5 -14.5t14.5 -37.5q0 -22 -14.5 -37t-36.5 -15
q-23 0 -37 15t-14 37q0 23 14.5 37.5zM383.5 -240.5q14.5 14.5 37.5 14.5q21 0 35.5 -14.5t14.5 -37.5q0 -22 -14.5 -37t-36.5 -15q-23 0 -37 15t-14 37q0 23 14.5 37.5z" />
    <glyph glyph-name="uniFB7C" unicode="&#x686;" horiz-adv-x="537" arabic-form="initial" 
d="M381.5 114.5q-11.5 39.5 -10.5 89.5v50q0 53 -10.5 82.5t-48 45.5t-114.5 16q-62 0 -126 -21l1 64q58 19 135 19q120 0 179.5 -44.5t59.5 -158.5v-57q0 -34 7 -65t17.5 -50t18.5 -19v-66h-499v66h411q-9 9 -20.5 48.5zM117.5 -108.5q14.5 14.5 37.5 14.5q21 0 35.5 -14.5
t14.5 -37.5q0 -22 -14.5 -37t-36.5 -15q-23 0 -37 15t-14 37q0 23 14.5 37.5zM254.5 -108.5q14.5 14.5 37.5 14.5q21 0 35.5 -14.5t14.5 -37.5q0 -22 -14.5 -37t-36.5 -15q-23 0 -37 15t-14 37q0 23 14.5 37.5zM184.5 -240.5q14.5 14.5 37.5 14.5q21 0 35.5 -14.5
t14.5 -37.5q0 -22 -14.5 -37t-36.5 -15q-23 0 -37 15t-14 37q0 23 14.5 37.5z" />
    <glyph glyph-name="uniFB7D" unicode="&#x686;" horiz-adv-x="505" arabic-form="medial" 
d="M-9 0v66h375q-9 9 -20.5 48.5t-10.5 89.5v50q0 53 -10.5 82.5t-48 45.5t-114.5 16q-62 0 -126 -21l1 64q58 19 135 19q120 0 179.5 -44.5t59.5 -158.5v-57q0 -34 7 -65t17.5 -50t18.5 -19h60v-66h-523zM144.5 -108.5q14.5 14.5 37.5 14.5q21 0 35.5 -14.5t14.5 -37.5
q0 -22 -14.5 -37t-36.5 -15q-23 0 -37 15t-14 37q0 23 14.5 37.5zM281.5 -108.5q14.5 14.5 37.5 14.5q21 0 35.5 -14.5t14.5 -37.5q0 -22 -14.5 -37t-36.5 -15q-23 0 -37 15t-14 37q0 23 14.5 37.5zM211.5 -240.5q14.5 14.5 37.5 14.5q21 0 35.5 -14.5t14.5 -37.5
q0 -22 -14.5 -37t-36.5 -15q-23 0 -37 15t-14 37q0 23 14.5 37.5z" />
    <glyph glyph-name="uniFB7E" unicode="&#x687;" horiz-adv-x="586" arabic-form="isolated" 
d="M258 460q120 0 179.5 -44.5t59.5 -158.5v-57q0 -34 7 -65t17.5 -50t18.5 -19v-66h-335q-64 0 -98.5 -22.5t-34.5 -85.5q0 -70 48.5 -103t127.5 -33h21v-66q-122 0 -195.5 48t-73.5 156q0 172 192 172h260q-9 9 -20.5 48.5t-10.5 89.5v50q0 53 -10.5 82.5t-48 45.5
t-114.5 16q-62 0 -126 -21l1 64q58 19 135 19zM329.5 -107.5q14.5 14.5 37.5 14.5q21 0 35.5 -14.5t14.5 -37.5q0 -22 -14.5 -37t-36.5 -15q-23 0 -37 15t-14 37q0 23 14.5 37.5zM466.5 -107.5q14.5 14.5 37.5 14.5q21 0 35.5 -14.5t14.5 -37.5q0 -22 -14.5 -37t-36.5 -15
q-23 0 -37 15t-14 37q0 23 14.5 37.5zM329.5 -239.5q14.5 14.5 37.5 14.5q21 0 35.5 -14.5t14.5 -37.5q0 -22 -14.5 -37t-36.5 -15q-23 0 -37 15t-14 37q0 23 14.5 37.5zM466.5 -239.5q14.5 14.5 37.5 14.5q21 0 35.5 -14.5t14.5 -37.5q0 -22 -14.5 -37t-36.5 -15
q-23 0 -37 15t-14 37q0 23 14.5 37.5z" />
    <glyph glyph-name="uniFB7F" unicode="&#x687;" horiz-adv-x="591" arabic-form="final" 
d="M258 460q120 0 179.5 -44.5t59.5 -158.5v-57q0 -34 7 -65t17.5 -50t18.5 -19h60v-66h-395q-64 0 -98.5 -22.5t-34.5 -85.5q0 -70 48.5 -103t127.5 -33h46v-66h-25q-122 0 -195.5 48t-73.5 156q0 172 192 172h260q-9 9 -20.5 48.5t-10.5 89.5v50q0 53 -10.5 82.5t-48 45.5
t-114.5 16q-62 0 -126 -21l1 64q58 19 135 19zM357.5 -107.5q14.5 14.5 37.5 14.5q21 0 35.5 -14.5t14.5 -37.5q0 -22 -14.5 -37t-36.5 -15q-23 0 -37 15t-14 37q0 23 14.5 37.5zM494.5 -107.5q14.5 14.5 37.5 14.5q21 0 35.5 -14.5t14.5 -37.5q0 -22 -14.5 -37t-36.5 -15
q-23 0 -37 15t-14 37q0 23 14.5 37.5zM357.5 -239.5q14.5 14.5 37.5 14.5q21 0 35.5 -14.5t14.5 -37.5q0 -22 -14.5 -37t-36.5 -15q-23 0 -37 15t-14 37q0 23 14.5 37.5zM494.5 -239.5q14.5 14.5 37.5 14.5q21 0 35.5 -14.5t14.5 -37.5q0 -22 -14.5 -37t-36.5 -15
q-23 0 -37 15t-14 37q0 23 14.5 37.5z" />
    <glyph glyph-name="uniFB80" unicode="&#x687;" horiz-adv-x="537" arabic-form="initial" 
d="M381.5 114.5q-11.5 39.5 -10.5 89.5v50q0 53 -10.5 82.5t-48 45.5t-114.5 16q-62 0 -126 -21l1 64q58 19 135 19q120 0 179.5 -44.5t59.5 -158.5v-57q0 -34 7 -65t17.5 -50t18.5 -19v-66h-499v66h411q-9 9 -20.5 48.5zM151.5 -107.5q14.5 14.5 37.5 14.5q21 0 35.5 -14.5
t14.5 -37.5q0 -22 -14.5 -37t-36.5 -15q-23 0 -37 15t-14 37q0 23 14.5 37.5zM288.5 -107.5q14.5 14.5 37.5 14.5q21 0 35.5 -14.5t14.5 -37.5q0 -22 -14.5 -37t-36.5 -15q-23 0 -37 15t-14 37q0 23 14.5 37.5zM151.5 -239.5q14.5 14.5 37.5 14.5q21 0 35.5 -14.5
t14.5 -37.5q0 -22 -14.5 -37t-36.5 -15q-23 0 -37 15t-14 37q0 23 14.5 37.5zM288.5 -239.5q14.5 14.5 37.5 14.5q21 0 35.5 -14.5t14.5 -37.5q0 -22 -14.5 -37t-36.5 -15q-23 0 -37 15t-14 37q0 23 14.5 37.5z" />
    <glyph glyph-name="uniFB81" unicode="&#x687;" horiz-adv-x="505" arabic-form="medial" 
d="M-9 0v66h375q-9 9 -20.5 48.5t-10.5 89.5v50q0 53 -10.5 82.5t-48 45.5t-114.5 16q-62 0 -126 -21l1 64q58 19 135 19q120 0 179.5 -44.5t59.5 -158.5v-57q0 -34 7 -65t17.5 -50t18.5 -19h60v-66h-523zM132.5 -107.5q14.5 14.5 37.5 14.5q21 0 35.5 -14.5t14.5 -37.5
q0 -22 -14.5 -37t-36.5 -15q-23 0 -37 15t-14 37q0 23 14.5 37.5zM269.5 -107.5q14.5 14.5 37.5 14.5q21 0 35.5 -14.5t14.5 -37.5q0 -22 -14.5 -37t-36.5 -15q-23 0 -37 15t-14 37q0 23 14.5 37.5zM132.5 -239.5q14.5 14.5 37.5 14.5q21 0 35.5 -14.5t14.5 -37.5
q0 -22 -14.5 -37t-36.5 -15q-23 0 -37 15t-14 37q0 23 14.5 37.5zM269.5 -239.5q14.5 14.5 37.5 14.5q21 0 35.5 -14.5t14.5 -37.5q0 -22 -14.5 -37t-36.5 -15q-23 0 -37 15t-14 37q0 23 14.5 37.5z" />
    <glyph glyph-name="uniFB82" unicode="&#x68d;" horiz-adv-x="466" arabic-form="isolated" 
d="M370 141q0 46 -68.5 126t-140.5 136l47 60q49 -40 104.5 -97t94.5 -116t39 -102q0 -148 -175 -148h-220v66h210q109 0 109 75zM213.5 -183.5q-14.5 -14.5 -37.5 -14.5q-21 0 -35.5 14.5t-14.5 37.5q0 22 14.5 37t36.5 15q23 0 37 -15t14 -37q0 -23 -14.5 -37.5z
M350.5 -183.5q-14.5 -14.5 -37.5 -14.5q-21 0 -35.5 14.5t-14.5 37.5q0 22 14.5 37t36.5 15q23 0 37 -15t14 -37q0 -23 -14.5 -37.5z" />
    <glyph glyph-name="uniFB83" unicode="&#x68d;" horiz-adv-x="548" arabic-form="final" 
d="M472 10q-36 10 -65 31q-44 -41 -136 -41h-220v66h210q109 0 109 75q0 46 -68.5 126t-140.5 136l47 60q49 -40 104.5 -97t94.5 -116t39 -102q0 -30 -8 -57q16 -12 43.5 -18.5t55.5 -6.5h20v-66h-20q-29 0 -65 10zM203.5 -183.5q-14.5 -14.5 -37.5 -14.5q-21 0 -35.5 14.5
t-14.5 37.5q0 22 14.5 37t36.5 15q23 0 37 -15t14 -37q0 -23 -14.5 -37.5zM340.5 -183.5q-14.5 -14.5 -37.5 -14.5q-21 0 -35.5 14.5t-14.5 37.5q0 22 14.5 37t36.5 15q23 0 37 -15t14 -37q0 -23 -14.5 -37.5z" />
    <glyph glyph-name="uniFB84" unicode="&#x68c;" horiz-adv-x="466" arabic-form="isolated" 
d="M173.5 584.5q-14.5 -14.5 -37.5 -14.5q-21 0 -35.5 14.5t-14.5 37.5q0 22 14.5 37t36.5 15q23 0 37 -15t14 -37q0 -23 -14.5 -37.5zM310.5 584.5q-14.5 -14.5 -37.5 -14.5q-21 0 -35.5 14.5t-14.5 37.5q0 22 14.5 37t36.5 15q23 0 37 -15t14 -37q0 -23 -14.5 -37.5z
M370 141q0 46 -68.5 126t-140.5 136l47 60q49 -40 104.5 -97t94.5 -116t39 -102q0 -148 -175 -148h-220v66h210q109 0 109 75z" />
    <glyph glyph-name="uniFB85" unicode="&#x68c;" horiz-adv-x="548" arabic-form="final" 
d="M173.5 584.5q-14.5 -14.5 -37.5 -14.5q-21 0 -35.5 14.5t-14.5 37.5q0 22 14.5 37t36.5 15q23 0 37 -15t14 -37q0 -23 -14.5 -37.5zM310.5 584.5q-14.5 -14.5 -37.5 -14.5q-21 0 -35.5 14.5t-14.5 37.5q0 22 14.5 37t36.5 15q23 0 37 -15t14 -37q0 -23 -14.5 -37.5z
M472 10q-36 10 -65 31q-44 -41 -136 -41h-220v66h210q109 0 109 75q0 46 -68.5 126t-140.5 136l47 60q49 -40 104.5 -97t94.5 -116t39 -102q0 -30 -8 -57q16 -12 43.5 -18.5t55.5 -6.5h20v-66h-20q-29 0 -65 10z" />
    <glyph glyph-name="uniFB86" unicode="&#x68e;" horiz-adv-x="466" arabic-form="isolated" 
d="M234.5 663.5q-14.5 -14.5 -37.5 -14.5q-21 0 -35.5 14.5t-14.5 37.5q0 22 14.5 37t36.5 15q23 0 37 -15t14 -37q0 -23 -14.5 -37.5zM164.5 531.5q-14.5 -14.5 -37.5 -14.5q-21 0 -35.5 14.5t-14.5 37.5q0 22 14.5 37t36.5 15q23 0 37 -15t14 -37q0 -23 -14.5 -37.5z
M301.5 531.5q-14.5 -14.5 -37.5 -14.5q-21 0 -35.5 14.5t-14.5 37.5q0 22 14.5 37t36.5 15q23 0 37 -15t14 -37q0 -23 -14.5 -37.5zM370 141q0 46 -68.5 126t-140.5 136l47 60q49 -40 104.5 -97t94.5 -116t39 -102q0 -148 -175 -148h-220v66h210q109 0 109 75z" />
    <glyph glyph-name="uniFB87" unicode="&#x68e;" horiz-adv-x="548" arabic-form="final" 
d="M234.5 663.5q-14.5 -14.5 -37.5 -14.5q-21 0 -35.5 14.5t-14.5 37.5q0 22 14.5 37t36.5 15q23 0 37 -15t14 -37q0 -23 -14.5 -37.5zM164.5 531.5q-14.5 -14.5 -37.5 -14.5q-21 0 -35.5 14.5t-14.5 37.5q0 22 14.5 37t36.5 15q23 0 37 -15t14 -37q0 -23 -14.5 -37.5z
M301.5 531.5q-14.5 -14.5 -37.5 -14.5q-21 0 -35.5 14.5t-14.5 37.5q0 22 14.5 37t36.5 15q23 0 37 -15t14 -37q0 -23 -14.5 -37.5zM472 10q-36 10 -65 31q-44 -41 -136 -41h-220v66h210q109 0 109 75q0 46 -68.5 126t-140.5 136l47 60q49 -40 104.5 -97t94.5 -116t39 -102
q0 -30 -8 -57q16 -12 43.5 -18.5t55.5 -6.5h20v-66h-20q-29 0 -65 10z" />
    <glyph glyph-name="uniFB88" unicode="&#x688;" horiz-adv-x="466" arabic-form="isolated" 
d="M105 580h31v169h36v-91q3 3 17.5 12.5t37.5 18.5t50 9q26 0 43 -19.5t17 -49.5q0 -32 -14 -59t-45 -27h-173v37zM291 650.5q-8 8.5 -28 8.5q-22 0 -42.5 -11t-33 -22.5t-15.5 -15.5v-30h91q16 0 26 13t10 30q0 19 -8 27.5zM370 141q0 46 -68.5 126t-140.5 136l47 60
q49 -40 104.5 -97t94.5 -116t39 -102q0 -148 -175 -148h-220v66h210q109 0 109 75z" />
    <glyph glyph-name="uniFB89" unicode="&#x688;" horiz-adv-x="548" arabic-form="final" 
d="M105 580h31v169h36v-91q3 3 17.5 12.5t37.5 18.5t50 9q26 0 43 -19.5t17 -49.5q0 -32 -14 -59t-45 -27h-173v37zM291 650.5q-8 8.5 -28 8.5q-22 0 -42.5 -11t-33 -22.5t-15.5 -15.5v-30h91q16 0 26 13t10 30q0 19 -8 27.5zM472 10q-36 10 -65 31q-44 -41 -136 -41h-220
v66h210q109 0 109 75q0 46 -68.5 126t-140.5 136l47 60q49 -40 104.5 -97t94.5 -116t39 -102q0 -30 -8 -57q16 -12 43.5 -18.5t55.5 -6.5h20v-66h-20q-29 0 -65 10z" />
    <glyph glyph-name="uniFB8A" unicode="&#x698;" horiz-adv-x="280" arabic-form="isolated" 
d="M206.5 663.5q-14.5 -14.5 -37.5 -14.5q-21 0 -35.5 14.5t-14.5 37.5q0 22 14.5 37t36.5 15q23 0 37 -15t14 -37q0 -23 -14.5 -37.5zM136.5 531.5q-14.5 -14.5 -37.5 -14.5q-21 0 -35.5 14.5t-14.5 37.5q0 22 14.5 37t36.5 15q23 0 37 -15t14 -37q0 -23 -14.5 -37.5z
M273.5 531.5q-14.5 -14.5 -37.5 -14.5q-21 0 -35.5 14.5t-14.5 37.5q0 22 14.5 37t36.5 15q23 0 37 -15t14 -37q0 -23 -14.5 -37.5zM-20 -179q156 0 156 175v402h76v-364q0 -160 -67 -221q-62 -57 -169 -57q-26 0 -50 3l19 64q22 -2 35 -2z" />
    <glyph glyph-name="uniFB8B" unicode="&#x698;" horiz-adv-x="304" arabic-form="final" 
d="M206.5 663.5q-14.5 -14.5 -37.5 -14.5q-21 0 -35.5 14.5t-14.5 37.5q0 22 14.5 37t36.5 15q23 0 37 -15t14 -37q0 -23 -14.5 -37.5zM136.5 531.5q-14.5 -14.5 -37.5 -14.5q-21 0 -35.5 14.5t-14.5 37.5q0 22 14.5 37t36.5 15q23 0 37 -15t14 -37q0 -23 -14.5 -37.5z
M273.5 531.5q-14.5 -14.5 -37.5 -14.5q-21 0 -35.5 14.5t-14.5 37.5q0 22 14.5 37t36.5 15q23 0 37 -15t14 -37q0 -23 -14.5 -37.5zM-20 -179q156 0 156 175v402h76v-332h101v-66h-102q-6 -131 -66 -187q-62 -57 -169 -57q-26 0 -50 3l19 64q22 -2 35 -2z" />
    <glyph glyph-name="uniFB8C" unicode="&#x691;" horiz-adv-x="280" arabic-form="isolated" 
d="M58 580h31v169h36v-91q3 3 17.5 12.5t37.5 18.5t50 9q26 0 43 -19.5t17 -49.5q0 -32 -14 -59t-45 -27h-173v37zM244 650.5q-8 8.5 -28 8.5q-22 0 -42.5 -11t-33 -22.5t-15.5 -15.5v-30h91q16 0 26 13t10 30q0 19 -8 27.5zM-20 -179q156 0 156 175v402h76v-364
q0 -160 -67 -221q-62 -57 -169 -57q-26 0 -50 3l19 64q22 -2 35 -2z" />
    <glyph glyph-name="uniFB8D" unicode="&#x691;" horiz-adv-x="304" arabic-form="final" 
d="M58 580h31v169h36v-91q3 3 17.5 12.5t37.5 18.5t50 9q26 0 43 -19.5t17 -49.5q0 -32 -14 -59t-45 -27h-173v37zM244 650.5q-8 8.5 -28 8.5q-22 0 -42.5 -11t-33 -22.5t-15.5 -15.5v-30h91q16 0 26 13t10 30q0 19 -8 27.5zM-20 -179q156 0 156 175v402h76v-332h101v-66
h-102q-6 -131 -66 -187q-62 -57 -169 -57q-26 0 -50 3l19 64q22 -2 35 -2z" />
    <glyph glyph-name="uniFB8E" unicode="&#x6a9;" horiz-adv-x="784" arabic-form="isolated" 
d="M136.5 47q-81.5 47 -81.5 181q0 44 25 142l69 -17q-21 -82 -21 -125q0 -74 38.5 -109.5t89.5 -44t123 -8.5h271v98q0 53 -10.5 82.5t-48 45.5t-114.5 16h-133l-30 51l315 324l50 -48l-256 -265h64q120 0 179.5 -44.5t59.5 -158.5v-167h-375q-133 0 -214.5 47z" />
    <glyph glyph-name="uniFB8F" unicode="&#x6a9;" horiz-adv-x="768" arabic-form="final" 
d="M424 370h64q120 0 179.5 -44.5t59.5 -158.5v-101h50v-66h-426q-133 0 -214.5 47t-81.5 181q0 44 25 142l69 -17q-21 -82 -21 -125q0 -74 38.5 -109.5t89.5 -44t123 -8.5h272v98q0 53 -10.5 82.5t-48 45.5t-114.5 16h-133l-30 51l315 324l50 -48z" />
    <glyph glyph-name="uniFB90" unicode="&#x6a9;" horiz-adv-x="512" arabic-form="initial" 
d="M151 370h64q120 0 179.5 -44.5t59.5 -158.5v-167h-463v66h387v98q0 53 -10.5 82.5t-48 45.5t-114.5 16h-133l-30 51l315 324l50 -48z" />
    <glyph glyph-name="uniFB91" unicode="&#x6a9;" horiz-adv-x="495" arabic-form="medial" 
d="M151 370h64q120 0 179.5 -44.5t59.5 -158.5v-101h50v-66h-513v66h387v98q0 53 -10.5 82.5t-48 45.5t-114.5 16h-133l-30 51l315 324l50 -48z" />
    <glyph glyph-name="uniFB92" unicode="&#x6af;" horiz-adv-x="784" arabic-form="isolated" 
d="M549 750l33 -30l-315 -324l-33 30zM136.5 47q-81.5 47 -81.5 181q0 44 25 142l69 -17q-21 -82 -21 -125q0 -74 38.5 -109.5t89.5 -44t123 -8.5h271v98q0 53 -10.5 82.5t-48 45.5t-114.5 16h-133l-30 51l315 324l50 -48l-256 -265h64q120 0 179.5 -44.5t59.5 -158.5v-167
h-375q-133 0 -214.5 47z" />
    <glyph glyph-name="uniFB93" unicode="&#x6af;" horiz-adv-x="768" arabic-form="final" 
d="M549 750l33 -30l-315 -324l-33 30zM424 370h64q120 0 179.5 -44.5t59.5 -158.5v-101h50v-66h-426q-133 0 -214.5 47t-81.5 181q0 44 25 142l69 -17q-21 -82 -21 -125q0 -74 38.5 -109.5t89.5 -44t123 -8.5h272v98q0 53 -10.5 82.5t-48 45.5t-114.5 16h-133l-30 51
l315 324l50 -48z" />
    <glyph glyph-name="uniFB94" unicode="&#x6af;" horiz-adv-x="512" arabic-form="initial" 
d="M284 750l33 -30l-315 -324l-33 30zM151 370h64q120 0 179.5 -44.5t59.5 -158.5v-167h-463v66h387v98q0 53 -10.5 82.5t-48 45.5t-114.5 16h-133l-30 51l315 324l50 -48z" />
    <glyph glyph-name="uniFB95" unicode="&#x6af;" horiz-adv-x="495" arabic-form="medial" 
d="M284 750l33 -30l-315 -324l-33 30zM151 370h64q120 0 179.5 -44.5t59.5 -158.5v-101h50v-66h-513v66h387v98q0 53 -10.5 82.5t-48 45.5t-114.5 16h-133l-30 51l315 324l50 -48z" />
    <glyph glyph-name="uniFB96" unicode="&#x6b3;" horiz-adv-x="784" arabic-form="isolated" 
d="M549 750l33 -30l-315 -324l-33 30zM136.5 47q-81.5 47 -81.5 181q0 44 25 142l69 -17q-21 -82 -21 -125q0 -74 38.5 -109.5t89.5 -44t123 -8.5h271v98q0 53 -10.5 82.5t-48 45.5t-114.5 16h-133l-30 51l315 324l50 -48l-256 -265h64q120 0 179.5 -44.5t59.5 -158.5v-167
h-375q-133 0 -214.5 47zM440.5 -163.5q-14.5 -14.5 -37.5 -14.5q-21 0 -35.5 14.5t-14.5 37.5q0 22 14.5 37t36.5 15q23 0 37 -15t14 -37q0 -23 -14.5 -37.5zM438.5 -310.5q-14.5 -14.5 -37.5 -14.5q-21 0 -35.5 14.5t-14.5 37.5q0 22 14.5 37t36.5 15q23 0 37 -15t14 -37
q0 -23 -14.5 -37.5z" />
    <glyph glyph-name="uniFB97" unicode="&#x6b3;" horiz-adv-x="768" arabic-form="final" 
d="M549 750l33 -30l-315 -324l-33 30zM424 370h64q120 0 179.5 -44.5t59.5 -158.5v-101h50v-66h-426q-133 0 -214.5 47t-81.5 181q0 44 25 142l69 -17q-21 -82 -21 -125q0 -74 38.5 -109.5t89.5 -44t123 -8.5h272v98q0 53 -10.5 82.5t-48 45.5t-114.5 16h-133l-30 51
l315 324l50 -48zM440.5 -163.5q-14.5 -14.5 -37.5 -14.5q-21 0 -35.5 14.5t-14.5 37.5q0 22 14.5 37t36.5 15q23 0 37 -15t14 -37q0 -23 -14.5 -37.5zM438.5 -310.5q-14.5 -14.5 -37.5 -14.5q-21 0 -35.5 14.5t-14.5 37.5q0 22 14.5 37t36.5 15q23 0 37 -15t14 -37
q0 -23 -14.5 -37.5z" />
    <glyph glyph-name="uniFB98" unicode="&#x6b3;" horiz-adv-x="512" arabic-form="initial" 
d="M284 750l33 -30l-315 -324l-33 30zM151 370h64q120 0 179.5 -44.5t59.5 -158.5v-167h-463v66h387v98q0 53 -10.5 82.5t-48 45.5t-114.5 16h-133l-30 51l315 324l50 -48zM269.5 -163.5q-14.5 -14.5 -37.5 -14.5q-21 0 -35.5 14.5t-14.5 37.5q0 22 14.5 37t36.5 15
q23 0 37 -15t14 -37q0 -23 -14.5 -37.5zM267.5 -310.5q-14.5 -14.5 -37.5 -14.5q-21 0 -35.5 14.5t-14.5 37.5q0 22 14.5 37t36.5 15q23 0 37 -15t14 -37q0 -23 -14.5 -37.5z" />
    <glyph glyph-name="uniFB99" unicode="&#x6b3;" horiz-adv-x="495" arabic-form="medial" 
d="M284 750l33 -30l-315 -324l-33 30zM151 370h64q120 0 179.5 -44.5t59.5 -158.5v-101h50v-66h-513v66h387v98q0 53 -10.5 82.5t-48 45.5t-114.5 16h-133l-30 51l315 324l50 -48zM269.5 -163.5q-14.5 -14.5 -37.5 -14.5q-21 0 -35.5 14.5t-14.5 37.5q0 22 14.5 37t36.5 15
q23 0 37 -15t14 -37q0 -23 -14.5 -37.5zM267.5 -310.5q-14.5 -14.5 -37.5 -14.5q-21 0 -35.5 14.5t-14.5 37.5q0 22 14.5 37t36.5 15q23 0 37 -15t14 -37q0 -23 -14.5 -37.5z" />
    <glyph glyph-name="uniFB9A" unicode="&#x6b1;" horiz-adv-x="784" arabic-form="isolated" 
d="M549 750l33 -30l-315 -324l-33 30zM136.5 47q-81.5 47 -81.5 181q0 44 25 142l69 -17q-21 -82 -21 -125q0 -74 38.5 -109.5t89.5 -44t123 -8.5h271v98q0 53 -10.5 82.5t-48 45.5t-114.5 16h-133l-30 51l315 324l50 -48l-256 -265h64q120 0 179.5 -44.5t59.5 -158.5v-167
h-375q-133 0 -214.5 47zM186.5 584.5q-14.5 -14.5 -37.5 -14.5q-21 0 -35.5 14.5t-14.5 37.5q0 22 14.5 37t36.5 15q23 0 37 -15t14 -37q0 -23 -14.5 -37.5zM323.5 584.5q-14.5 -14.5 -37.5 -14.5q-21 0 -35.5 14.5t-14.5 37.5q0 22 14.5 37t36.5 15q23 0 37 -15t14 -37
q0 -23 -14.5 -37.5z" />
    <glyph glyph-name="uniFB9B" unicode="&#x6b1;" horiz-adv-x="768" arabic-form="final" 
d="M549 750l33 -30l-315 -324l-33 30zM424 370h64q120 0 179.5 -44.5t59.5 -158.5v-101h50v-66h-426q-133 0 -214.5 47t-81.5 181q0 44 25 142l69 -17q-21 -82 -21 -125q0 -74 38.5 -109.5t89.5 -44t123 -8.5h272v98q0 53 -10.5 82.5t-48 45.5t-114.5 16h-133l-30 51
l315 324l50 -48zM186.5 584.5q-14.5 -14.5 -37.5 -14.5q-21 0 -35.5 14.5t-14.5 37.5q0 22 14.5 37t36.5 15q23 0 37 -15t14 -37q0 -23 -14.5 -37.5zM323.5 584.5q-14.5 -14.5 -37.5 -14.5q-21 0 -35.5 14.5t-14.5 37.5q0 22 14.5 37t36.5 15q23 0 37 -15t14 -37
q0 -23 -14.5 -37.5z" />
    <glyph glyph-name="uniFB9C" unicode="&#x6b1;" horiz-adv-x="604" arabic-form="initial" 
d="M376 750l33 -30l-315 -324l-33 30zM243 370h64q120 0 179.5 -44.5t59.5 -158.5v-167h-555v66h479v98q0 53 -10.5 82.5t-48 45.5t-114.5 16h-133l-30 51l315 324l50 -48zM41.5 584.5q-14.5 -14.5 -37.5 -14.5q-21 0 -35.5 14.5t-14.5 37.5q0 22 14.5 37t36.5 15
q23 0 37 -15t14 -37q0 -23 -14.5 -37.5zM178.5 584.5q-14.5 -14.5 -37.5 -14.5q-21 0 -35.5 14.5t-14.5 37.5q0 22 14.5 37t36.5 15q23 0 37 -15t14 -37q0 -23 -14.5 -37.5z" />
    <glyph glyph-name="uniFB9D" unicode="&#x6b1;" horiz-adv-x="615" arabic-form="medial" 
d="M404 750l33 -30l-315 -324l-33 30zM271 370h64q120 0 179.5 -44.5t59.5 -158.5v-101h50v-66h-633v66h507v98q0 53 -10.5 82.5t-48 45.5t-114.5 16h-133l-30 51l315 324l50 -48zM63.5 584.5q-14.5 -14.5 -37.5 -14.5q-21 0 -35.5 14.5t-14.5 37.5q0 22 14.5 37t36.5 15
q23 0 37 -15t14 -37q0 -23 -14.5 -37.5zM200.5 584.5q-14.5 -14.5 -37.5 -14.5q-21 0 -35.5 14.5t-14.5 37.5q0 22 14.5 37t36.5 15q23 0 37 -15t14 -37q0 -23 -14.5 -37.5z" />
    <glyph glyph-name="uniFB9E" unicode="&#x6ba;" horiz-adv-x="693" arabic-form="isolated" 
d="M625 398v-408q0 -31 -19.5 -65t-68.5 -59.5t-133 -25.5h-51q-133 0 -214.5 47t-81.5 181q0 47 20 125t39 133l68 -18l-10 -33q-44 -148 -44 -207q0 -74 38.5 -109.5t89 -43.5t123.5 -8h39q50 0 89.5 23t39.5 71v397h76z" />
    <glyph glyph-name="uniFB9F" unicode="&#x6ba;" horiz-adv-x="728" arabic-form="final" 
d="M674 5q-25 5 -49 16v-31q0 -31 -19.5 -65t-68.5 -59.5t-133 -25.5h-51q-133 0 -214.5 47t-81.5 181q0 47 20 125t39 133l68 -18l-10 -33q-44 -148 -44 -207q0 -74 38.5 -109.5t89 -43.5t123.5 -8h39q50 0 89.5 23t39.5 71v397h76v-309q15 -11 40 -17t54 -6h18v-66h-18
q-20 0 -45 5z" />
    <glyph glyph-name="uniFBA0" unicode="&#x6bb;" horiz-adv-x="693" arabic-form="isolated" 
d="M272 513h31v169h36v-91q3 3 17.5 12.5t37.5 18.5t50 9q26 0 43 -19.5t17 -49.5q0 -32 -14 -59t-45 -27h-173v37zM458 583.5q-8 8.5 -28 8.5q-22 0 -42.5 -11t-33 -22.5t-15.5 -15.5v-30h91q16 0 26 13t10 30q0 19 -8 27.5zM625 398v-408q0 -31 -19.5 -65t-68.5 -59.5
t-133 -25.5h-51q-133 0 -214.5 47t-81.5 181q0 47 20 125t39 133l68 -18l-10 -33q-44 -148 -44 -207q0 -74 38.5 -109.5t89 -43.5t123.5 -8h39q50 0 89.5 23t39.5 71v397h76z" />
    <glyph glyph-name="uniFBA1" unicode="&#x6bb;" horiz-adv-x="728" arabic-form="final" 
d="M272 513h31v169h36v-91q3 3 17.5 12.5t37.5 18.5t50 9q26 0 43 -19.5t17 -49.5q0 -32 -14 -59t-45 -27h-173v37zM458 583.5q-8 8.5 -28 8.5q-22 0 -42.5 -11t-33 -22.5t-15.5 -15.5v-30h91q16 0 26 13t10 30q0 19 -8 27.5zM674 5q-25 5 -49 16v-31q0 -31 -19.5 -65
t-68.5 -59.5t-133 -25.5h-51q-133 0 -214.5 47t-81.5 181q0 47 20 125t39 133l68 -18l-10 -33q-44 -148 -44 -207q0 -74 38.5 -109.5t89 -43.5t123.5 -8h39q50 0 89.5 23t39.5 71v397h76v-309q15 -11 40 -17t54 -6h18v-66h-18q-20 0 -45 5z" />
    <glyph glyph-name="uniFBA2" unicode="&#x6bb;" horiz-adv-x="297" arabic-form="initial" 
d="M83 580h31v169h36v-91q3 3 17.5 12.5t37.5 18.5t50 9q26 0 43 -19.5t17 -49.5q0 -32 -14 -59t-45 -27h-173v37zM269 650.5q-8 8.5 -28 8.5q-22 0 -42.5 -11t-33 -22.5t-15.5 -15.5v-30h91q16 0 26 13t10 30q0 19 -8 27.5zM235 455v-285q0 -170 -203 -170h-41v66h37
q73 0 102 30t29 90v269h76z" />
    <glyph glyph-name="uniFBA3" unicode="&#x6bb;" horiz-adv-x="403" arabic-form="medial" 
d="M117 580h31v169h36v-91q3 3 17.5 12.5t37.5 18.5t50 9q26 0 43 -19.5t17 -49.5q0 -32 -14 -59t-45 -27h-173v37zM303 650.5q-8 8.5 -28 8.5q-22 0 -42.5 -11t-33 -22.5t-15.5 -15.5v-30h91q16 0 26 13t10 30q0 19 -8 27.5zM299 10q-36 10 -65 31q-24 -24 -67 -32.5
t-108 -8.5h-68v66h75q51 0 76 7.5t34.5 26t9.5 57.5v298h76v-361q15 -14 43.5 -21t58.5 -7h48v-66h-48q-29 0 -65 10z" />
    <glyph glyph-name="uniFBA4" unicode="&#x6c0;" horiz-adv-x="518" arabic-form="isolated" 
d="M161 544v45h45q-9 9 -14 26t-5 29q0 43 27 64.5t68 21.5q34 0 64 -14l-14 -38q-24 11 -50 11q-20 0 -33 -10.5t-13 -33.5q0 -16 6.5 -32t18.5 -24h80v-45h-180zM97 55.5q-59 62.5 -59 169.5q0 109 58 172t160 63t160 -63t58 -172q0 -107 -59 -169.5t-159 -62.5t-159 62.5
zM362 102.5q39 46.5 39 124.5q0 83 -37.5 127t-107.5 44t-107.5 -44t-37.5 -127q0 -78 39 -124.5t106 -46.5t106 46.5z" />
    <glyph glyph-name="uniFBA5" unicode="&#x6c0;" horiz-adv-x="560" arabic-form="final" 
d="M144 544v45h45q-9 9 -14 26t-5 29q0 43 27 64.5t68 21.5q34 0 64 -14l-14 -38q-24 11 -50 11q-20 0 -33 -10.5t-13 -33.5q0 -16 6.5 -32t18.5 -24h80v-45h-180zM438.5 92q28.5 -26 102.5 -26h28v-66h-32q-88 0 -136.5 25.5t-61.5 84.5q-24 -33 -67 -49t-93 -16
q-51 0 -88 22.5t-56 58.5t-19 75q0 74 53 132.5t128.5 91.5t136.5 35v28h76v-312q0 -58 28.5 -84zM121.5 132q31.5 -29 75.5 -29q30 0 61.5 13.5t53 38.5t22.5 56v194q-49 -3 -106.5 -31t-97.5 -73t-40 -96q0 -44 31.5 -73z" />
    <glyph glyph-name="uniFBA6" unicode="&#x6c1;" horiz-adv-x="518" arabic-form="isolated" 
d="M97 55.5q-59 62.5 -59 169.5q0 109 58 172t160 63t160 -63t58 -172q0 -107 -59 -169.5t-159 -62.5t-159 62.5zM362 102.5q39 46.5 39 124.5q0 83 -37.5 127t-107.5 44t-107.5 -44t-37.5 -127q0 -78 39 -124.5t106 -46.5t106 46.5z" />
    <glyph glyph-name="uniFBA7" unicode="&#x6c1;" horiz-adv-x="602" arabic-form="final" 
d="M46.5 137q46.5 63 114 99.5t125.5 36.5q54 0 85 -14.5t45 -35.5t28 -57q13 -33 26 -53t40 -33.5t73 -13.5h28v-66h-32q-65 0 -103.5 17.5t-56.5 42t-34 63.5q-12 27 -21.5 42.5t-26.5 25.5t-44 10q-48 0 -98.5 -27.5t-83.5 -74t-33 -99.5h-78q0 74 46.5 137z" />
    <glyph glyph-name="uniFBA8" unicode="&#x6c1;" horiz-adv-x="303" arabic-form="initial" 
d="M89 -109q14 -15 14 -37q0 -23 -14.5 -37.5t-37.5 -14.5q-21 0 -35.5 14.5t-14.5 37.5q0 33 15 74.5t30 71.5h-55v66h37q73 0 102 30t29 90v269h76v-285q0 -143 -145 -166q-11 -17 -21.5 -45.5t-16.5 -52.5q23 0 37 -15z" />
    <glyph glyph-name="uniFBA9" unicode="&#x6c1;" horiz-adv-x="488" arabic-form="medial" 
d="M143 -240.5q-38 74.5 -38 193.5q0 15 2 47h-116v66h186v-138q0 -59 16.5 -118t53.5 -59l12 68q16 75 36 126t60.5 86t108.5 35h33v-66h-40q-40 0 -65 -24.5t-38 -61.5t-24 -92l-28 -137h-51q-70 0 -108 74.5z" />
    <glyph glyph-name="uniFBAA" unicode="&#x6be;" horiz-adv-x="660" arabic-form="isolated" 
d="M50 72.5q26 -6.5 55 -6.5h87q-18 33 -18 84q0 42 17.5 80t51.5 62t82 24q63 0 97 -45.5t34 -116.5v-88h84v137q0 43 -18.5 87.5t-61 75.5t-110.5 31q-89 0 -164 -43l-27 54q94 52 191 52q96 0 155.5 -39.5t85 -101t25.5 -133.5v-186h-511q-30 0 -67.5 11t-66.5 34l38 46
q15 -12 41 -18.5zM257 92q16 -25 51 -26h78v99q0 87 -67 87q-35 0 -56.5 -29.5t-21.5 -69.5q0 -36 16 -61z" />
    <glyph glyph-name="uniFBAB" unicode="&#x6be;" horiz-adv-x="662" arabic-form="final" 
d="M105 0q-30 0 -67.5 11t-66.5 34l38 46q15 -12 41 -18.5t55 -6.5h87q-18 33 -18 84q0 42 17.5 80t51.5 62t82 24q63 0 97 -45.5t34 -116.5v-88h84v137q0 43 -18.5 87.5t-61 75.5t-110.5 31q-89 0 -164 -43l-27 54q94 52 191 52q96 0 155.5 -39.5t85 -101t25.5 -133.5v-120
h55v-66h-566zM257 92q16 -25 51 -26h78v99q0 87 -67 87q-35 0 -56.5 -29.5t-21.5 -69.5q0 -36 16 -61z" />
    <glyph glyph-name="uniFBAC" unicode="&#x6be;" horiz-adv-x="558" arabic-form="initial" 
d="M90 66q-18 33 -18 84q0 42 17.5 80t51.5 62t82 24q63 0 97 -45.5t34 -116.5v-88h84v137q0 43 -18.5 87.5t-61 75.5t-110.5 31q-89 0 -164 -43l-27 54q94 52 191 52q96 0 155.5 -39.5t85 -101t25.5 -133.5v-186h-523v66h99zM155 92q16 -25 51 -26h78v99q0 87 -67 87
q-35 0 -56.5 -29.5t-21.5 -69.5q0 -36 16 -61z" />
    <glyph glyph-name="uniFBAD" unicode="&#x6be;" horiz-adv-x="560" arabic-form="medial" 
d="M90 66q-18 33 -18 84q0 42 17.5 80t51.5 62t82 24q63 0 97 -45.5t34 -116.5v-88h84v137q0 43 -18.5 87.5t-61 75.5t-110.5 31q-89 0 -164 -43l-27 54q94 52 191 52q96 0 155.5 -39.5t85 -101t25.5 -133.5v-120h55v-66h-578v66h99zM155 92q16 -25 51 -26h78v99
q0 87 -67 87q-35 0 -56.5 -29.5t-21.5 -69.5q0 -36 16 -61z" />
    <glyph glyph-name="uniFBAE" unicode="&#x6d2;" horiz-adv-x="509" arabic-form="isolated" 
d="M255 0q-64 0 -98.5 -22.5t-34.5 -85.5q0 -70 48.5 -103t127.5 -33h322v-66h-301q-122 0 -195.5 48t-73.5 156q0 172 192 172h276v-66h-263z" />
    <glyph glyph-name="uniFBAF" unicode="&#x6d2;" horiz-adv-x="509" arabic-form="final" 
d="M255 0q-64 0 -98.5 -22.5t-34.5 -85.5q0 -70 48.5 -103t127.5 -33h322v-66h-301q-122 0 -195.5 48t-73.5 156q0 172 192 172h276v-66h-263z" />
    <glyph glyph-name="uniFBB0" unicode="&#x6d3;" horiz-adv-x="507" arabic-form="isolated" 
d="M110 175v45h45q-9 9 -14 26t-5 29q0 43 27 64.5t68 21.5q34 0 64 -14l-14 -38q-24 11 -50 11q-20 0 -33 -10.5t-13 -33.5q0 -16 6.5 -32t18.5 -24h80v-45h-180zM255 0q-64 0 -98.5 -22.5t-34.5 -85.5q0 -70 48.5 -103t127.5 -33h322v-66h-301q-122 0 -195.5 48t-73.5 156
q0 172 192 172h276v-66h-263z" />
    <glyph glyph-name="uniFBB1" unicode="&#x6d3;" horiz-adv-x="507" arabic-form="final" 
d="M110 175v45h45q-9 9 -14 26t-5 29q0 43 27 64.5t68 21.5q34 0 64 -14l-14 -38q-24 11 -50 11q-20 0 -33 -10.5t-13 -33.5q0 -16 6.5 -32t18.5 -24h80v-45h-180zM255 0q-64 0 -98.5 -22.5t-34.5 -85.5q0 -70 48.5 -103t127.5 -33h322v-66h-301q-122 0 -195.5 48t-73.5 156
q0 172 192 172h276v-66h-263z" />
    <glyph glyph-name="uniFBD3" unicode="&#x6ad;" horiz-adv-x="753" arabic-form="isolated" 
d="M432.5 759.5q-14.5 -14.5 -37.5 -14.5q-21 0 -35.5 14.5t-14.5 37.5q0 22 14.5 37t36.5 15q23 0 37 -15t14 -37q0 -23 -14.5 -37.5zM362.5 627.5q-14.5 -14.5 -37.5 -14.5q-21 0 -35.5 14.5t-14.5 37.5q0 22 14.5 37t36.5 15q23 0 37 -15t14 -37q0 -23 -14.5 -37.5z
M499.5 627.5q-14.5 -14.5 -37.5 -14.5q-21 0 -35.5 14.5t-14.5 37.5q0 22 14.5 37t36.5 15q23 0 37 -15t14 -37q0 -23 -14.5 -37.5zM136.5 47q-81.5 47 -81.5 181q0 44 25 142l69 -17q-21 -82 -21 -125q0 -74 38.5 -109.5t88.5 -43.5t124 -9h220v608h76v-674h-324
q-133 0 -214.5 47zM330 419q-8 17 -8 39q0 44 30 72t85 28q28 0 54 -14l-15 -46q-16 12 -45 12q-26 0 -37.5 -13.5t-11.5 -35.5q0 -21 8 -42h99v-48h-206v48h47z" />
    <glyph glyph-name="uniFBD4" unicode="&#x6ad;" horiz-adv-x="731" arabic-form="final" 
d="M432.5 759.5q-14.5 -14.5 -37.5 -14.5q-21 0 -35.5 14.5t-14.5 37.5q0 22 14.5 37t36.5 15q23 0 37 -15t14 -37q0 -23 -14.5 -37.5zM362.5 627.5q-14.5 -14.5 -37.5 -14.5q-21 0 -35.5 14.5t-14.5 37.5q0 22 14.5 37t36.5 15q23 0 37 -15t14 -37q0 -23 -14.5 -37.5z
M499.5 627.5q-14.5 -14.5 -37.5 -14.5q-21 0 -35.5 14.5t-14.5 37.5q0 22 14.5 37t36.5 15q23 0 37 -15t14 -37q0 -23 -14.5 -37.5zM740 66v-66h-389q-133 0 -214.5 47t-81.5 181q0 44 25 142l69 -17q-21 -82 -21 -125q0 -74 38.5 -109.5t88.5 -43.5t124 -9h220v608h76v-608
h65zM330 419q-8 17 -8 39q0 44 30 72t85 28q28 0 54 -14l-15 -46q-16 12 -45 12q-26 0 -37.5 -13.5t-11.5 -35.5q0 -21 8 -42h99v-48h-206v48h47z" />
    <glyph glyph-name="uniFBD5" unicode="&#x6ad;" horiz-adv-x="512" arabic-form="initial" 
d="M167.5 790.5q-14.5 -14.5 -37.5 -14.5q-21 0 -35.5 14.5t-14.5 37.5q0 22 14.5 37t36.5 15q23 0 37 -15t14 -37q0 -23 -14.5 -37.5zM97.5 658.5q-14.5 -14.5 -37.5 -14.5q-21 0 -35.5 14.5t-14.5 37.5q0 22 14.5 37t36.5 15q23 0 37 -15t14 -37q0 -23 -14.5 -37.5z
M234.5 658.5q-14.5 -14.5 -37.5 -14.5q-21 0 -35.5 14.5t-14.5 37.5q0 22 14.5 37t36.5 15q23 0 37 -15t14 -37q0 -23 -14.5 -37.5zM151 370h64q120 0 179.5 -44.5t59.5 -158.5v-167h-463v66h387v98q0 53 -10.5 82.5t-48 45.5t-114.5 16h-133l-30 51l315 324l50 -48z" />
    <glyph glyph-name="uniFBD6" unicode="&#x6ad;" horiz-adv-x="495" arabic-form="medial" 
d="M167.5 790.5q-14.5 -14.5 -37.5 -14.5q-21 0 -35.5 14.5t-14.5 37.5q0 22 14.5 37t36.5 15q23 0 37 -15t14 -37q0 -23 -14.5 -37.5zM97.5 658.5q-14.5 -14.5 -37.5 -14.5q-21 0 -35.5 14.5t-14.5 37.5q0 22 14.5 37t36.5 15q23 0 37 -15t14 -37q0 -23 -14.5 -37.5z
M234.5 658.5q-14.5 -14.5 -37.5 -14.5q-21 0 -35.5 14.5t-14.5 37.5q0 22 14.5 37t36.5 15q23 0 37 -15t14 -37q0 -23 -14.5 -37.5zM151 370h64q120 0 179.5 -44.5t59.5 -158.5v-101h50v-66h-513v66h387v98q0 53 -10.5 82.5t-48 45.5t-114.5 16h-133l-30 51l315 324l50 -48z
" />
    <glyph glyph-name="uniFBD7" unicode="&#x6c7;" horiz-adv-x="503" arabic-form="isolated" 
d="M357.5 424.5q40.5 -35.5 63 -98.5t22.5 -145v-170q0 -123 -55 -189t-160 -66q-55 0 -114 17l21 64q54 -16 96 -16q65 0 100.5 45t35.5 126v8h-111q-95 0 -144.5 48.5t-49.5 141.5q0 71 27.5 133.5t74.5 99.5t101 37q52 0 92.5 -35.5zM367 66v112q0 98 -29.5 157.5
t-76.5 59.5q-32 0 -61 -28t-46 -75t-17 -100q0 -66 31 -96t99 -30h100zM251 591q-10 6 -16.5 19t-6.5 29q0 32 17.5 51t47.5 19t47 -19t17 -51q0 -48 -42 -63l-125 -45l-13 33zM312.5 617q7.5 8 7.5 22q0 15 -7.5 24t-19.5 9q-13 0 -20 -8.5t-7 -24.5q0 -14 7.5 -22t19.5 -8
t19.5 8z" />
    <glyph glyph-name="uniFBD8" unicode="&#x6c7;" horiz-adv-x="499" arabic-form="final" 
d="M508 0h-65q-2 -118 -57.5 -181t-157.5 -63q-55 0 -114 17l21 64q54 -16 96 -16q65 0 100.5 45t35.5 126v8h-111q-95 0 -144.5 48.5t-49.5 141.5q0 71 27.5 133.5t74.5 99.5t101 37q52 0 92.5 -35.5t63 -98.5t22.5 -145v-115h65v-66zM367 66v112q0 98 -29.5 157.5
t-76.5 59.5q-32 0 -61 -28t-46 -75t-17 -100q0 -66 31 -96t99 -30h100zM251 591q-10 6 -16.5 19t-6.5 29q0 32 17.5 51t47.5 19t47 -19t17 -51q0 -48 -42 -63l-125 -45l-13 33zM312.5 617q7.5 8 7.5 22q0 15 -7.5 24t-19.5 9q-13 0 -20 -8.5t-7 -24.5q0 -14 7.5 -22t19.5 -8
t19.5 8z" />
    <glyph glyph-name="uniFBD9" unicode="&#x6c6;" horiz-adv-x="503" arabic-form="isolated" 
d="M245 531l-94 142h59l61 -97h2l60 97h58l-93 -142h-53zM357.5 424.5q40.5 -35.5 63 -98.5t22.5 -145v-170q0 -123 -55 -189t-160 -66q-55 0 -114 17l21 64q54 -16 96 -16q65 0 100.5 45t35.5 126v8h-111q-95 0 -144.5 48.5t-49.5 141.5q0 71 27.5 133.5t74.5 99.5t101 37
q52 0 92.5 -35.5zM367 66v112q0 98 -29.5 157.5t-76.5 59.5q-32 0 -61 -28t-46 -75t-17 -100q0 -66 31 -96t99 -30h100z" />
    <glyph glyph-name="uniFBDA" unicode="&#x6c6;" horiz-adv-x="499" arabic-form="final" 
d="M246 531l-94 142h59l61 -97h2l60 97h58l-93 -142h-53zM508 0h-65q-2 -118 -57.5 -181t-157.5 -63q-55 0 -114 17l21 64q54 -16 96 -16q65 0 100.5 45t35.5 126v8h-111q-95 0 -144.5 48.5t-49.5 141.5q0 71 27.5 133.5t74.5 99.5t101 37q52 0 92.5 -35.5t63 -98.5
t22.5 -145v-115h65v-66zM367 66v112q0 98 -29.5 157.5t-76.5 59.5q-32 0 -61 -28t-46 -75t-17 -100q0 -66 31 -96t99 -30h100z" />
    <glyph glyph-name="uniFBDB" unicode="&#x6c8;" horiz-adv-x="503" arabic-form="isolated" 
d="M357.5 424.5q40.5 -35.5 63 -98.5t22.5 -145v-170q0 -123 -55 -189t-160 -66q-55 0 -114 17l21 64q54 -16 96 -16q65 0 100.5 45t35.5 126v8h-111q-95 0 -144.5 48.5t-49.5 141.5q0 71 27.5 133.5t74.5 99.5t101 37q52 0 92.5 -35.5zM367 66v112q0 98 -29.5 157.5
t-76.5 59.5q-32 0 -61 -28t-46 -75t-17 -100q0 -66 31 -96t99 -30h100zM283 708v-179h-47v179h47z" />
    <glyph glyph-name="uniFBDC" unicode="&#x6c8;" horiz-adv-x="499" arabic-form="final" 
d="M508 0h-65q-2 -118 -57.5 -181t-157.5 -63q-55 0 -114 17l21 64q54 -16 96 -16q65 0 100.5 45t35.5 126v8h-111q-95 0 -144.5 48.5t-49.5 141.5q0 71 27.5 133.5t74.5 99.5t101 37q52 0 92.5 -35.5t63 -98.5t22.5 -145v-115h65v-66zM367 66v112q0 98 -29.5 157.5
t-76.5 59.5q-32 0 -61 -28t-46 -75t-17 -100q0 -66 31 -96t99 -30h100zM283 708v-179h-47v179h47z" />
    <glyph glyph-name="uniFBDD" unicode="&#x677;" horiz-adv-x="488" arabic-form="isolated" 
d="M368.5 613q6.5 -16 18.5 -24h80v-45h-180v45h45q-9 9 -14 26t-5 29q0 43 27 64.5t68 21.5q34 0 64 -14l-14 -38q-24 11 -50 11q-20 0 -33 -10.5t-13 -33.5q0 -16 6.5 -32zM68 569l81 30q-12 7 -18.5 21t-6.5 32q0 35 19 56t52 21t51.5 -21t18.5 -56q0 -52 -46 -69
l-137 -50zM173 678.5q-8 -9.5 -8 -26.5q0 -16 8 -24.5t22 -8.5q13 0 21 9t8 24q0 17 -8 26.5t-21 9.5q-14 0 -22 -9.5zM357.5 424.5q40.5 -35.5 63 -98.5t22.5 -145v-170q0 -123 -55 -189t-160 -66q-55 0 -114 17l21 64q54 -16 96 -16q65 0 100.5 45t35.5 126v8h-111
q-95 0 -144.5 48.5t-49.5 141.5q0 71 27.5 133.5t74.5 99.5t101 37q52 0 92.5 -35.5zM367 178q0 98 -29.5 157.5t-76.5 59.5q-32 0 -61 -28t-46 -75t-17 -100q0 -66 31 -96t99 -30h100v112z" />
    <glyph glyph-name="uniFBDE" unicode="&#x6cb;" horiz-adv-x="503" arabic-form="isolated" 
d="M357.5 424.5q40.5 -35.5 63 -98.5t22.5 -145v-170q0 -123 -55 -189t-160 -66q-55 0 -114 17l21 64q54 -16 96 -16q65 0 100.5 45t35.5 126v8h-111q-95 0 -144.5 48.5t-49.5 141.5q0 71 27.5 133.5t74.5 99.5t101 37q52 0 92.5 -35.5zM367 66v112q0 98 -29.5 157.5
t-76.5 59.5q-32 0 -61 -28t-46 -75t-17 -100q0 -66 31 -96t99 -30h100zM294.5 716.5q-14.5 -14.5 -37.5 -14.5q-21 0 -35.5 14.5t-14.5 37.5q0 22 14.5 37t36.5 15q23 0 37 -15t14 -37q0 -23 -14.5 -37.5zM224.5 584.5q-14.5 -14.5 -37.5 -14.5q-21 0 -35.5 14.5t-14.5 37.5
q0 22 14.5 37t36.5 15q23 0 37 -15t14 -37q0 -23 -14.5 -37.5zM361.5 584.5q-14.5 -14.5 -37.5 -14.5q-21 0 -35.5 14.5t-14.5 37.5q0 22 14.5 37t36.5 15q23 0 37 -15t14 -37q0 -23 -14.5 -37.5z" />
    <glyph glyph-name="uniFBDF" unicode="&#x6cb;" horiz-adv-x="499" arabic-form="final" 
d="M508 0h-65q-2 -118 -57.5 -181t-157.5 -63q-55 0 -114 17l21 64q54 -16 96 -16q65 0 100.5 45t35.5 126v8h-111q-95 0 -144.5 48.5t-49.5 141.5q0 71 27.5 133.5t74.5 99.5t101 37q52 0 92.5 -35.5t63 -98.5t22.5 -145v-115h65v-66zM367 66v112q0 98 -29.5 157.5
t-76.5 59.5q-32 0 -61 -28t-46 -75t-17 -100q0 -66 31 -96t99 -30h100zM294.5 716.5q-14.5 -14.5 -37.5 -14.5q-21 0 -35.5 14.5t-14.5 37.5q0 22 14.5 37t36.5 15q23 0 37 -15t14 -37q0 -23 -14.5 -37.5zM224.5 584.5q-14.5 -14.5 -37.5 -14.5q-21 0 -35.5 14.5t-14.5 37.5
q0 22 14.5 37t36.5 15q23 0 37 -15t14 -37q0 -23 -14.5 -37.5zM361.5 584.5q-14.5 -14.5 -37.5 -14.5q-21 0 -35.5 14.5t-14.5 37.5q0 22 14.5 37t36.5 15q23 0 37 -15t14 -37q0 -23 -14.5 -37.5z" />
    <glyph glyph-name="uniFBE0" unicode="&#x6c5;" horiz-adv-x="503" arabic-form="isolated" 
d="M357.5 424.5q40.5 -35.5 63 -98.5t22.5 -145v-170q0 -123 -55 -189t-160 -66q-55 0 -114 17l21 64q54 -16 96 -16q82 0 116 70h-162v66h180q2 22 2 35v8h-111q-95 0 -144.5 48.5t-49.5 141.5q0 71 27.5 133.5t74.5 99.5t101 37q52 0 92.5 -35.5zM367 66v112
q0 98 -29.5 157.5t-76.5 59.5q-32 0 -61 -28t-46 -75t-17 -100q0 -66 31 -96t99 -30h100z" />
    <glyph glyph-name="uniFBE1" unicode="&#x6c5;" horiz-adv-x="499" arabic-form="final" 
d="M508 0h-65q-2 -118 -57.5 -181t-157.5 -63q-55 0 -114 17l21 64q54 -16 96 -16q82 0 116 70h-162v66h180q2 22 2 35v8h-111q-95 0 -144.5 48.5t-49.5 141.5q0 71 27.5 133.5t74.5 99.5t101 37q52 0 92.5 -35.5t63 -98.5t22.5 -145v-115h65v-66zM367 66v112
q0 98 -29.5 157.5t-76.5 59.5q-32 0 -61 -28t-46 -75t-17 -100q0 -66 31 -96t99 -30h100z" />
    <glyph glyph-name="uniFBE2" unicode="&#x6c9;" horiz-adv-x="503" arabic-form="isolated" 
d="M210 528h-57l92 142h54l94 -142h-59l-61 97h-2zM357.5 424.5q40.5 -35.5 63 -98.5t22.5 -145v-170q0 -123 -55 -189t-160 -66q-55 0 -114 17l21 64q54 -16 96 -16q65 0 100.5 45t35.5 126v8h-111q-95 0 -144.5 48.5t-49.5 141.5q0 71 27.5 133.5t74.5 99.5t101 37
q52 0 92.5 -35.5zM367 66v112q0 98 -29.5 157.5t-76.5 59.5q-32 0 -61 -28t-46 -75t-17 -100q0 -66 31 -96t99 -30h100z" />
    <glyph glyph-name="uniFBE3" unicode="&#x6c9;" horiz-adv-x="499" arabic-form="final" 
d="M210 529h-57l92 142h54l94 -142h-59l-61 97h-2zM508 0h-65q-2 -118 -57.5 -181t-157.5 -63q-55 0 -114 17l21 64q54 -16 96 -16q65 0 100.5 45t35.5 126v8h-111q-95 0 -144.5 48.5t-49.5 141.5q0 71 27.5 133.5t74.5 99.5t101 37q52 0 92.5 -35.5t63 -98.5t22.5 -145
v-115h65v-66zM367 66v112q0 98 -29.5 157.5t-76.5 59.5q-32 0 -61 -28t-46 -75t-17 -100q0 -66 31 -96t99 -30h100z" />
    <glyph glyph-name="uniFBE4" unicode="&#x6d0;" horiz-adv-x="753" arabic-form="isolated" 
d="M139 -78.5q-82 47.5 -82 181.5q0 47 20 125t39 133l68 -18l-10 -33q-44 -148 -44 -207q0 -74 38.5 -109.5t89 -43.5t123.5 -8h112q51 0 90 21.5t39 69.5q0 22 -9 35t-26 21.5t-59 24.5q-90 35 -131.5 74.5t-41.5 99.5q0 52 27 92.5t74.5 63.5t107.5 23q86 0 142 -32
l-23 -62q-49 31 -122 31q-58 0 -94 -29t-36 -77q0 -30 11.5 -48.5t38 -33.5t83.5 -38q66 -26 99 -57.5t33 -77.5q0 -70 -48 -118.5t-171 -49.5h-124q-132 -1 -214 46.5zM434.5 -283.5q-14.5 -14.5 -37.5 -14.5q-21 0 -35.5 14.5t-14.5 37.5q0 22 14.5 37t36.5 15
q23 0 37 -15t14 -37q0 -23 -14.5 -37.5zM432.5 -430.5q-14.5 -14.5 -37.5 -14.5q-21 0 -35.5 14.5t-14.5 37.5q0 22 14.5 37t36.5 15q23 0 37 -15t14 -37q0 -23 -14.5 -37.5z" />
    <glyph glyph-name="uniFBE5" unicode="&#x6d0;" horiz-adv-x="765" arabic-form="final" 
d="M561.5 -143q39.5 23 39.5 71q0 46 -42.5 79.5t-114.5 60.5l24 69q71 -35 128.5 -53t122.5 -18h55v-66h-119q20 -31 20 -83q0 -31 -19 -65t-67.5 -59.5t-132.5 -25.5h-103q-133 0 -214.5 47t-81.5 181q0 47 20 125t39 133l68 -18l-10 -33q-44 -148 -44 -207
q0 -74 38.5 -109.5t89 -43.5t123.5 -8h91q50 0 89.5 23zM402.5 -403.5q-14.5 -14.5 -37.5 -14.5q-21 0 -35.5 14.5t-14.5 37.5q0 22 14.5 37t36.5 15q23 0 37 -15t14 -37q0 -23 -14.5 -37.5zM400.5 -550.5q-14.5 -14.5 -37.5 -14.5q-21 0 -35.5 14.5t-14.5 37.5
q0 22 14.5 37t36.5 15q23 0 37 -15t14 -37q0 -23 -14.5 -37.5z" />
    <glyph glyph-name="uniFBE6" unicode="&#x6d0;" horiz-adv-x="303" arabic-form="initial" 
d="M226 455v-285q0 -170 -203 -170h-32v66h28q73 0 102 30t29 90v269h76zM136.5 -163.5q-14.5 -14.5 -37.5 -14.5q-21 0 -35.5 14.5t-14.5 37.5q0 22 14.5 37t36.5 15q23 0 37 -15t14 -37q0 -23 -14.5 -37.5zM134.5 -310.5q-14.5 -14.5 -37.5 -14.5q-21 0 -35.5 14.5
t-14.5 37.5q0 22 14.5 37t36.5 15q23 0 37 -15t14 -37q0 -23 -14.5 -37.5z" />
    <glyph glyph-name="uniFBE7" unicode="&#x6d0;" horiz-adv-x="403" arabic-form="medial" 
d="M299 10q-36 10 -65 31q-24 -24 -67 -32.5t-108 -8.5h-68v66h75q51 0 76 7.5t34.5 26t9.5 57.5v298h76v-361q15 -14 43.5 -21t58.5 -7h48v-66h-48q-29 0 -65 10zM253.5 -163.5q-14.5 -14.5 -37.5 -14.5q-21 0 -35.5 14.5t-14.5 37.5q0 22 14.5 37t36.5 15q23 0 37 -15
t14 -37q0 -23 -14.5 -37.5zM251.5 -310.5q-14.5 -14.5 -37.5 -14.5q-21 0 -35.5 14.5t-14.5 37.5q0 22 14.5 37t36.5 15q23 0 37 -15t14 -37q0 -23 -14.5 -37.5z" />
    <glyph glyph-name="uniFBE8" unicode="&#x649;" horiz-adv-x="303" arabic-form="initial" 
d="M235 455v-285q0 -170 -203 -170h-41v66h37q73 0 102 30t29 90v269h76z" />
    <glyph glyph-name="uniFBE9" unicode="&#x649;" horiz-adv-x="403" arabic-form="medial" 
d="M299 10q-36 10 -65 31q-24 -24 -67 -32.5t-108 -8.5h-68v66h75q51 0 76 7.5t34.5 26t9.5 57.5v298h76v-361q15 -14 43.5 -21t58.5 -7h48v-66h-48q-29 0 -65 10z" />
    <glyph glyph-name="uniFBEA" unicode="&#xfbea;" horiz-adv-x="589" arabic-form="isolated" 
d="M468.5 613q6.5 -16 18.5 -24h80v-45h-180v45h45q-9 9 -14 26t-5 29q0 43 27 64.5t68 21.5q34 0 64 -14l-14 -38q-24 11 -50 11q-20 0 -33 -10.5t-13 -33.5q0 -16 6.5 -32zM445 455h76v-285q0 -170 -203 -170h-47q-203 0 -203 170v504h76v-488q0 -60 29 -90t102 -30h39
q73 0 102 30t29 90v269z" />
    <glyph glyph-name="uniFBEB" unicode="&#xfbeb;" horiz-adv-x="689" arabic-form="final" 
d="M586 544h-180v45h45q-9 9 -14 26t-5 29q0 43 27 64.5t68 21.5q34 0 64 -14l-14 -38q-24 11 -50 11q-20 0 -33 -10.5t-13 -33.5q0 -16 6.5 -32t18.5 -24h80v-45zM698 66v-66h-48q-29 0 -65 10t-65 31q-24 -24 -67 -32.5t-108 -8.5h-74q-203 0 -203 170v504h76v-488
q0 -60 29 -90t102 -30h77q51 0 76 7.5t34.5 26t9.5 57.5v298h76v-361q15 -14 43.5 -21t58.5 -7h48z" />
    <glyph glyph-name="uniFBEC" unicode="&#xfbec;" horiz-adv-x="863" arabic-form="isolated" 
d="M742.5 613q6.5 -16 18.5 -24h80v-45h-180v45h45q-9 9 -14 26t-5 29q0 43 27 64.5t68 21.5q34 0 64 -14l-14 -38q-24 11 -50 11q-20 0 -33 -10.5t-13 -33.5q0 -16 6.5 -32zM719 455h76v-285q0 -170 -203 -170h-55q-88 0 -136.5 25.5t-61.5 84.5q-24 -33 -67 -49t-93 -16
q-51 0 -88 22.5t-56 58.5t-19 75q0 74 53 132.5t128.5 91.5t136.5 35v28h76v-312q0 -58 28.5 -84t102.5 -26h47q73 0 102 30t29 90v269zM334 405q-49 -3 -106.5 -31t-97.5 -73t-40 -96q0 -44 31.5 -73t75.5 -29q30 0 61.5 13.5t53 38.5t22.5 56v194z" />
    <glyph glyph-name="uniFBED" unicode="&#xfbed;" horiz-adv-x="965" arabic-form="final" 
d="M862 544h-180v45h45q-9 9 -14 26t-5 29q0 43 27 64.5t68 21.5q34 0 64 -14l-14 -38q-24 11 -50 11q-20 0 -33 -10.5t-13 -33.5q0 -16 6.5 -32t18.5 -24h80v-45zM974 66v-66h-48q-29 0 -65 10t-65 31q-24 -24 -67 -32.5t-108 -8.5h-84q-88 0 -136.5 25.5t-61.5 84.5
q-24 -33 -67 -49t-93 -16q-51 0 -88 22.5t-56 58.5t-19 75q0 74 53 132.5t128.5 91.5t136.5 35v28h76v-312q0 -58 28.5 -84t102.5 -26h87q51 0 76 7.5t34.5 26t9.5 57.5v298h76v-361q15 -14 43.5 -21t58.5 -7h48zM334 405q-49 -3 -106.5 -31t-97.5 -73t-40 -96
q0 -44 31.5 -73t75.5 -29q30 0 61.5 13.5t53 38.5t22.5 56v194z" />
    <glyph glyph-name="uniFBEE" unicode="&#xfbee;" horiz-adv-x="801" arabic-form="isolated" 
d="M680.5 613q6.5 -16 18.5 -24h80v-45h-180v45h45q-9 9 -14 26t-5 29q0 43 27 64.5t68 21.5q34 0 64 -14l-14 -38q-24 11 -50 11q-20 0 -33 -10.5t-13 -33.5q0 -16 6.5 -32zM657 455h76v-285q0 -170 -203 -170h-87q-2 -118 -57.5 -181t-157.5 -63q-55 0 -114 17l21 64
q54 -16 96 -16q65 0 100.5 45t35.5 126v8h-111q-95 0 -144.5 48.5t-49.5 141.5q0 71 27.5 133.5t74.5 99.5t101 37q52 0 92.5 -35.5t63 -98.5t22.5 -145v-115h83q73 0 102 30t29 90v269zM367 66v112q0 98 -29.5 157.5t-76.5 59.5q-32 0 -61 -28t-46 -75t-17 -100
q0 -66 31 -96t99 -30h100z" />
    <glyph glyph-name="uniFBEF" unicode="&#xfbef;" horiz-adv-x="901" arabic-form="final" 
d="M798 544h-180v45h45q-9 9 -14 26t-5 29q0 43 27 64.5t68 21.5q34 0 64 -14l-14 -38q-24 11 -50 11q-20 0 -33 -10.5t-13 -33.5q0 -16 6.5 -32t18.5 -24h80v-45zM910 66v-66h-48q-29 0 -65 10t-65 31q-24 -24 -67 -32.5t-108 -8.5h-114q-2 -118 -57.5 -181t-157.5 -63
q-55 0 -114 17l21 64q54 -16 96 -16q65 0 100.5 45t35.5 126v8h-111q-95 0 -144.5 48.5t-49.5 141.5q0 71 27.5 133.5t74.5 99.5t101 37q52 0 92.5 -35.5t63 -98.5t22.5 -145v-115h121q51 0 76 7.5t34.5 26t9.5 57.5v298h76v-361q15 -14 43.5 -21t58.5 -7h48zM367 66v112
q0 98 -29.5 157.5t-76.5 59.5q-32 0 -61 -28t-46 -75t-17 -100q0 -66 31 -96t99 -30h100z" />
    <glyph glyph-name="uniFBF0" unicode="&#xfbf0;" horiz-adv-x="801" arabic-form="isolated" 
d="M680.5 613q6.5 -16 18.5 -24h80v-45h-180v45h45q-9 9 -14 26t-5 29q0 43 27 64.5t68 21.5q34 0 64 -14l-14 -38q-24 11 -50 11q-20 0 -33 -10.5t-13 -33.5q0 -16 6.5 -32zM177 564l74 27q-10 6 -16.5 19t-6.5 29q0 32 17.5 51t47.5 19t47 -19t17 -51q0 -48 -42 -63
l-125 -45zM273 663.5q-7 -8.5 -7 -24.5q0 -14 7.5 -22t19.5 -8t19.5 8t7.5 22q0 15 -7.5 24t-19.5 9q-13 0 -20 -8.5zM657 455h76v-285q0 -170 -203 -170h-87q-2 -118 -57.5 -181t-157.5 -63q-55 0 -114 17l21 64q54 -16 96 -16q65 0 100.5 45t35.5 126v8h-111
q-95 0 -144.5 48.5t-49.5 141.5q0 71 27.5 133.5t74.5 99.5t101 37q52 0 92.5 -35.5t63 -98.5t22.5 -145v-115h83q73 0 102 30t29 90v269zM367 66v112q0 98 -29.5 157.5t-76.5 59.5q-32 0 -61 -28t-46 -75t-17 -100q0 -66 31 -96t99 -30h100z" />
    <glyph glyph-name="uniFBF1" unicode="&#xfbf1;" horiz-adv-x="901" arabic-form="final" 
d="M798 544h-180v45h45q-9 9 -14 26t-5 29q0 43 27 64.5t68 21.5q34 0 64 -14l-14 -38q-24 11 -50 11q-20 0 -33 -10.5t-13 -33.5q0 -16 6.5 -32t18.5 -24h80v-45zM177 564l74 27q-10 6 -16.5 19t-6.5 29q0 32 17.5 51t47.5 19t47 -19t17 -51q0 -48 -42 -63l-125 -45z
M273 663.5q-7 -8.5 -7 -24.5q0 -14 7.5 -22t19.5 -8t19.5 8t7.5 22q0 15 -7.5 24t-19.5 9q-13 0 -20 -8.5zM910 66v-66h-48q-29 0 -65 10t-65 31q-24 -24 -67 -32.5t-108 -8.5h-114q-2 -118 -57.5 -181t-157.5 -63q-55 0 -114 17l21 64q54 -16 96 -16q65 0 100.5 45
t35.5 126v8h-111q-95 0 -144.5 48.5t-49.5 141.5q0 71 27.5 133.5t74.5 99.5t101 37q52 0 92.5 -35.5t63 -98.5t22.5 -145v-115h121q51 0 76 7.5t34.5 26t9.5 57.5v298h76v-361q15 -14 43.5 -21t58.5 -7h48zM367 66v112q0 98 -29.5 157.5t-76.5 59.5q-32 0 -61 -28t-46 -75
t-17 -100q0 -66 31 -96t99 -30h100z" />
    <glyph glyph-name="uniFBF2" unicode="&#xfbf2;" horiz-adv-x="801" arabic-form="isolated" 
d="M680.5 613q6.5 -16 18.5 -24h80v-45h-180v45h45q-9 9 -14 26t-5 29q0 43 27 64.5t68 21.5q34 0 64 -14l-14 -38q-24 11 -50 11q-20 0 -33 -10.5t-13 -33.5q0 -16 6.5 -32zM246 531l-94 142h59l61 -97h2l60 97h58l-93 -142h-53zM657 455h76v-285q0 -170 -203 -170h-87
q-2 -118 -57.5 -181t-157.5 -63q-55 0 -114 17l21 64q54 -16 96 -16q65 0 100.5 45t35.5 126v8h-111q-95 0 -144.5 48.5t-49.5 141.5q0 71 27.5 133.5t74.5 99.5t101 37q52 0 92.5 -35.5t63 -98.5t22.5 -145v-115h83q73 0 102 30t29 90v269zM367 66v112q0 98 -29.5 157.5
t-76.5 59.5q-32 0 -61 -28t-46 -75t-17 -100q0 -66 31 -96t99 -30h100z" />
    <glyph glyph-name="uniFBF3" unicode="&#xfbf3;" horiz-adv-x="901" arabic-form="final" 
d="M798 544h-180v45h45q-9 9 -14 26t-5 29q0 43 27 64.5t68 21.5q34 0 64 -14l-14 -38q-24 11 -50 11q-20 0 -33 -10.5t-13 -33.5q0 -16 6.5 -32t18.5 -24h80v-45zM246 531l-94 142h59l61 -97h2l60 97h58l-93 -142h-53zM910 66v-66h-48q-29 0 -65 10t-65 31
q-24 -24 -67 -32.5t-108 -8.5h-114q-2 -118 -57.5 -181t-157.5 -63q-55 0 -114 17l21 64q54 -16 96 -16q65 0 100.5 45t35.5 126v8h-111q-95 0 -144.5 48.5t-49.5 141.5q0 71 27.5 133.5t74.5 99.5t101 37q52 0 92.5 -35.5t63 -98.5t22.5 -145v-115h121q51 0 76 7.5t34.5 26
t9.5 57.5v298h76v-361q15 -14 43.5 -21t58.5 -7h48zM367 66v112q0 98 -29.5 157.5t-76.5 59.5q-32 0 -61 -28t-46 -75t-17 -100q0 -66 31 -96t99 -30h100z" />
    <glyph glyph-name="uniFBF4" unicode="&#xfbf4;" horiz-adv-x="801" arabic-form="isolated" 
d="M680.5 613q6.5 -16 18.5 -24h80v-45h-180v45h45q-9 9 -14 26t-5 29q0 43 27 64.5t68 21.5q34 0 64 -14l-14 -38q-24 11 -50 11q-20 0 -33 -10.5t-13 -33.5q0 -16 6.5 -32zM283 529h-47v179h47v-179zM657 455h76v-285q0 -170 -203 -170h-87q-2 -118 -57.5 -181t-157.5 -63
q-55 0 -114 17l21 64q54 -16 96 -16q65 0 100.5 45t35.5 126v8h-111q-95 0 -144.5 48.5t-49.5 141.5q0 71 27.5 133.5t74.5 99.5t101 37q52 0 92.5 -35.5t63 -98.5t22.5 -145v-115h83q73 0 102 30t29 90v269zM367 66v112q0 98 -29.5 157.5t-76.5 59.5q-32 0 -61 -28t-46 -75
t-17 -100q0 -66 31 -96t99 -30h100z" />
    <glyph glyph-name="uniFBF5" unicode="&#xfbf5;" horiz-adv-x="901" arabic-form="final" 
d="M798 544h-180v45h45q-9 9 -14 26t-5 29q0 43 27 64.5t68 21.5q34 0 64 -14l-14 -38q-24 11 -50 11q-20 0 -33 -10.5t-13 -33.5q0 -16 6.5 -32t18.5 -24h80v-45zM283 529h-47v179h47v-179zM910 66v-66h-48q-29 0 -65 10t-65 31q-24 -24 -67 -32.5t-108 -8.5h-114
q-2 -118 -57.5 -181t-157.5 -63q-55 0 -114 17l21 64q54 -16 96 -16q65 0 100.5 45t35.5 126v8h-111q-95 0 -144.5 48.5t-49.5 141.5q0 71 27.5 133.5t74.5 99.5t101 37q52 0 92.5 -35.5t63 -98.5t22.5 -145v-115h121q51 0 76 7.5t34.5 26t9.5 57.5v298h76v-361
q15 -14 43.5 -21t58.5 -7h48zM367 66v112q0 98 -29.5 157.5t-76.5 59.5q-32 0 -61 -28t-46 -75t-17 -100q0 -66 31 -96t99 -30h100z" />
    <glyph glyph-name="uniFBF6" unicode="&#xfbf6;" horiz-adv-x="1065" arabic-form="isolated" 
d="M944.5 613q6.5 -16 18.5 -24h80v-45h-180v45h45q-9 9 -14 26t-5 29q0 43 27 64.5t68 21.5q34 0 64 -14l-14 -38q-24 11 -50 11q-20 0 -33 -10.5t-13 -33.5q0 -16 6.5 -32zM921 455h76v-285q0 -170 -203 -170h-139q20 -31 20 -83q0 -31 -19 -65t-67.5 -59.5t-132.5 -25.5
h-103q-133 0 -214.5 47t-81.5 181q0 47 20 125t39 133l68 -18l-10 -33q-44 -148 -44 -207q0 -74 38.5 -109.5t89 -43.5t123.5 -8h91q50 0 89.5 23t39.5 71q0 46 -42.5 79.5t-114.5 60.5l24 69q71 -35 128.5 -53t122.5 -18h71q73 0 102 30t29 90v269zM403 -329q14 -15 14 -37
q0 -23 -14.5 -37.5t-37.5 -14.5q-21 0 -35.5 14.5t-14.5 37.5q0 22 14.5 37t36.5 15q23 0 37 -15zM401 -476q14 -15 14 -37q0 -23 -14.5 -37.5t-37.5 -14.5q-21 0 -35.5 14.5t-14.5 37.5q0 22 14.5 37t36.5 15q23 0 37 -15z" />
    <glyph glyph-name="uniFBF7" unicode="&#xfbf7;" horiz-adv-x="1167" arabic-form="final" 
d="M1064 544h-180v45h45q-9 9 -14 26t-5 29q0 43 27 64.5t68 21.5q34 0 64 -14l-14 -38q-24 11 -50 11q-20 0 -33 -10.5t-13 -33.5q0 -16 6.5 -32t18.5 -24h80v-45zM1176 66v-66h-48q-29 0 -65 10t-65 31q-24 -24 -67 -32.5t-108 -8.5h-168q20 -31 20 -83q0 -31 -19 -65
t-67.5 -59.5t-132.5 -25.5h-103q-133 0 -214.5 47t-81.5 181q0 47 20 125t39 133l68 -18l-10 -33q-44 -148 -44 -207q0 -74 38.5 -109.5t89 -43.5t123.5 -8h91q50 0 89.5 23t39.5 71q0 46 -42.5 79.5t-114.5 60.5l24 69q71 -35 128.5 -53t122.5 -18h111q51 0 76 7.5t34.5 26
t9.5 57.5v298h76v-361q15 -14 43.5 -21t58.5 -7h48zM403 -329q14 -15 14 -37q0 -23 -14.5 -37.5t-37.5 -14.5q-21 0 -35.5 14.5t-14.5 37.5q0 22 14.5 37t36.5 15q23 0 37 -15zM401 -476q14 -15 14 -37q0 -23 -14.5 -37.5t-37.5 -14.5q-21 0 -35.5 14.5t-14.5 37.5
q0 22 14.5 37t36.5 15q23 0 37 -15z" />
    <glyph glyph-name="uniFBF8" unicode="&#xfbf8;" horiz-adv-x="707" arabic-form="initial" 
d="M586.5 613q6.5 -16 18.5 -24h80v-45h-180v45h45q-9 9 -14 26t-5 29q0 43 27 64.5t68 21.5q34 0 64 -14l-14 -38q-24 11 -50 11q-20 0 -33 -10.5t-13 -33.5q0 -16 6.5 -32zM563 455h76v-285q0 -170 -203 -170h-72q-29 0 -65 10t-65 31q-24 -24 -67 -32.5t-108 -8.5h-68v66
h75q51 0 76 7.5t34.5 26t9.5 57.5v298h76v-361q15 -14 43.5 -21t58.5 -7h68q73 0 102 30t29 90v269zM254 -89q14 -15 14 -37q0 -23 -14.5 -37.5t-37.5 -14.5q-21 0 -35.5 14.5t-14.5 37.5q0 22 14.5 37t36.5 15q23 0 37 -15zM252 -236q14 -15 14 -37q0 -23 -14.5 -37.5
t-37.5 -14.5q-21 0 -35.5 14.5t-14.5 37.5q0 22 14.5 37t36.5 15q23 0 37 -15z" />
    <glyph glyph-name="uniFBF9" unicode="&#xfbf9;" horiz-adv-x="1068" arabic-form="isolated" 
d="M947.5 613q6.5 -16 18.5 -24h80v-45h-180v45h45q-9 9 -14 26t-5 29q0 43 27 64.5t68 21.5q34 0 64 -14l-14 -38q-24 11 -50 11q-20 0 -33 -10.5t-13 -33.5q0 -16 6.5 -32zM924 455h76v-285q0 -170 -203 -170h-142q20 -31 20 -83q0 -31 -19 -65t-67.5 -59.5t-132.5 -25.5
h-103q-133 0 -214.5 47t-81.5 181q0 47 20 125t39 133l68 -18l-10 -33q-44 -148 -44 -207q0 -74 38.5 -109.5t89 -43.5t123.5 -8h91q50 0 89.5 23t39.5 71q0 46 -42.5 79.5t-114.5 60.5l24 69q71 -35 128.5 -53t122.5 -18h74q73 0 102 30t29 90v269z" />
    <glyph glyph-name="uniFBFA" unicode="&#xfbfa;" horiz-adv-x="1167" arabic-form="final" 
d="M1064 544h-180v45h45q-9 9 -14 26t-5 29q0 43 27 64.5t68 21.5q34 0 64 -14l-14 -38q-24 11 -50 11q-20 0 -33 -10.5t-13 -33.5q0 -16 6.5 -32t18.5 -24h80v-45zM1176 66v-66h-48q-29 0 -65 10t-65 31q-24 -24 -67 -32.5t-108 -8.5h-168q20 -31 20 -83q0 -31 -19 -65
t-67.5 -59.5t-132.5 -25.5h-103q-133 0 -214.5 47t-81.5 181q0 47 20 125t39 133l68 -18l-10 -33q-44 -148 -44 -207q0 -74 38.5 -109.5t89 -43.5t123.5 -8h91q50 0 89.5 23t39.5 71q0 46 -42.5 79.5t-114.5 60.5l24 69q71 -35 128.5 -53t122.5 -18h111q51 0 76 7.5t34.5 26
t9.5 57.5v298h76v-361q15 -14 43.5 -21t58.5 -7h48z" />
    <glyph glyph-name="uniFBFB" unicode="&#xfbfb;" horiz-adv-x="705" arabic-form="initial" 
d="M584.5 613q6.5 -16 18.5 -24h80v-45h-180v45h45q-9 9 -14 26t-5 29q0 43 27 64.5t68 21.5q34 0 64 -14l-14 -38q-24 11 -50 11q-20 0 -33 -10.5t-13 -33.5q0 -16 6.5 -32zM561 455h76v-285q0 -170 -203 -170h-70q-29 0 -65 10t-65 31q-24 -24 -67 -32.5t-108 -8.5h-68v66
h75q51 0 76 7.5t34.5 26t9.5 57.5v298h76v-361q15 -14 43.5 -21t58.5 -7h66q73 0 102 30t29 90v269z" />
    <glyph glyph-name="uniFBFC" unicode="&#x6cc;" horiz-adv-x="753" arabic-form="isolated" 
d="M139 -78.5q-82 47.5 -82 181.5q0 47 20 125t39 133l68 -18l-10 -33q-44 -148 -44 -207q0 -74 38.5 -109.5t89 -43.5t123.5 -8h112q51 0 90 21.5t39 69.5q0 22 -9 35t-26 21.5t-59 24.5q-90 35 -131.5 74.5t-41.5 99.5q0 52 27 92.5t74.5 63.5t107.5 23q86 0 142 -32
l-23 -62q-49 31 -122 31q-58 0 -94 -29t-36 -77q0 -30 11.5 -48.5t38 -33.5t83.5 -38q66 -26 99 -57.5t33 -77.5q0 -70 -48 -118.5t-171 -49.5h-124q-132 -1 -214 46.5z" />
    <glyph glyph-name="uniFBFD" unicode="&#x6cc;" horiz-adv-x="765" arabic-form="final" 
d="M561.5 -143q39.5 23 39.5 71q0 46 -42.5 79.5t-114.5 60.5l24 69q71 -35 128.5 -53t122.5 -18h55v-66h-119q20 -31 20 -83q0 -31 -19 -65t-67.5 -59.5t-132.5 -25.5h-103q-133 0 -214.5 47t-81.5 181q0 47 20 125t39 133l68 -18l-10 -33q-44 -148 -44 -207
q0 -74 38.5 -109.5t89 -43.5t123.5 -8h91q50 0 89.5 23z" />
    <glyph glyph-name="uniFBFE" unicode="&#x6cc;" horiz-adv-x="366" arabic-form="initial" 
d="M298 455v-285q0 -170 -203 -170h-104v66h100q73 0 102 30t29 90v269h76zM148.5 -183.5q-14.5 -14.5 -37.5 -14.5q-21 0 -35.5 14.5t-14.5 37.5q0 22 14.5 37t36.5 15q23 0 37 -15t14 -37q0 -23 -14.5 -37.5zM285.5 -183.5q-14.5 -14.5 -37.5 -14.5q-21 0 -35.5 14.5
t-14.5 37.5q0 22 14.5 37t36.5 15q23 0 37 -15t14 -37q0 -23 -14.5 -37.5z" />
    <glyph glyph-name="uniFBFF" unicode="&#x6cc;" horiz-adv-x="403" arabic-form="medial" 
d="M299 10q-36 10 -65 31q-24 -24 -67 -32.5t-108 -8.5h-68v66h75q51 0 76 7.5t34.5 26t9.5 57.5v298h76v-361q15 -14 43.5 -21t58.5 -7h48v-66h-48q-29 0 -65 10zM193.5 -183.5q-14.5 -14.5 -37.5 -14.5q-21 0 -35.5 14.5t-14.5 37.5q0 22 14.5 37t36.5 15q23 0 37 -15
t14 -37q0 -23 -14.5 -37.5zM330.5 -183.5q-14.5 -14.5 -37.5 -14.5q-21 0 -35.5 14.5t-14.5 37.5q0 22 14.5 37t36.5 15q23 0 37 -15t14 -37q0 -23 -14.5 -37.5z" />
    <glyph glyph-name="uniFC00" unicode="&#xfc00;" horiz-adv-x="893" arabic-form="isolated" 
d="M772.5 613q6.5 -16 18.5 -24h80v-45h-180v45h45q-9 9 -14 26t-5 29q0 43 27 64.5t68 21.5q34 0 64 -14l-14 -38q-24 11 -50 11q-20 0 -33 -10.5t-13 -33.5q0 -16 6.5 -32zM749 455h76v-285q0 -170 -203 -170h-417q-64 0 -98.5 -22.5t-34.5 -85.5q0 -70 48.5 -103
t127.5 -33h46v-66h-25q-122 0 -195.5 48t-73.5 156q0 172 192 172h260q-9 9 -20.5 48.5t-10.5 89.5v50q0 53 -10.5 82.5t-48 45.5t-114.5 16q-62 0 -126 -21l1 64q58 19 135 19q120 0 179.5 -44.5t59.5 -158.5v-57q0 -34 7 -65t17.5 -50t18.5 -19h78q73 0 102 30t29 90v269z
M410.5 -85.5q14.5 -14.5 14.5 -35.5q0 -24 -14 -39t-38 -15q-21 0 -35.5 14.5t-14.5 37.5q0 22 14.5 37t36.5 15t36.5 -14.5z" />
    <glyph glyph-name="uniFC01" unicode="&#xfc01;" horiz-adv-x="893" arabic-form="isolated" 
d="M772.5 613q6.5 -16 18.5 -24h80v-45h-180v45h45q-9 9 -14 26t-5 29q0 43 27 64.5t68 21.5q34 0 64 -14l-14 -38q-24 11 -50 11q-20 0 -33 -10.5t-13 -33.5q0 -16 6.5 -32zM749 455h76v-285q0 -170 -203 -170h-417q-64 0 -98.5 -22.5t-34.5 -85.5q0 -70 48.5 -103
t127.5 -33h46v-66h-25q-122 0 -195.5 48t-73.5 156q0 172 192 172h260q-9 9 -20.5 48.5t-10.5 89.5v50q0 53 -10.5 82.5t-48 45.5t-114.5 16q-62 0 -126 -21l1 64q58 19 135 19q120 0 179.5 -44.5t59.5 -158.5v-57q0 -34 7 -65t17.5 -50t18.5 -19h78q73 0 102 30t29 90v269z
" />
    <glyph glyph-name="uniFC02" unicode="&#xfc02;" horiz-adv-x="974" arabic-form="isolated" 
d="M853.5 613q6.5 -16 18.5 -24h80v-45h-180v45h45q-9 9 -14 26t-5 29q0 43 27 64.5t68 21.5q34 0 64 -14l-14 -38q-24 11 -50 11q-20 0 -33 -10.5t-13 -33.5q0 -16 6.5 -32zM830 455h76v-285q0 -170 -203 -170h-52q-27 0 -60 8.5t-61 26.5q-24 -33 -51 -50t-68 -17
q-23 0 -51.5 7t-86.5 25h-68q-64 0 -98.5 -22.5t-34.5 -85.5v-202h-72v204q0 172 192 172h12q-24 65 -24 159q0 63 23 116.5t70.5 86t115.5 32.5q95 0 141.5 -71t46.5 -183q0 -63 -20 -117q15 -11 40 -17t54 -6h48q73 0 102 30t29 90v269zM482 87q24 51 24 123
q0 73 -28.5 130.5t-95.5 57.5q-63 0 -95.5 -50t-32.5 -129q0 -84 23 -152q5 -2 23 -7q47 -15 64 -19.5t40 -4.5q54 0 78 51z" />
    <glyph glyph-name="uniFC03" unicode="&#xfc03;" horiz-adv-x="1067" arabic-form="isolated" 
d="M946.5 613q6.5 -16 18.5 -24h80v-45h-180v45h45q-9 9 -14 26t-5 29q0 43 27 64.5t68 21.5q34 0 64 -14l-14 -38q-24 11 -50 11q-20 0 -33 -10.5t-13 -33.5q0 -16 6.5 -32zM923 455h76v-285q0 -170 -203 -170h-141q20 -31 20 -83q0 -31 -19 -65t-67.5 -59.5t-132.5 -25.5
h-103q-133 0 -214.5 47t-81.5 181q0 47 20 125t39 133l68 -18l-10 -33q-44 -148 -44 -207q0 -74 38.5 -109.5t89 -43.5t123.5 -8h91q50 0 89.5 23t39.5 71q0 46 -42.5 79.5t-114.5 60.5l24 69q71 -35 128.5 -53t122.5 -18h73q73 0 102 30t29 90v269z" />
    <glyph glyph-name="uniFC04" unicode="&#xfc04;" horiz-adv-x="1067" arabic-form="isolated" 
d="M946.5 613q6.5 -16 18.5 -24h80v-45h-180v45h45q-9 9 -14 26t-5 29q0 43 27 64.5t68 21.5q34 0 64 -14l-14 -38q-24 11 -50 11q-20 0 -33 -10.5t-13 -33.5q0 -16 6.5 -32zM923 455h76v-285q0 -170 -203 -170h-141q20 -31 20 -83q0 -31 -19 -65t-67.5 -59.5t-132.5 -25.5
h-103q-133 0 -214.5 47t-81.5 181q0 47 20 125t39 133l68 -18l-10 -33q-44 -148 -44 -207q0 -74 38.5 -109.5t89 -43.5t123.5 -8h91q50 0 89.5 23t39.5 71q0 46 -42.5 79.5t-114.5 60.5l24 69q71 -35 128.5 -53t122.5 -18h73q73 0 102 30t29 90v269zM361 -314q14 -15 14 -37
q0 -23 -14.5 -37.5t-37.5 -14.5q-21 0 -35.5 14.5t-14.5 37.5q0 22 14.5 37t36.5 15q23 0 37 -15zM498 -314q14 -15 14 -37q0 -23 -14.5 -37.5t-37.5 -14.5q-21 0 -35.5 14.5t-14.5 37.5q0 22 14.5 37t36.5 15q23 0 37 -15z" />
    <glyph glyph-name="uniFC05" unicode="&#xfc05;" horiz-adv-x="894" arabic-form="isolated" 
d="M826 455v-285q0 -170 -203 -170h-418q-64 0 -98.5 -22.5t-34.5 -85.5q0 -70 48.5 -103t127.5 -33h46v-66h-25q-122 0 -195.5 48t-73.5 156q0 172 192 172h260q-9 9 -20.5 48.5t-10.5 89.5v50q0 53 -10.5 82.5t-48 45.5t-114.5 16q-62 0 -126 -21l1 64q58 19 135 19
q120 0 179.5 -44.5t59.5 -158.5v-57q0 -34 7 -65t17.5 -50t18.5 -19h79q73 0 102 30t29 90v269h76zM410.5 -85.5q14.5 -14.5 14.5 -35.5q0 -24 -14 -39t-38 -15q-21 0 -35.5 14.5t-14.5 37.5q0 22 14.5 37t36.5 15t36.5 -14.5zM698 -109q14 -15 14 -37q0 -23 -14.5 -37.5
t-37.5 -14.5q-21 0 -35.5 14.5t-14.5 37.5q0 22 14.5 37t36.5 15q23 0 37 -15z" />
    <glyph glyph-name="uniFC06" unicode="&#xfc06;" horiz-adv-x="894" arabic-form="isolated" 
d="M826 455v-285q0 -170 -203 -170h-418q-64 0 -98.5 -22.5t-34.5 -85.5q0 -70 48.5 -103t127.5 -33h46v-66h-25q-122 0 -195.5 48t-73.5 156q0 172 192 172h260q-9 9 -20.5 48.5t-10.5 89.5v50q0 53 -10.5 82.5t-48 45.5t-114.5 16q-62 0 -126 -21l1 64q58 19 135 19
q120 0 179.5 -44.5t59.5 -158.5v-57q0 -34 7 -65t17.5 -50t18.5 -19h79q73 0 102 30t29 90v269h76zM698 -109q14 -15 14 -37q0 -23 -14.5 -37.5t-37.5 -14.5q-21 0 -35.5 14.5t-14.5 37.5q0 22 14.5 37t36.5 15q23 0 37 -15z" />
    <glyph glyph-name="uniFC07" unicode="&#xfc07;" horiz-adv-x="895" arabic-form="isolated" 
d="M243.5 584.5q-14.5 14.5 -14.5 37.5q0 22 14.5 37t36.5 15q23 0 37 -15t14 -37q0 -23 -14.5 -37.5t-37.5 -14.5q-21 0 -35.5 14.5zM827 455v-285q0 -170 -203 -170h-419q-64 0 -98.5 -22.5t-34.5 -85.5q0 -70 48.5 -103t127.5 -33h46v-66h-25q-122 0 -195.5 48t-73.5 156
q0 172 192 172h260q-9 9 -20.5 48.5t-10.5 89.5v50q0 53 -10.5 82.5t-48 45.5t-114.5 16q-62 0 -126 -21l1 64q58 19 135 19q120 0 179.5 -44.5t59.5 -158.5v-57q0 -34 7 -65t17.5 -50t18.5 -19h80q73 0 102 30t29 90v269h76zM699 -109q14 -15 14 -37q0 -23 -14.5 -37.5
t-37.5 -14.5q-21 0 -35.5 14.5t-14.5 37.5q0 22 14.5 37t36.5 15q23 0 37 -15z" />
    <glyph glyph-name="uniFC08" unicode="&#xfc08;" horiz-adv-x="974" arabic-form="isolated" 
d="M906 455v-285q0 -170 -203 -170h-52q-27 0 -60 8.5t-61 26.5q-24 -33 -51 -50t-68 -17q-23 0 -51.5 7t-86.5 25h-68q-64 0 -98.5 -22.5t-34.5 -85.5v-202h-72v204q0 172 192 172h12q-24 65 -24 159q0 63 23 116.5t70.5 86t115.5 32.5q95 0 141.5 -71t46.5 -183
q0 -63 -20 -117q15 -11 40 -17t54 -6h48q73 0 102 30t29 90v269h76zM482 87q24 51 24 123q0 73 -28.5 130.5t-95.5 57.5q-63 0 -95.5 -50t-32.5 -129q0 -84 23 -152q5 -2 23 -7q47 -15 64 -19.5t40 -4.5q54 0 78 51zM778 -109q14 -15 14 -37q0 -23 -14.5 -37.5t-37.5 -14.5
q-21 0 -35.5 14.5t-14.5 37.5q0 22 14.5 37t36.5 15q23 0 37 -15z" />
    <glyph glyph-name="uniFC09" unicode="&#xfc09;" horiz-adv-x="1068" arabic-form="isolated" 
d="M1000 455v-285q0 -170 -203 -170h-142q20 -31 20 -83q0 -31 -19 -65t-67.5 -59.5t-132.5 -25.5h-103q-133 0 -214.5 47t-81.5 181q0 47 20 125t39 133l68 -18l-10 -33q-44 -148 -44 -207q0 -74 38.5 -109.5t89 -43.5t123.5 -8h91q50 0 89.5 23t39.5 71q0 46 -42.5 79.5
t-114.5 60.5l24 69q71 -35 128.5 -53t122.5 -18h74q73 0 102 30t29 90v269h76zM872 -109q14 -15 14 -37q0 -23 -14.5 -37.5t-37.5 -14.5q-21 0 -35.5 14.5t-14.5 37.5q0 22 14.5 37t36.5 15q23 0 37 -15z" />
    <glyph glyph-name="uniFC0A" unicode="&#xfc0a;" horiz-adv-x="1068" arabic-form="isolated" 
d="M1000 455v-285q0 -170 -203 -170h-142q20 -31 20 -83q0 -31 -19 -65t-67.5 -59.5t-132.5 -25.5h-103q-133 0 -214.5 47t-81.5 181q0 47 20 125t39 133l68 -18l-10 -33q-44 -148 -44 -207q0 -74 38.5 -109.5t89 -43.5t123.5 -8h91q50 0 89.5 23t39.5 71q0 46 -42.5 79.5
t-114.5 60.5l24 69q71 -35 128.5 -53t122.5 -18h74q73 0 102 30t29 90v269h76zM872 -109q14 -15 14 -37q0 -23 -14.5 -37.5t-37.5 -14.5q-21 0 -35.5 14.5t-14.5 37.5q0 22 14.5 37t36.5 15q23 0 37 -15zM361 -314q14 -15 14 -37q0 -23 -14.5 -37.5t-37.5 -14.5
q-21 0 -35.5 14.5t-14.5 37.5q0 22 14.5 37t36.5 15q23 0 37 -15zM498 -314q14 -15 14 -37q0 -23 -14.5 -37.5t-37.5 -14.5q-21 0 -35.5 14.5t-14.5 37.5q0 22 14.5 37t36.5 15q23 0 37 -15z" />
    <glyph glyph-name="uniFC0B" unicode="&#xfc0b;" horiz-adv-x="894" arabic-form="isolated" 
d="M684.5 584.5q-14.5 14.5 -14.5 37.5q0 22 14.5 37t36.5 15q23 0 37 -15t14 -37q0 -23 -14.5 -37.5t-37.5 -14.5q-21 0 -35.5 14.5zM895 659q14 -15 14 -37q0 -23 -14.5 -37.5t-37.5 -14.5q-21 0 -35.5 14.5t-14.5 37.5q0 22 14.5 37t36.5 15q23 0 37 -15zM750 455h76
v-285q0 -170 -203 -170h-418q-64 0 -98.5 -22.5t-34.5 -85.5q0 -70 48.5 -103t127.5 -33h46v-66h-25q-122 0 -195.5 48t-73.5 156q0 172 192 172h260q-9 9 -20.5 48.5t-10.5 89.5v50q0 53 -10.5 82.5t-48 45.5t-114.5 16q-62 0 -126 -21l1 64q58 19 135 19
q120 0 179.5 -44.5t59.5 -158.5v-57q0 -34 7 -65t17.5 -50t18.5 -19h79q73 0 102 30t29 90v269zM410.5 -85.5q14.5 -14.5 14.5 -35.5q0 -24 -14 -39t-38 -15q-21 0 -35.5 14.5t-14.5 37.5q0 22 14.5 37t36.5 15t36.5 -14.5z" />
    <glyph glyph-name="uniFC0C" unicode="&#xfc0c;" horiz-adv-x="893" arabic-form="isolated" 
d="M683.5 584.5q-14.5 14.5 -14.5 37.5q0 22 14.5 37t36.5 15q23 0 37 -15t14 -37q0 -23 -14.5 -37.5t-37.5 -14.5q-21 0 -35.5 14.5zM894 659q14 -15 14 -37q0 -23 -14.5 -37.5t-37.5 -14.5q-21 0 -35.5 14.5t-14.5 37.5q0 22 14.5 37t36.5 15q23 0 37 -15zM749 455h76
v-285q0 -170 -203 -170h-417q-64 0 -98.5 -22.5t-34.5 -85.5q0 -70 48.5 -103t127.5 -33h46v-66h-25q-122 0 -195.5 48t-73.5 156q0 172 192 172h260q-9 9 -20.5 48.5t-10.5 89.5v50q0 53 -10.5 82.5t-48 45.5t-114.5 16q-62 0 -126 -21l1 64q58 19 135 19
q120 0 179.5 -44.5t59.5 -158.5v-57q0 -34 7 -65t17.5 -50t18.5 -19h78q73 0 102 30t29 90v269z" />
    <glyph glyph-name="uniFC0D" unicode="&#xfc0d;" horiz-adv-x="893" arabic-form="isolated" 
d="M243.5 584.5q-14.5 14.5 -14.5 37.5q0 22 14.5 37t36.5 15q23 0 37 -15t14 -37q0 -23 -14.5 -37.5t-37.5 -14.5q-21 0 -35.5 14.5zM683.5 584.5q-14.5 14.5 -14.5 37.5q0 22 14.5 37t36.5 15q23 0 37 -15t14 -37q0 -23 -14.5 -37.5t-37.5 -14.5q-21 0 -35.5 14.5z
M894 659q14 -15 14 -37q0 -23 -14.5 -37.5t-37.5 -14.5q-21 0 -35.5 14.5t-14.5 37.5q0 22 14.5 37t36.5 15q23 0 37 -15zM749 455h76v-285q0 -170 -203 -170h-417q-64 0 -98.5 -22.5t-34.5 -85.5q0 -70 48.5 -103t127.5 -33h46v-66h-25q-122 0 -195.5 48t-73.5 156
q0 172 192 172h260q-9 9 -20.5 48.5t-10.5 89.5v50q0 53 -10.5 82.5t-48 45.5t-114.5 16q-62 0 -126 -21l1 64q58 19 135 19q120 0 179.5 -44.5t59.5 -158.5v-57q0 -34 7 -65t17.5 -50t18.5 -19h78q73 0 102 30t29 90v269z" />
    <glyph glyph-name="uniFC0E" unicode="&#xfc0e;" horiz-adv-x="969" arabic-form="isolated" 
d="M765.5 584.5q-14.5 14.5 -14.5 37.5q0 22 14.5 37t36.5 15q23 0 37 -15t14 -37q0 -23 -14.5 -37.5t-37.5 -14.5q-21 0 -35.5 14.5zM976 659q14 -15 14 -37q0 -23 -14.5 -37.5t-37.5 -14.5q-21 0 -35.5 14.5t-14.5 37.5q0 22 14.5 37t36.5 15q23 0 37 -15zM831 455h76
v-285q0 -170 -203 -170h-53q-27 0 -60 8.5t-61 26.5q-24 -33 -51 -50t-68 -17q-23 0 -51.5 7t-86.5 25h-68q-64 0 -98.5 -22.5t-34.5 -85.5v-202h-72v204q0 172 192 172h12q-24 65 -24 159q0 63 23 116.5t70.5 86t115.5 32.5q95 0 141.5 -71t46.5 -183q0 -63 -20 -117
q15 -11 40 -17t54 -6h49q73 0 102 30t29 90v269zM482 87q24 51 24 123q0 73 -28.5 130.5t-95.5 57.5q-63 0 -95.5 -50t-32.5 -129q0 -84 23 -152q5 -2 23 -7q47 -15 64 -19.5t40 -4.5q54 0 78 51z" />
    <glyph glyph-name="uniFC0F" unicode="&#xfc0f;" horiz-adv-x="1062" arabic-form="isolated" 
d="M858.5 584.5q-14.5 14.5 -14.5 37.5q0 22 14.5 37t36.5 15q23 0 37 -15t14 -37q0 -23 -14.5 -37.5t-37.5 -14.5q-21 0 -35.5 14.5zM1069 659q14 -15 14 -37q0 -23 -14.5 -37.5t-37.5 -14.5q-21 0 -35.5 14.5t-14.5 37.5q0 22 14.5 37t36.5 15q23 0 37 -15zM924 455h76
v-285q0 -170 -203 -170h-142q20 -31 20 -83q0 -31 -19 -65t-67.5 -59.5t-132.5 -25.5h-103q-133 0 -214.5 47t-81.5 181q0 47 20 125t39 133l68 -18l-10 -33q-44 -148 -44 -207q0 -74 38.5 -109.5t89 -43.5t123.5 -8h91q50 0 89.5 23t39.5 71q0 46 -42.5 79.5t-114.5 60.5
l24 69q71 -35 128.5 -53t122.5 -18h74q73 0 102 30t29 90v269z" />
    <glyph glyph-name="uniFC10" unicode="&#xfc10;" horiz-adv-x="1060" arabic-form="isolated" 
d="M856.5 584.5q-14.5 14.5 -14.5 37.5q0 22 14.5 37t36.5 15q23 0 37 -15t14 -37q0 -23 -14.5 -37.5t-37.5 -14.5q-21 0 -35.5 14.5zM1067 659q14 -15 14 -37q0 -23 -14.5 -37.5t-37.5 -14.5q-21 0 -35.5 14.5t-14.5 37.5q0 22 14.5 37t36.5 15q23 0 37 -15zM922 455h76
v-285q0 -170 -203 -170h-140q20 -31 20 -83q0 -31 -19 -65t-67.5 -59.5t-132.5 -25.5h-103q-133 0 -214.5 47t-81.5 181q0 47 20 125t39 133l68 -18l-10 -33q-44 -148 -44 -207q0 -74 38.5 -109.5t89 -43.5t123.5 -8h91q50 0 89.5 23t39.5 71q0 46 -42.5 79.5t-114.5 60.5
l24 69q71 -35 128.5 -53t122.5 -18h72q73 0 102 30t29 90v269zM361 -314q14 -15 14 -37q0 -23 -14.5 -37.5t-37.5 -14.5q-21 0 -35.5 14.5t-14.5 37.5q0 22 14.5 37t36.5 15q23 0 37 -15zM498 -314q14 -15 14 -37q0 -23 -14.5 -37.5t-37.5 -14.5q-21 0 -35.5 14.5
t-14.5 37.5q0 22 14.5 37t36.5 15q23 0 37 -15z" />
    <glyph glyph-name="uniFC11" unicode="&#xfc11;" horiz-adv-x="888" arabic-form="isolated" 
d="M754.5 716.5q-14.5 14.5 -14.5 37.5q0 22 14.5 37t36.5 15q23 0 37 -15t14 -37q0 -23 -14.5 -37.5t-37.5 -14.5q-21 0 -35.5 14.5zM684.5 584.5q-14.5 14.5 -14.5 37.5q0 22 14.5 37t36.5 15q23 0 37 -15t14 -37q0 -23 -14.5 -37.5t-37.5 -14.5q-21 0 -35.5 14.5z
M895 659q14 -15 14 -37q0 -23 -14.5 -37.5t-37.5 -14.5q-21 0 -35.5 14.5t-14.5 37.5q0 22 14.5 37t36.5 15q23 0 37 -15zM750 455h76v-285q0 -170 -203 -170h-418q-64 0 -98.5 -22.5t-34.5 -85.5q0 -70 48.5 -103t127.5 -33h46v-66h-25q-122 0 -195.5 48t-73.5 156
q0 172 192 172h260q-9 9 -20.5 48.5t-10.5 89.5v50q0 53 -10.5 82.5t-48 45.5t-114.5 16q-62 0 -126 -21l1 64q58 19 135 19q120 0 179.5 -44.5t59.5 -158.5v-57q0 -34 7 -65t17.5 -50t18.5 -19h79q73 0 102 30t29 90v269zM410.5 -85.5q14.5 -14.5 14.5 -35.5q0 -24 -14 -39
t-38 -15q-21 0 -35.5 14.5t-14.5 37.5q0 22 14.5 37t36.5 15t36.5 -14.5z" />
    </font>
</defs>
</svg>
