<?xml version="1.0" standalone="no"?>
<!DOCTYPE svg PUBLIC "-//W3C//DTD SVG 1.1//EN" "http://www.w3.org/Graphics/SVG/1.1/DTD/svg11.dtd" >
<svg>
<metadata>
Created by FontForge 20090622 at Mon Oct 31 13:38:30 2016
 By deploy user
&#194;&#169; Apple Computer, Inc. 2015-2016 all rights reserved.
</metadata>
<defs>
<font id="Gulf-Thin" horiz-adv-x="0" >
  <font-face 
    font-family="Gulf Thin"
    font-weight="300"
    font-stretch="normal"
    units-per-em="1000"
    panose-1="2 11 4 3 3 4 3 2 2 4"
    ascent="792"
    descent="-208"
    bbox="-231 -684 6435 1792"
    underline-thickness="50"
    underline-position="-100"
    unicode-range="U+0009-U+FEFC"
  />
<missing-glyph horiz-adv-x="448" 
d="M64 718h317v-616h-317v616zM316 166v488h-188v-488h188z" />
    <glyph glyph-name="uniE06D.PUA" unicode="&#xfedf;&#xfee4;" horiz-adv-x="855" 
d="M97 221q0 62 22.5 114.5t68 84.5t111.5 32q91 0 136.5 -70.5t45.5 -180.5q0 -57 -25 -126q43 -33 111 -33h20q85 0 118.5 34.5t33.5 103.5v494h48v-511q0 -163 -195 -163h-25q-26 0 -59 10.5t-66 32.5q-27 -37 -54.5 -56.5t-65.5 -19.5q-24 0 -54 7.5t-89 25.5h-188v42
h137q-31 83 -31 179zM171 47q44 -18 77.5 -27.5t66.5 -9.5q64 0 92.5 57t28.5 138t-33 145t-111 64q-74 0 -111.5 -56t-37.5 -144q0 -84 28 -167z" />
    <glyph glyph-name="uniE06E.PUA" unicode="&#xfee8;&#xfee6;" horiz-adv-x="1119" 
d="M918.5 592.5q-11.5 11.5 -11.5 28.5t11.5 29t28.5 12t29 -12t12 -29t-12 -28.5t-29 -11.5t-28.5 11.5zM319.5 534.5q-11.5 11.5 -11.5 28.5t11.5 29t28.5 12t29 -12t12 -29t-12 -28.5t-29 -11.5t-28.5 11.5zM1127 42v-42h-40q-38 0 -73.5 12.5t-63.5 38.5
q-18 -28 -56.5 -39.5t-109.5 -11.5h-64q-52 0 -107 32v-51q0 -29 -19 -61.5t-67 -56.5t-129 -24h-49q-131 0 -211.5 46t-80.5 177q0 45 18 120.5t37 130.5q14 -4 24 -6l20 -4l-7 -22q-47 -157 -47 -219q0 -83 42.5 -123t98 -49t136.5 -9h36q58 0 104 27t46 85v399h48v-320
q43 -30 107 -30h66q59 0 87.5 8.5t39 31t10.5 68.5v296h48v-295q0 -33 -7 -68q25 -21 54 -31t70 -10h39z" />
    <glyph glyph-name="uniE06F.PUA" unicode="&#xfef4;&#xfee6;" horiz-adv-x="1118" 
d="M319.5 534.5q-11.5 11.5 -11.5 28.5t11.5 29t28.5 12t29 -12t12 -29t-12 -28.5t-29 -11.5t-28.5 11.5zM1127 42v-42h-40q-38 0 -73.5 12.5t-63.5 38.5q-18 -28 -56.5 -39.5t-109.5 -11.5h-64q-52 0 -107 32v-51q0 -29 -19 -61.5t-67 -56.5t-129 -24h-49q-131 0 -211.5 46
t-80.5 177q0 45 18 120.5t37 130.5q14 -4 24 -6l20 -4l-7 -22q-47 -157 -47 -219q0 -83 42.5 -123t98 -49t136.5 -9h36q58 0 104 27t46 85v399h48v-320q43 -30 107 -30h66q59 0 87.5 8.5t39 31t10.5 68.5v296h48v-295q0 -33 -7 -68q25 -21 54 -31t70 -10h39zM919 -115
q12 -12 12 -29t-12 -28.5t-29 -11.5t-28.5 11.5t-11.5 28.5t11.5 29t28.5 12t29 -12zM1032 -115q12 -12 12 -29t-12 -28.5t-29 -11.5t-28.5 11.5t-11.5 28.5t11.5 29t28.5 12t29 -12z" />
    <glyph glyph-name="uniE070.PUA" unicode="&#xfe92;&#xfee6;" horiz-adv-x="1118" 
d="M319.5 534.5q-11.5 11.5 -11.5 28.5t11.5 29t28.5 12t29 -12t12 -29t-12 -28.5t-29 -11.5t-28.5 11.5zM1127 42v-42h-40q-38 0 -73.5 12.5t-63.5 38.5q-18 -28 -56.5 -39.5t-109.5 -11.5h-64q-52 0 -107 32v-51q0 -29 -19 -61.5t-67 -56.5t-129 -24h-49q-131 0 -211.5 46
t-80.5 177q0 45 18 120.5t37 130.5q14 -4 24 -6l20 -4l-7 -22q-47 -157 -47 -219q0 -83 42.5 -123t98 -49t136.5 -9h36q58 0 104 27t46 85v399h48v-320q43 -30 107 -30h66q59 0 87.5 8.5t39 31t10.5 68.5v296h48v-295q0 -33 -7 -68q25 -21 54 -31t70 -10h39zM978 -115
q12 -12 12 -29t-12 -28.5t-29 -11.5t-28.5 11.5t-11.5 28.5t11.5 29t28.5 12t29 -12z" />
    <glyph glyph-name="uniE071.PUA" unicode="&#xfe98;&#xfee6;" horiz-adv-x="1118" 
d="M859.5 592.5q-11.5 11.5 -11.5 28.5t11.5 29t28.5 12t29 -12t12 -29t-12 -28.5t-29 -11.5t-28.5 11.5zM972.5 592.5q-11.5 11.5 -11.5 28.5t11.5 29t28.5 12t29 -12t12 -29t-12 -28.5t-29 -11.5t-28.5 11.5zM319.5 534.5q-11.5 11.5 -11.5 28.5t11.5 29t28.5 12t29 -12
t12 -29t-12 -28.5t-29 -11.5t-28.5 11.5zM1127 42v-42h-40q-38 0 -73.5 12.5t-63.5 38.5q-18 -28 -56.5 -39.5t-109.5 -11.5h-64q-52 0 -107 32v-51q0 -29 -19 -61.5t-67 -56.5t-129 -24h-49q-131 0 -211.5 46t-80.5 177q0 45 18 120.5t37 130.5q14 -4 24 -6l20 -4l-7 -22
q-47 -157 -47 -219q0 -83 42.5 -123t98 -49t136.5 -9h36q58 0 104 27t46 85v399h48v-320q43 -30 107 -30h66q59 0 87.5 8.5t39 31t10.5 68.5v296h48v-295q0 -33 -7 -68q25 -21 54 -31t70 -10h39z" />
    <glyph glyph-name="uniE072.PUA" unicode="&#xfedf;&#xfe82;" horiz-adv-x="564" 
d="M30 42h208l-74 467h51l74 -467h7q85 0 118.5 34.5t33.5 103.5v494h48v-511q0 -163 -195 -163h-271v42zM300.5 583q-16.5 -21 -45.5 -21q-18 0 -34.5 6t-37.5 17q-3 2 -17 8t-26.5 9.5t-23.5 3.5q-32 0 -33 -51h-33q2 38 18.5 62t42.5 24q17 0 32 -5.5t40 -17.5
q23 -12 38.5 -18t32.5 -6q15 0 24 12.5t10 36.5h31q-2 -39 -18.5 -60z" />
    <glyph glyph-name="uniE073.PUA" unicode="&#xfee0;&#xfe82;" horiz-adv-x="643" 
d="M652 42v-42h-40q-38 0 -73.5 12.5t-63.5 38.5q-18 -28 -56.5 -39.5t-109.5 -11.5h-279v42h208l-74 467h51l74 -467h22q59 0 87.5 8.5t39 31t10.5 68.5v524h48v-523q0 -33 -7 -68q25 -21 54 -31t70 -10h39zM83 555h-33q2 38 18.5 62t42.5 24q17 0 32 -5.5t40 -17.5
q23 -12 38.5 -18t32.5 -6q15 0 24 12.5t10 36.5h31q-2 -39 -18.5 -60t-45.5 -21q-18 0 -34.5 6t-37.5 17q-3 2 -17 8t-26.5 9.5t-23.5 3.5q-32 0 -33 -51z" />
    <glyph glyph-name="uniE074.PUA" unicode="&#xe180;&#xfe8e;" horiz-adv-x="564" 
d="M88 729h45l62 -99h2l61 99h48l-93 -137h-35zM30 42h208l-74 467h51l74 -467h7q85 0 118.5 34.5t33.5 103.5v494h48v-511q0 -163 -195 -163h-271v42z" />
    <glyph glyph-name="uniE075.PUA" unicode="&#xe181;&#xfe8e;" horiz-adv-x="643" 
d="M178 592l-90 137h45l62 -99h2l61 99h48l-93 -137h-35zM652 42v-42h-40q-38 0 -73.5 12.5t-63.5 38.5q-18 -28 -56.5 -39.5t-109.5 -11.5h-279v42h208l-74 467h51l74 -467h22q59 0 87.5 8.5t39 31t10.5 68.5v524h48v-523q0 -33 -7 -68q25 -21 54 -31t70 -10h39z" />
    <glyph glyph-name="uniE076.PUA" unicode="&#xfedf;&#xfe84;" horiz-adv-x="564" 
d="M99 560v29h44q-21 19 -21 55q0 35 22 53t55 18q27 0 49 -8q-1 -2 -7 -24q-15 7 -41 7q-21 0 -34.5 -11t-13.5 -34q0 -16 6.5 -32t19.5 -24h68v-29h-147zM30 42h208l-74 467h51l74 -467h7q85 0 118.5 34.5t33.5 103.5v494h48v-511q0 -163 -195 -163h-271v42z" />
    <glyph glyph-name="uniE077.PUA" unicode="&#xfee0;&#xfe84;" horiz-adv-x="643" 
d="M246 560h-147v29h44q-21 19 -21 55q0 35 22 53t55 18q27 0 49 -8q-1 -2 -7 -24q-15 7 -41 7q-21 0 -34.5 -11t-13.5 -34q0 -16 6.5 -32t19.5 -24h68v-29zM652 42v-42h-40q-38 0 -73.5 12.5t-63.5 38.5q-18 -28 -56.5 -39.5t-109.5 -11.5h-279v42h208l-74 467h51l74 -467
h22q59 0 87.5 8.5t39 31t10.5 68.5v524h48v-523q0 -33 -7 -68q25 -21 54 -31t70 -10h39z" />
    <glyph glyph-name="uniE078.PUA" unicode="&#xfedf;&#xfe88;" horiz-adv-x="564" 
d="M30 42h208l-74 467h51l74 -467h7q85 0 118.5 34.5t33.5 103.5v494h48v-511q0 -163 -195 -163h-271v42zM175 -219v29h44q-21 19 -21 55q0 35 22 53t55 18q27 0 49 -8q-1 -2 -7 -24q-15 7 -41 7q-21 0 -34.5 -11t-13.5 -34q0 -16 6.5 -32t19.5 -24h68v-29h-147z" />
    <glyph glyph-name="uniE079.PUA" unicode="&#xfee0;&#xfe88;" horiz-adv-x="643" 
d="M652 42v-42h-40q-38 0 -73.5 12.5t-63.5 38.5q-18 -28 -56.5 -39.5t-109.5 -11.5h-279v42h208l-74 467h51l74 -467h22q59 0 87.5 8.5t39 31t10.5 68.5v524h48v-523q0 -33 -7 -68q25 -21 54 -31t70 -10h39zM241.5 -100q-13.5 -11 -13.5 -34q0 -16 6.5 -32t19.5 -24h68v-29
h-147v29h44q-21 19 -21 55q0 35 22 53t55 18q27 0 49 -8q-1 -2 -7 -24q-15 7 -41 7q-21 0 -34.5 -11z" />
    <glyph glyph-name="uniE07A.PUA" unicode="&#xfedf;&#xfe8e;" horiz-adv-x="564" 
d="M30 42h208l-74 467h51l74 -467h7q85 0 118.5 34.5t33.5 103.5v494h48v-511q0 -163 -195 -163h-271v42z" />
    <glyph glyph-name="uniE07B.PUA" unicode="&#xfee0;&#xfe8e;&#x64b;" horiz-adv-x="643" 
d="M652 42v-42h-40q-38 0 -73.5 12.5t-63.5 38.5q-18 -28 -56.5 -39.5t-109.5 -11.5h-279v42h208l-74 467h51l74 -467h22q59 0 87.5 8.5t39 31t10.5 68.5v524h48v-523q0 -33 -7 -68q25 -21 54 -31t70 -10h39z" />
    <glyph glyph-name="uniFB50" unicode="&#x671;" horiz-adv-x="204" arabic-form="isolated" 
d="M7 746h20v101h26v-29q4 3 19.5 13.5t40.5 20.5t51 10q24 0 41.5 -18t17.5 -46q0 -33 -16 -58.5t-58 -25.5h-142v32zM184.5 822.5q-10.5 9.5 -34.5 9.5t-45.5 -11.5t-36.5 -25.5t-15 -15v-34h97q23 0 34 13t11 33q0 21 -10.5 30.5zM78 0v674h48v-674h-48z" />
    <glyph glyph-name="uniFB51" unicode="&#x671;" horiz-adv-x="277" arabic-form="final" 
d="M7 746h20v101h26v-29q4 3 19.5 13.5t40.5 20.5t51 10q24 0 41.5 -18t17.5 -46q0 -33 -16 -58.5t-58 -25.5h-142v32zM184.5 822.5q-10.5 9.5 -34.5 9.5t-45.5 -11.5t-36.5 -25.5t-15 -15v-34h97q23 0 34 13t11 33q0 21 -10.5 30.5zM68 163v511h48v-494q0 -69 33.5 -103.5
t118.5 -34.5h18v-42h-23q-195 0 -195 163z" />
    <glyph glyph-name="uniFB52" unicode="&#x67b;" horiz-adv-x="811" arabic-form="isolated" 
d="M100 224q0 -83 42.5 -123t99 -49.5t135.5 -9.5h166q85 0 118.5 34.5t33.5 103.5v266h48v-283q0 -163 -195 -163h-200q-132 0 -212.5 46t-80.5 178q0 41 22 131l42 -11q-19 -78 -19 -120zM413.5 -86q11.5 12 28.5 12t29 -12t12 -29t-12 -28.5t-29 -11.5t-28.5 11.5
t-11.5 28.5t11.5 29zM414.5 -196q11.5 12 28.5 12t29 -12t12 -29t-12 -28.5t-29 -11.5t-28.5 11.5t-11.5 28.5t11.5 29z" />
    <glyph glyph-name="uniFB53" unicode="&#x67b;" horiz-adv-x="865" arabic-form="final" 
d="M874 42v-42h-15q-38 0 -73.5 12.5t-63.5 38.5q-18 -28 -56.5 -39.5t-109.5 -11.5h-208q-132 0 -212.5 46t-80.5 178q0 41 22 131q9 -2 20.5 -6t20.5 -6q-18 -65 -18 -119q0 -83 42.5 -123t98.5 -49.5t136 -9.5h181q59 0 87.5 8.5t39 31t10.5 68.5v296h48v-295
q0 -33 -7 -68q25 -21 54 -31t70 -10h14zM413.5 -143.5q-11.5 11.5 -11.5 28.5t11.5 29t28.5 12t29 -12t12 -29t-12 -28.5t-29 -11.5t-28.5 11.5zM472 -196q12 -12 12 -29t-12 -28.5t-29 -11.5t-28.5 11.5t-11.5 28.5t11.5 29t28.5 12t29 -12z" />
    <glyph glyph-name="uniFB54" unicode="&#x67b;" horiz-adv-x="289" arabic-form="initial" 
d="M-9 42h30q85 0 118.5 34.5t33.5 103.5v266h48v-283q0 -163 -195 -163h-35v42zM80.5 -86q11.5 12 28.5 12t29 -12t12 -29t-12 -28.5t-29 -11.5t-28.5 11.5t-11.5 28.5t11.5 29zM81.5 -196q11.5 12 28.5 12t29 -12t12 -29t-12 -28.5t-29 -11.5t-28.5 11.5t-11.5 28.5
t11.5 29z" />
    <glyph glyph-name="uniFB55" unicode="&#x67b;" horiz-adv-x="389" arabic-form="medial" 
d="M398 42v-42h-40q-38 0 -73.5 12.5t-63.5 38.5q-18 -28 -56.5 -39.5t-109.5 -11.5h-64v42h66q59 0 87.5 8.5t39 31t10.5 68.5v296h48v-295q0 -33 -7 -68q25 -21 54 -31t70 -10h39zM188.5 -143.5q-11.5 11.5 -11.5 28.5t11.5 29t28.5 12t29 -12t12 -29t-12 -28.5t-29 -11.5
t-28.5 11.5zM247 -196q12 -12 12 -29t-12 -28.5t-29 -11.5t-28.5 11.5t-11.5 28.5t11.5 29t28.5 12t29 -12z" />
    <glyph glyph-name="uniFB56" unicode="&#x67e;" horiz-adv-x="811" arabic-form="isolated" 
d="M100 224q0 -83 42.5 -123t99 -49.5t135.5 -9.5h166q85 0 118.5 34.5t33.5 103.5v266h48v-283q0 -163 -195 -163h-200q-132 0 -212.5 46t-80.5 178q0 41 22 131l42 -11q-19 -78 -19 -120zM342.5 -105.5q11.5 11.5 28.5 11.5t29 -11.5t12 -28.5t-12 -29t-29 -12t-28.5 12
t-11.5 29t11.5 28.5zM455.5 -105.5q11.5 11.5 28.5 11.5t29 -11.5t12 -28.5t-12 -29t-29 -12t-28.5 12t-11.5 29t11.5 28.5zM401.5 -215.5q11.5 11.5 28.5 11.5t29 -11.5t12 -28.5t-12 -29t-29 -12t-28.5 12t-11.5 29t11.5 28.5z" />
    <glyph glyph-name="uniFB57" unicode="&#x67e;" horiz-adv-x="865" arabic-form="final" 
d="M874 42v-42h-15q-38 0 -73.5 12.5t-63.5 38.5q-18 -28 -56.5 -39.5t-109.5 -11.5h-208q-132 0 -212.5 46t-80.5 178q0 41 22 131q9 -2 20.5 -6t20.5 -6q-18 -65 -18 -119q0 -83 42.5 -123t98.5 -49.5t136 -9.5h181q59 0 87.5 8.5t39 31t10.5 68.5v296h48v-295
q0 -33 -7 -68q25 -21 54 -31t70 -10h14zM421 -163q-12 -12 -29 -12t-28.5 12t-11.5 29t11.5 28.5t28.5 11.5t29 -11.5t12 -28.5t-12 -29zM534 -105.5q12 -11.5 12 -28.5t-12 -29t-29 -12t-28.5 12t-11.5 29t11.5 28.5t28.5 11.5t29 -11.5zM480 -215.5q12 -11.5 12 -28.5
t-12 -29t-29 -12t-28.5 12t-11.5 29t11.5 28.5t28.5 11.5t29 -11.5z" />
    <glyph glyph-name="uniFB58" unicode="&#x67e;" horiz-adv-x="329" arabic-form="initial" 
d="M-9 42h70q85 0 118.5 34.5t33.5 103.5v266h48v-283q0 -163 -195 -163h-75v42zM58.5 -105.5q11.5 11.5 28.5 11.5t29 -11.5t12 -28.5t-12 -29t-29 -12t-28.5 12t-11.5 29t11.5 28.5zM171.5 -105.5q11.5 11.5 28.5 11.5t29 -11.5t12 -28.5t-12 -29t-29 -12t-28.5 12
t-11.5 29t11.5 28.5zM117.5 -215.5q11.5 11.5 28.5 11.5t29 -11.5t12 -28.5t-12 -29t-29 -12t-28.5 12t-11.5 29t11.5 28.5z" />
    <glyph glyph-name="uniFB59" unicode="&#x67e;" horiz-adv-x="389" arabic-form="medial" 
d="M398 42v-42h-40q-38 0 -73.5 12.5t-63.5 38.5q-18 -28 -56.5 -39.5t-109.5 -11.5h-64v42h66q59 0 87.5 8.5t39 31t10.5 68.5v296h48v-295q0 -33 -7 -68q25 -21 54 -31t70 -10h39zM188 -163q-12 -12 -29 -12t-28.5 12t-11.5 29t11.5 28.5t28.5 11.5t29 -11.5t12 -28.5
t-12 -29zM301 -105.5q12 -11.5 12 -28.5t-12 -29t-29 -12t-28.5 12t-11.5 29t11.5 28.5t28.5 11.5t29 -11.5zM247 -215.5q12 -11.5 12 -28.5t-12 -29t-29 -12t-28.5 12t-11.5 29t11.5 28.5t28.5 11.5t29 -11.5z" />
    <glyph glyph-name="uniFB5A" unicode="&#x680;" horiz-adv-x="811" arabic-form="isolated" 
d="M100 224q0 -83 42.5 -123t99 -49.5t135.5 -9.5h166q85 0 118.5 34.5t33.5 103.5v266h48v-283q0 -163 -195 -163h-200q-132 0 -212.5 46t-80.5 178q0 41 22 131l42 -11q-19 -78 -19 -120zM353.5 -109q11.5 12 28.5 12t29 -12t12 -29t-12 -28.5t-29 -11.5t-28.5 11.5
t-11.5 28.5t11.5 29zM466.5 -109q11.5 12 28.5 12t29 -12t12 -29t-12 -28.5t-29 -11.5t-28.5 11.5t-11.5 28.5t11.5 29zM353.5 -219q11.5 12 28.5 12t29 -12t12 -29t-12 -28.5t-29 -11.5t-28.5 11.5t-11.5 28.5t11.5 29zM466.5 -219q11.5 12 28.5 12t29 -12t12 -29
t-12 -28.5t-29 -11.5t-28.5 11.5t-11.5 28.5t11.5 29z" />
    <glyph glyph-name="uniFB5B" unicode="&#x680;" horiz-adv-x="865" arabic-form="final" 
d="M874 42v-42h-15q-38 0 -73.5 12.5t-63.5 38.5q-18 -28 -56.5 -39.5t-109.5 -11.5h-208q-132 0 -212.5 46t-80.5 178q0 41 22 131q9 -2 20.5 -6t20.5 -6q-18 -65 -18 -119q0 -83 42.5 -123t98.5 -49.5t136 -9.5h181q59 0 87.5 8.5t39 31t10.5 68.5v296h48v-295
q0 -33 -7 -68q25 -21 54 -31t70 -10h14zM411 -109q12 -12 12 -29t-12 -28.5t-29 -11.5t-28.5 11.5t-11.5 28.5t11.5 29t28.5 12t29 -12zM524 -109q12 -12 12 -29t-12 -28.5t-29 -11.5t-28.5 11.5t-11.5 28.5t11.5 29t28.5 12t29 -12zM411 -219q12 -12 12 -29t-12 -28.5
t-29 -11.5t-28.5 11.5t-11.5 28.5t11.5 29t28.5 12t29 -12zM524 -219q12 -12 12 -29t-12 -28.5t-29 -11.5t-28.5 11.5t-11.5 28.5t11.5 29t28.5 12t29 -12z" />
    <glyph glyph-name="uniFB5C" unicode="&#x680;" horiz-adv-x="329" arabic-form="initial" 
d="M-9 42h70q85 0 118.5 34.5t33.5 103.5v266h48v-283q0 -163 -195 -163h-75v42zM50.5 -109q11.5 12 28.5 12t29 -12t12 -29t-12 -28.5t-29 -11.5t-28.5 11.5t-11.5 28.5t11.5 29zM163.5 -109q11.5 12 28.5 12t29 -12t12 -29t-12 -28.5t-29 -11.5t-28.5 11.5t-11.5 28.5
t11.5 29zM50.5 -219q11.5 12 28.5 12t29 -12t12 -29t-12 -28.5t-29 -11.5t-28.5 11.5t-11.5 28.5t11.5 29zM163.5 -219q11.5 12 28.5 12t29 -12t12 -29t-12 -28.5t-29 -11.5t-28.5 11.5t-11.5 28.5t11.5 29z" />
    <glyph glyph-name="uniFB5D" unicode="&#x680;" horiz-adv-x="389" arabic-form="medial" 
d="M398 42v-42h-40q-38 0 -73.5 12.5t-63.5 38.5q-18 -28 -56.5 -39.5t-109.5 -11.5h-64v42h66q59 0 87.5 8.5t39 31t10.5 68.5v296h48v-295q0 -33 -7 -68q25 -21 54 -31t70 -10h39zM193 -109q12 -12 12 -29t-12 -28.5t-29 -11.5t-28.5 11.5t-11.5 28.5t11.5 29t28.5 12
t29 -12zM306 -109q12 -12 12 -29t-12 -28.5t-29 -11.5t-28.5 11.5t-11.5 28.5t11.5 29t28.5 12t29 -12zM193 -219q12 -12 12 -29t-12 -28.5t-29 -11.5t-28.5 11.5t-11.5 28.5t11.5 29t28.5 12t29 -12zM306 -219q12 -12 12 -29t-12 -28.5t-29 -11.5t-28.5 11.5t-11.5 28.5
t11.5 29t28.5 12t29 -12z" />
    <glyph glyph-name="uniFB5E" unicode="&#x67a;" horiz-adv-x="810" arabic-form="isolated" 
d="M382.5 722q11.5 12 28.5 12t29 -12t12 -29t-12 -28.5t-29 -11.5t-28.5 11.5t-11.5 28.5t11.5 29zM383.5 612q11.5 12 28.5 12t29 -12t12 -29t-12 -28.5t-29 -11.5t-28.5 11.5t-11.5 28.5t11.5 29zM100 224q0 -83 42.5 -123t99 -49.5t135.5 -9.5h166q85 0 118.5 34.5
t33.5 103.5v266h48v-283q0 -163 -195 -163h-200q-132 0 -212.5 46t-80.5 178q0 41 22 131l42 -11q-19 -78 -19 -120z" />
    <glyph glyph-name="uniFB5F" unicode="&#x67a;" horiz-adv-x="888" arabic-form="final" 
d="M405.5 664.5q-11.5 11.5 -11.5 28.5t11.5 29t28.5 12t29 -12t12 -29t-12 -28.5t-29 -11.5t-28.5 11.5zM464 612q12 -12 12 -29t-12 -28.5t-29 -11.5t-28.5 11.5t-11.5 28.5t11.5 29t28.5 12t29 -12zM874 42v-42h-15q-38 0 -73.5 12.5t-63.5 38.5q-18 -28 -56.5 -39.5
t-109.5 -11.5h-208q-132 0 -212.5 46t-80.5 178q0 41 22 131q9 -2 20.5 -6t20.5 -6q-18 -65 -18 -119q0 -83 42.5 -123t98.5 -49.5t136 -9.5h181q59 0 87.5 8.5t39 31t10.5 68.5v296h48v-295q0 -33 -7 -68q25 -21 54 -31t70 -10h14z" />
    <glyph glyph-name="uniFB60" unicode="&#x67a;" horiz-adv-x="289" arabic-form="initial" 
d="M167.5 722q11.5 12 28.5 12t29 -12t12 -29t-12 -28.5t-29 -11.5t-28.5 11.5t-11.5 28.5t11.5 29zM168.5 612q11.5 12 28.5 12t29 -12t12 -29t-12 -28.5t-29 -11.5t-28.5 11.5t-11.5 28.5t11.5 29zM-9 42h30q85 0 118.5 34.5t33.5 103.5v266h48v-283q0 -163 -195 -163h-35
v42z" />
    <glyph glyph-name="uniFB61" unicode="&#x67a;" horiz-adv-x="389" arabic-form="medial" 
d="M188.5 664.5q-11.5 11.5 -11.5 28.5t11.5 29t28.5 12t29 -12t12 -29t-12 -28.5t-29 -11.5t-28.5 11.5zM247 612q12 -12 12 -29t-12 -28.5t-29 -11.5t-28.5 11.5t-11.5 28.5t11.5 29t28.5 12t29 -12zM398 42v-42h-40q-38 0 -73.5 12.5t-63.5 38.5q-18 -28 -56.5 -39.5
t-109.5 -11.5h-64v42h66q59 0 87.5 8.5t39 31t10.5 68.5v296h48v-295q0 -33 -7 -68q25 -21 54 -31t70 -10h39z" />
    <glyph glyph-name="uniFB62" unicode="&#x67f;" horiz-adv-x="811" arabic-form="isolated" 
d="M338.5 723q11.5 12 28.5 12t29 -12t12 -29t-12 -28.5t-29 -11.5t-28.5 11.5t-11.5 28.5t11.5 29zM451.5 723q11.5 12 28.5 12t29 -12t12 -29t-12 -28.5t-29 -11.5t-28.5 11.5t-11.5 28.5t11.5 29zM338.5 613q11.5 12 28.5 12t29 -12t12 -29t-12 -28.5t-29 -11.5
t-28.5 11.5t-11.5 28.5t11.5 29zM451.5 613q11.5 12 28.5 12t29 -12t12 -29t-12 -28.5t-29 -11.5t-28.5 11.5t-11.5 28.5t11.5 29zM100 224q0 -83 42.5 -123t99 -49.5t135.5 -9.5h166q85 0 118.5 34.5t33.5 103.5v266h48v-283q0 -163 -195 -163h-200q-132 0 -212.5 46
t-80.5 178q0 41 22 131l42 -11q-19 -78 -19 -120z" />
    <glyph glyph-name="uniFB63" unicode="&#x67f;" horiz-adv-x="865" arabic-form="final" 
d="M342.5 665.5q-11.5 11.5 -11.5 28.5t11.5 29t28.5 12t29 -12t12 -29t-12 -28.5t-29 -11.5t-28.5 11.5zM455.5 665.5q-11.5 11.5 -11.5 28.5t11.5 29t28.5 12t29 -12t12 -29t-12 -28.5t-29 -11.5t-28.5 11.5zM342.5 555.5q-11.5 11.5 -11.5 28.5t11.5 29t28.5 12t29 -12
t12 -29t-12 -28.5t-29 -11.5t-28.5 11.5zM455.5 555.5q-11.5 11.5 -11.5 28.5t11.5 29t28.5 12t29 -12t12 -29t-12 -28.5t-29 -11.5t-28.5 11.5zM874 42v-42h-15q-38 0 -73.5 12.5t-63.5 38.5q-18 -28 -56.5 -39.5t-109.5 -11.5h-208q-132 0 -212.5 46t-80.5 178
q0 41 22 131q9 -2 20.5 -6t20.5 -6q-18 -65 -18 -119q0 -83 42.5 -123t98.5 -49.5t136 -9.5h181q59 0 87.5 8.5t39 31t10.5 68.5v296h48v-295q0 -33 -7 -68q25 -21 54 -31t70 -10h14z" />
    <glyph glyph-name="uniFB64" unicode="&#x67f;" horiz-adv-x="289" arabic-form="initial" 
d="M101.5 723q11.5 12 28.5 12t29 -12t12 -29t-12 -28.5t-29 -11.5t-28.5 11.5t-11.5 28.5t11.5 29zM214.5 723q11.5 12 28.5 12t29 -12t12 -29t-12 -28.5t-29 -11.5t-28.5 11.5t-11.5 28.5t11.5 29zM101.5 613q11.5 12 28.5 12t29 -12t12 -29t-12 -28.5t-29 -11.5
t-28.5 11.5t-11.5 28.5t11.5 29zM214.5 613q11.5 12 28.5 12t29 -12t12 -29t-12 -28.5t-29 -11.5t-28.5 11.5t-11.5 28.5t11.5 29zM-9 42h30q85 0 118.5 34.5t33.5 103.5v266h48v-283q0 -163 -195 -163h-35v42z" />
    <glyph glyph-name="uniFB65" unicode="&#x67f;" horiz-adv-x="389" arabic-form="medial" 
d="M130.5 665.5q-11.5 11.5 -11.5 28.5t11.5 29t28.5 12t29 -12t12 -29t-12 -28.5t-29 -11.5t-28.5 11.5zM243.5 665.5q-11.5 11.5 -11.5 28.5t11.5 29t28.5 12t29 -12t12 -29t-12 -28.5t-29 -11.5t-28.5 11.5zM130.5 555.5q-11.5 11.5 -11.5 28.5t11.5 29t28.5 12t29 -12
t12 -29t-12 -28.5t-29 -11.5t-28.5 11.5zM243.5 555.5q-11.5 11.5 -11.5 28.5t11.5 29t28.5 12t29 -12t12 -29t-12 -28.5t-29 -11.5t-28.5 11.5zM398 42v-42h-40q-38 0 -73.5 12.5t-63.5 38.5q-18 -28 -56.5 -39.5t-109.5 -11.5h-64v42h66q59 0 87.5 8.5t39 31t10.5 68.5
v296h48v-295q0 -33 -7 -68q25 -21 54 -31t70 -10h39z" />
    <glyph glyph-name="uniFB66" unicode="&#x679;" horiz-adv-x="810" arabic-form="isolated" 
d="M306 575h20v167h26v-95q4 3 19.5 13.5t40.5 20.5t51 10q24 0 41.5 -18t17.5 -46q0 -33 -16 -58.5t-58 -25.5h-142v32zM483.5 651.5q-10.5 9.5 -34.5 9.5t-45.5 -11.5t-36.5 -25.5t-15 -15v-34h97q23 0 34 13t11 33q0 21 -10.5 30.5zM100 224q0 -83 42.5 -123t99 -49.5
t135.5 -9.5h166q85 0 118.5 34.5t33.5 103.5v266h48v-283q0 -163 -195 -163h-200q-132 0 -212.5 46t-80.5 178q0 41 22 131l42 -11q-19 -78 -19 -120z" />
    <glyph glyph-name="uniFB67" unicode="&#x679;" horiz-adv-x="865" arabic-form="final" 
d="M528 568.5q-16 -25.5 -58 -25.5h-142v32h20v167h26v-95q4 3 19.5 13.5t40.5 20.5t51 10q24 0 41.5 -18t17.5 -46q0 -33 -16 -58.5zM374 575h97q23 0 34 13t11 33q0 21 -10.5 30.5t-34.5 9.5t-45.5 -11.5t-36.5 -25.5t-15 -15v-34zM874 42v-42h-15q-38 0 -73.5 12.5
t-63.5 38.5q-18 -28 -56.5 -39.5t-109.5 -11.5h-208q-132 0 -212.5 46t-80.5 178q0 41 22 131q9 -2 20.5 -6t20.5 -6q-18 -65 -18 -119q0 -83 42.5 -123t98.5 -49.5t136 -9.5h181q59 0 87.5 8.5t39 31t10.5 68.5v296h48v-295q0 -33 -7 -68q25 -21 54 -31t70 -10h14z" />
    <glyph glyph-name="uniFB68" unicode="&#x679;" horiz-adv-x="289" arabic-form="initial" 
d="M70 575h20v167h26v-95q4 3 19.5 13.5t40.5 20.5t51 10q24 0 41.5 -18t17.5 -46q0 -33 -16 -58.5t-58 -25.5h-142v32zM247.5 651.5q-10.5 9.5 -34.5 9.5t-45.5 -11.5t-36.5 -25.5t-15 -15v-34h97q23 0 34 13t11 33q0 21 -10.5 30.5zM-9 42h30q85 0 118.5 34.5t33.5 103.5
v266h48v-283q0 -163 -195 -163h-35v42z" />
    <glyph glyph-name="uniFB69" unicode="&#x679;" horiz-adv-x="389" arabic-form="medial" 
d="M303 568.5q-16 -25.5 -58 -25.5h-142v32h20v167h26v-95q4 3 19.5 13.5t40.5 20.5t51 10q24 0 41.5 -18t17.5 -46q0 -33 -16 -58.5zM149 575h97q23 0 34 13t11 33q0 21 -10.5 30.5t-34.5 9.5t-45.5 -11.5t-36.5 -25.5t-15 -15v-34zM398 42v-42h-40q-38 0 -73.5 12.5
t-63.5 38.5q-18 -28 -56.5 -39.5t-109.5 -11.5h-64v42h66q59 0 87.5 8.5t39 31t10.5 68.5v296h48v-295q0 -33 -7 -68q25 -21 54 -31t70 -10h39z" />
    <glyph glyph-name="uniFB6A" unicode="&#x6a4;" horiz-adv-x="929" arabic-form="isolated" 
d="M672.5 713q11.5 12 28.5 12t29 -12t12 -29t-12 -28.5t-29 -11.5t-28.5 11.5t-11.5 28.5t11.5 29zM613.5 603q11.5 12 28.5 12t29 -12t12 -29t-12 -28.5t-29 -11.5t-28.5 11.5t-11.5 28.5t11.5 29zM726.5 603q11.5 12 28.5 12t29 -12t12 -29t-12 -28.5t-29 -11.5
t-28.5 11.5t-11.5 28.5t11.5 29zM135.5 46q-80.5 46 -80.5 178q0 41 22 131l42 -11q-19 -78 -19 -120q0 -83 42.5 -123t99 -49.5t135.5 -9.5h187q-64 64 -64 170q0 62 21.5 117t66.5 89t112 34q87 0 128 -64t41 -168v-220h-521q-132 0 -212.5 46zM576.5 93
q31.5 -51 93.5 -51h151v195q0 52 -8.5 89.5t-36.5 62.5t-83 25q-48 0 -81.5 -28t-50 -73.5t-16.5 -97.5q0 -71 31.5 -122z" />
    <glyph glyph-name="uniFB6B" unicode="&#x6a4;" horiz-adv-x="927" arabic-form="final" 
d="M671.5 713q11.5 12 28.5 12t29 -12t12 -29t-12 -28.5t-29 -11.5t-28.5 11.5t-11.5 28.5t11.5 29zM612.5 603q11.5 12 28.5 12t29 -12t12 -29t-12 -28.5t-29 -11.5t-28.5 11.5t-11.5 28.5t11.5 29zM725.5 603q11.5 12 28.5 12t29 -12t12 -29t-12 -28.5t-29 -11.5
t-28.5 11.5t-11.5 28.5t11.5 29zM135.5 46q-80.5 46 -80.5 178q0 41 22 131l42 -11q-19 -78 -19 -120q0 -83 42.5 -123t99 -49.5t135.5 -9.5h187q-64 64 -64 170q0 62 21.5 117t66.5 89t112 34q87 0 128 -64t41 -168v-178h67v-42h-588q-132 0 -212.5 46zM576.5 93
q31.5 -51 93.5 -51h151v195q0 52 -8.5 89.5t-36.5 62.5t-83 25q-48 0 -81.5 -28t-50 -73.5t-16.5 -97.5q0 -71 31.5 -122z" />
    <glyph glyph-name="uniFB6C" unicode="&#x6a4;" horiz-adv-x="484" arabic-form="initial" 
d="M231.5 713q11.5 12 28.5 12t29 -12t12 -29t-12 -28.5t-29 -11.5t-28.5 11.5t-11.5 28.5t11.5 29zM172.5 603q11.5 12 28.5 12t29 -12t12 -29t-12 -28.5t-29 -11.5t-28.5 11.5t-11.5 28.5t11.5 29zM285.5 603q11.5 12 28.5 12t29 -12t12 -29t-12 -28.5t-29 -11.5
t-28.5 11.5t-11.5 28.5t11.5 29zM125 42q-64 64 -64 170q0 62 21.5 117t66.5 89t112 34q87 0 128 -64t41 -168v-220h-439v42h134zM137.5 93q31.5 -51 93.5 -51h151v195q0 52 -8.5 89.5t-36.5 62.5t-83 25q-48 0 -81.5 -28t-50 -73.5t-16.5 -97.5q0 -71 31.5 -122z" />
    <glyph glyph-name="uniFB6D" unicode="&#x6a4;" horiz-adv-x="486" arabic-form="medial" 
d="M228.5 713q11.5 12 28.5 12t29 -12t12 -29t-12 -28.5t-29 -11.5t-28.5 11.5t-11.5 28.5t11.5 29zM169.5 603q11.5 12 28.5 12t29 -12t12 -29t-12 -28.5t-29 -11.5t-28.5 11.5t-11.5 28.5t11.5 29zM282.5 603q11.5 12 28.5 12t29 -12t12 -29t-12 -28.5t-29 -11.5
t-28.5 11.5t-11.5 28.5t11.5 29zM125 42q-64 64 -64 170q0 62 21.5 117t66.5 89t112 34q87 0 128 -64t41 -168v-178h65v-42h-504v42h134zM137.5 93q31.5 -51 93.5 -51h151v195q0 52 -8.5 89.5t-36.5 62.5t-83 25q-48 0 -81.5 -28t-50 -73.5t-16.5 -97.5q0 -71 31.5 -122z
" />
    <glyph glyph-name="uniFB6E" unicode="&#x6a6;" horiz-adv-x="929" arabic-form="isolated" 
d="M615.5 723q11.5 12 28.5 12t29 -12t12 -29t-12 -28.5t-29 -11.5t-28.5 11.5t-11.5 28.5t11.5 29zM728.5 723q11.5 12 28.5 12t29 -12t12 -29t-12 -28.5t-29 -11.5t-28.5 11.5t-11.5 28.5t11.5 29zM615.5 613q11.5 12 28.5 12t29 -12t12 -29t-12 -28.5t-29 -11.5
t-28.5 11.5t-11.5 28.5t11.5 29zM728.5 613q11.5 12 28.5 12t29 -12t12 -29t-12 -28.5t-29 -11.5t-28.5 11.5t-11.5 28.5t11.5 29zM135.5 46q-80.5 46 -80.5 178q0 41 22 131l42 -11q-19 -78 -19 -120q0 -83 42.5 -123t99 -49.5t135.5 -9.5h187q-64 64 -64 170
q0 62 21.5 117t66.5 89t112 34q87 0 128 -64t41 -168v-220h-521q-132 0 -212.5 46zM576.5 93q31.5 -51 93.5 -51h151v195q0 52 -8.5 89.5t-36.5 62.5t-83 25q-48 0 -81.5 -28t-50 -73.5t-16.5 -97.5q0 -71 31.5 -122z" />
    <glyph glyph-name="uniFB6F" unicode="&#x6a6;" horiz-adv-x="927" arabic-form="final" 
d="M615.5 723q11.5 12 28.5 12t29 -12t12 -29t-12 -28.5t-29 -11.5t-28.5 11.5t-11.5 28.5t11.5 29zM728.5 723q11.5 12 28.5 12t29 -12t12 -29t-12 -28.5t-29 -11.5t-28.5 11.5t-11.5 28.5t11.5 29zM615.5 613q11.5 12 28.5 12t29 -12t12 -29t-12 -28.5t-29 -11.5
t-28.5 11.5t-11.5 28.5t11.5 29zM728.5 613q11.5 12 28.5 12t29 -12t12 -29t-12 -28.5t-29 -11.5t-28.5 11.5t-11.5 28.5t11.5 29zM135.5 46q-80.5 46 -80.5 178q0 41 22 131l42 -11q-19 -78 -19 -120q0 -83 42.5 -123t99 -49.5t135.5 -9.5h187q-64 64 -64 170
q0 62 21.5 117t66.5 89t112 34q87 0 128 -64t41 -168v-178h67v-42h-588q-132 0 -212.5 46zM576.5 93q31.5 -51 93.5 -51h151v195q0 52 -8.5 89.5t-36.5 62.5t-83 25q-48 0 -81.5 -28t-50 -73.5t-16.5 -97.5q0 -71 31.5 -122z" />
    <glyph glyph-name="uniFB70" unicode="&#x6a6;" horiz-adv-x="484" arabic-form="initial" 
d="M175.5 723q11.5 12 28.5 12t29 -12t12 -29t-12 -28.5t-29 -11.5t-28.5 11.5t-11.5 28.5t11.5 29zM288.5 723q11.5 12 28.5 12t29 -12t12 -29t-12 -28.5t-29 -11.5t-28.5 11.5t-11.5 28.5t11.5 29zM175.5 613q11.5 12 28.5 12t29 -12t12 -29t-12 -28.5t-29 -11.5
t-28.5 11.5t-11.5 28.5t11.5 29zM288.5 613q11.5 12 28.5 12t29 -12t12 -29t-12 -28.5t-29 -11.5t-28.5 11.5t-11.5 28.5t11.5 29zM125 42q-64 64 -64 170q0 62 21.5 117t66.5 89t112 34q87 0 128 -64t41 -168v-220h-439v42h134zM137.5 93q31.5 -51 93.5 -51h151v195
q0 52 -8.5 89.5t-36.5 62.5t-83 25q-48 0 -81.5 -28t-50 -73.5t-16.5 -97.5q0 -71 31.5 -122z" />
    <glyph glyph-name="uniFB71" unicode="&#x6a6;" horiz-adv-x="486" arabic-form="medial" 
d="M175.5 723q11.5 12 28.5 12t29 -12t12 -29t-12 -28.5t-29 -11.5t-28.5 11.5t-11.5 28.5t11.5 29zM288.5 723q11.5 12 28.5 12t29 -12t12 -29t-12 -28.5t-29 -11.5t-28.5 11.5t-11.5 28.5t11.5 29zM175.5 613q11.5 12 28.5 12t29 -12t12 -29t-12 -28.5t-29 -11.5
t-28.5 11.5t-11.5 28.5t11.5 29zM288.5 613q11.5 12 28.5 12t29 -12t12 -29t-12 -28.5t-29 -11.5t-28.5 11.5t-11.5 28.5t11.5 29zM125 42q-64 64 -64 170q0 62 21.5 117t66.5 89t112 34q87 0 128 -64t41 -168v-178h65v-42h-504v42h134zM137.5 93q31.5 -51 93.5 -51h151v195
q0 52 -8.5 89.5t-36.5 62.5t-83 25q-48 0 -81.5 -28t-50 -73.5t-16.5 -97.5q0 -71 31.5 -122z" />
    <glyph glyph-name="uniFB72" unicode="&#x684;" horiz-adv-x="565" arabic-form="isolated" 
d="M242 451q117 0 175 -43t58 -154v-60q0 -45 14 -85.5t31 -58.5v-50h-322q-74 0 -114 -26.5t-40 -99.5q0 -143 199 -143h32v-41h-11q-122 0 -193 41.5t-71 144.5q0 166 184 166h294q-7 7 -19.5 31t-22 57.5t-9.5 68.5v52q0 60 -12 93.5t-53.5 51.5t-129.5 18
q-59 0 -116 -17l1 39q54 15 125 15zM359.5 -86q11.5 12 28.5 12t29 -12t12 -29t-12 -28.5t-29 -11.5t-28.5 11.5t-11.5 28.5t11.5 29zM360.5 -196q11.5 12 28.5 12t29 -12t12 -29t-12 -28.5t-29 -11.5t-28.5 11.5t-11.5 28.5t11.5 29z" />
    <glyph glyph-name="uniFB73" unicode="&#x684;" horiz-adv-x="572" arabic-form="final" 
d="M198 0q-74 0 -114 -26.5t-40 -99.5q0 -143 199 -143h32v-41h-11q-122 0 -193 41.5t-71 144.5q0 166 184 166h294q-7 7 -19.5 31t-22 57.5t-9.5 68.5v52q0 60 -12 93.5t-54 51.5t-130 18q-58 0 -115 -17l1 39q57 16 125 16q117 0 175 -43.5t58 -154.5v-59q0 -39 10 -74.5
t24 -57t26 -21.5h46v-42h-383zM359.5 -86q11.5 12 28.5 12t29 -12t12 -29t-12 -28.5t-29 -11.5t-28.5 11.5t-11.5 28.5t11.5 29zM360.5 -196q11.5 12 28.5 12t29 -12t12 -29t-12 -28.5t-29 -11.5t-28.5 11.5t-11.5 28.5t11.5 29z" />
    <glyph glyph-name="uniFB74" unicode="&#x684;" horiz-adv-x="519" arabic-form="initial" 
d="M417.5 73q-12.5 24 -22 57.5t-9.5 68.5v52q0 60 -12 93t-54 51.5t-130 18.5q-58 0 -115 -17l1 39q57 16 125 16q117 0 175 -43.5t58 -154.5v-59q0 -46 14 -86.5t31 -58.5v-50h-488v42h446q-7 7 -19.5 31zM210.5 -86q11.5 12 28.5 12t29 -12t12 -29t-12 -28.5t-29 -11.5
t-28.5 11.5t-11.5 28.5t11.5 29zM211.5 -196q11.5 12 28.5 12t29 -12t12 -29t-12 -28.5t-29 -11.5t-28.5 11.5t-11.5 28.5t11.5 29z" />
    <glyph glyph-name="uniFB75" unicode="&#x684;" horiz-adv-x="492" arabic-form="medial" 
d="M-9 0v42h407q-7 7 -19.5 31t-22 57.5t-9.5 68.5v52q0 60 -12 93.5t-54 51.5t-130 18q-58 0 -115 -17l1 39q57 16 125 16q117 0 175 -43.5t58 -154.5v-59q0 -39 10 -74.5t24 -57t26 -21.5h46v-42h-510zM204.5 -86q11.5 12 28.5 12t29 -12t12 -29t-12 -28.5t-29 -11.5
t-28.5 11.5t-11.5 28.5t11.5 29zM205.5 -196q11.5 12 28.5 12t29 -12t12 -29t-12 -28.5t-29 -11.5t-28.5 11.5t-11.5 28.5t11.5 29z" />
    <glyph glyph-name="uniFB76" unicode="&#x683;" horiz-adv-x="565" arabic-form="isolated" 
d="M242 451q117 0 175 -43t58 -154v-60q0 -45 14 -85.5t31 -58.5v-50h-322q-74 0 -114 -26.5t-40 -99.5q0 -143 199 -143h32v-41h-11q-122 0 -193 41.5t-71 144.5q0 166 184 166h294q-7 7 -19.5 31t-22 57.5t-9.5 68.5v52q0 60 -12 93.5t-53.5 51.5t-129.5 18
q-59 0 -116 -17l1 39q54 15 125 15zM303.5 -115q11.5 12 28.5 12t29 -12t12 -29t-12 -28.5t-29 -11.5t-28.5 11.5t-11.5 28.5t11.5 29zM416.5 -115q11.5 12 28.5 12t29 -12t12 -29t-12 -28.5t-29 -11.5t-28.5 11.5t-11.5 28.5t11.5 29z" />
    <glyph glyph-name="uniFB77" unicode="&#x683;" horiz-adv-x="572" arabic-form="final" 
d="M198 0q-74 0 -114 -26.5t-40 -99.5q0 -143 199 -143h32v-41h-11q-122 0 -193 41.5t-71 144.5q0 166 184 166h294q-7 7 -19.5 31t-22 57.5t-9.5 68.5v52q0 60 -12 93.5t-54 51.5t-130 18q-58 0 -115 -17l1 39q57 16 125 16q117 0 175 -43.5t58 -154.5v-59q0 -39 10 -74.5
t24 -57t26 -21.5h46v-42h-383zM298.5 -115q11.5 12 28.5 12t29 -12t12 -29t-12 -28.5t-29 -11.5t-28.5 11.5t-11.5 28.5t11.5 29zM411.5 -115q11.5 12 28.5 12t29 -12t12 -29t-12 -28.5t-29 -11.5t-28.5 11.5t-11.5 28.5t11.5 29z" />
    <glyph glyph-name="uniFB78" unicode="&#x683;" horiz-adv-x="517" arabic-form="initial" 
d="M417.5 73q-12.5 24 -22 57.5t-9.5 68.5v52q0 60 -12 93t-54 51.5t-130 18.5q-58 0 -115 -17l1 39q57 16 125 16q117 0 175 -43.5t58 -154.5v-59q0 -46 14 -86.5t31 -58.5v-50h-488v42h446q-7 7 -19.5 31zM162.5 -115q11.5 12 28.5 12t29 -12t12 -29t-12 -28.5t-29 -11.5
t-28.5 11.5t-11.5 28.5t11.5 29zM275.5 -115q11.5 12 28.5 12t29 -12t12 -29t-12 -28.5t-29 -11.5t-28.5 11.5t-11.5 28.5t11.5 29z" />
    <glyph glyph-name="uniFB79" unicode="&#x683;" horiz-adv-x="492" arabic-form="medial" 
d="M-9 0v42h407q-7 7 -19.5 31t-22 57.5t-9.5 68.5v52q0 60 -12 93.5t-54 51.5t-130 18q-58 0 -115 -17l1 39q57 16 125 16q117 0 175 -43.5t58 -154.5v-59q0 -39 10 -74.5t24 -57t26 -21.5h46v-42h-510zM162.5 -115q11.5 12 28.5 12t29 -12t12 -29t-12 -28.5t-29 -11.5
t-28.5 11.5t-11.5 28.5t11.5 29zM275.5 -115q11.5 12 28.5 12t29 -12t12 -29t-12 -28.5t-29 -11.5t-28.5 11.5t-11.5 28.5t11.5 29z" />
    <glyph glyph-name="uniFB7A" unicode="&#x686;" horiz-adv-x="565" arabic-form="isolated" 
d="M242 451q117 0 175 -43t58 -154v-60q0 -45 14 -85.5t31 -58.5v-50h-322q-74 0 -114 -26.5t-40 -99.5q0 -143 199 -143h32v-41h-11q-122 0 -193 41.5t-71 144.5q0 166 184 166h294q-7 7 -19.5 31t-22 57.5t-9.5 68.5v52q0 60 -12 93.5t-53.5 51.5t-129.5 18
q-59 0 -116 -17l1 39q54 15 125 15zM311.5 -105.5q11.5 11.5 28.5 11.5t29 -11.5t12 -28.5t-12 -29t-29 -12t-28.5 12t-11.5 29t11.5 28.5zM424.5 -105.5q11.5 11.5 28.5 11.5t29 -11.5t12 -28.5t-12 -29t-29 -12t-28.5 12t-11.5 29t11.5 28.5zM370.5 -215.5
q11.5 11.5 28.5 11.5t29 -11.5t12 -28.5t-12 -29t-29 -12t-28.5 12t-11.5 29t11.5 28.5z" />
    <glyph glyph-name="uniFB7B" unicode="&#x686;" horiz-adv-x="572" arabic-form="final" 
d="M198 0q-74 0 -114 -26.5t-40 -99.5q0 -143 199 -143h32v-41h-11q-122 0 -193 41.5t-71 144.5q0 166 184 166h294q-7 7 -19.5 31t-22 57.5t-9.5 68.5v52q0 60 -12 93.5t-54 51.5t-130 18q-58 0 -115 -17l1 39q57 16 125 16q117 0 175 -43.5t58 -154.5v-59q0 -39 10 -74.5
t24 -57t26 -21.5h46v-42h-383zM311.5 -105.5q11.5 11.5 28.5 11.5t29 -11.5t12 -28.5t-12 -29t-29 -12t-28.5 12t-11.5 29t11.5 28.5zM424.5 -105.5q11.5 11.5 28.5 11.5t29 -11.5t12 -28.5t-12 -29t-29 -12t-28.5 12t-11.5 29t11.5 28.5zM370.5 -215.5q11.5 11.5 28.5 11.5
t29 -11.5t12 -28.5t-12 -29t-29 -12t-28.5 12t-11.5 29t11.5 28.5z" />
    <glyph glyph-name="uniFB7C" unicode="&#x686;" horiz-adv-x="516" arabic-form="initial" 
d="M417.5 73q-12.5 24 -22 57.5t-9.5 68.5v52q0 60 -12 93t-54 51.5t-130 18.5q-58 0 -115 -17l1 39q57 16 125 16q117 0 175 -43.5t58 -154.5v-59q0 -46 14 -86.5t31 -58.5v-50h-488v42h446q-7 7 -19.5 31zM142.5 -105.5q11.5 11.5 28.5 11.5t29 -11.5t12 -28.5t-12 -29
t-29 -12t-28.5 12t-11.5 29t11.5 28.5zM255.5 -105.5q11.5 11.5 28.5 11.5t29 -11.5t12 -28.5t-12 -29t-29 -12t-28.5 12t-11.5 29t11.5 28.5zM201.5 -215.5q11.5 11.5 28.5 11.5t29 -11.5t12 -28.5t-12 -29t-29 -12t-28.5 12t-11.5 29t11.5 28.5z" />
    <glyph glyph-name="uniFB7D" unicode="&#x686;" horiz-adv-x="492" arabic-form="medial" 
d="M-9 0v42h407q-7 7 -19.5 31t-22 57.5t-9.5 68.5v52q0 60 -12 93.5t-54 51.5t-130 18q-58 0 -115 -17l1 39q57 16 125 16q117 0 175 -43.5t58 -154.5v-59q0 -39 10 -74.5t24 -57t26 -21.5h46v-42h-510zM142.5 -105.5q11.5 11.5 28.5 11.5t29 -11.5t12 -28.5t-12 -29
t-29 -12t-28.5 12t-11.5 29t11.5 28.5zM255.5 -105.5q11.5 11.5 28.5 11.5t29 -11.5t12 -28.5t-12 -29t-29 -12t-28.5 12t-11.5 29t11.5 28.5zM201.5 -215.5q11.5 11.5 28.5 11.5t29 -11.5t12 -28.5t-12 -29t-29 -12t-28.5 12t-11.5 29t11.5 28.5z" />
    <glyph glyph-name="uniFB7E" unicode="&#x687;" horiz-adv-x="565" arabic-form="isolated" 
d="M242 451q117 0 175 -43t58 -154v-60q0 -45 14 -85.5t31 -58.5v-50h-322q-74 0 -114 -26.5t-40 -99.5q0 -143 199 -143h32v-41h-11q-122 0 -193 41.5t-71 144.5q0 166 184 166h294q-7 7 -19.5 31t-22 57.5t-9.5 68.5v52q0 60 -12 93.5t-53.5 51.5t-129.5 18
q-59 0 -116 -17l1 39q54 15 125 15zM331.5 -109q11.5 12 28.5 12t29 -12t12 -29t-12 -28.5t-29 -11.5t-28.5 11.5t-11.5 28.5t11.5 29zM444.5 -109q11.5 12 28.5 12t29 -12t12 -29t-12 -28.5t-29 -11.5t-28.5 11.5t-11.5 28.5t11.5 29zM331.5 -219q11.5 12 28.5 12t29 -12
t12 -29t-12 -28.5t-29 -11.5t-28.5 11.5t-11.5 28.5t11.5 29zM444.5 -219q11.5 12 28.5 12t29 -12t12 -29t-12 -28.5t-29 -11.5t-28.5 11.5t-11.5 28.5t11.5 29z" />
    <glyph glyph-name="uniFB7F" unicode="&#x687;" horiz-adv-x="572" arabic-form="final" 
d="M198 0q-74 0 -114 -26.5t-40 -99.5q0 -143 199 -143h32v-41h-11q-122 0 -193 41.5t-71 144.5q0 166 184 166h294q-7 7 -19.5 31t-22 57.5t-9.5 68.5v52q0 60 -12 93.5t-54 51.5t-130 18q-58 0 -115 -17l1 39q57 16 125 16q117 0 175 -43.5t58 -154.5v-59q0 -39 10 -74.5
t24 -57t26 -21.5h46v-42h-383zM343.5 -109q11.5 12 28.5 12t29 -12t12 -29t-12 -28.5t-29 -11.5t-28.5 11.5t-11.5 28.5t11.5 29zM456.5 -109q11.5 12 28.5 12t29 -12t12 -29t-12 -28.5t-29 -11.5t-28.5 11.5t-11.5 28.5t11.5 29zM343.5 -219q11.5 12 28.5 12t29 -12t12 -29
t-12 -28.5t-29 -11.5t-28.5 11.5t-11.5 28.5t11.5 29zM456.5 -219q11.5 12 28.5 12t29 -12t12 -29t-12 -28.5t-29 -11.5t-28.5 11.5t-11.5 28.5t11.5 29z" />
    <glyph glyph-name="uniFB80" unicode="&#x687;" horiz-adv-x="517" arabic-form="initial" 
d="M417.5 73q-12.5 24 -22 57.5t-9.5 68.5v52q0 60 -12 93t-54 51.5t-130 18.5q-58 0 -115 -17l1 39q57 16 125 16q117 0 175 -43.5t58 -154.5v-59q0 -46 14 -86.5t31 -58.5v-50h-488v42h446q-7 7 -19.5 31zM164.5 -109q11.5 12 28.5 12t29 -12t12 -29t-12 -28.5t-29 -11.5
t-28.5 11.5t-11.5 28.5t11.5 29zM277.5 -109q11.5 12 28.5 12t29 -12t12 -29t-12 -28.5t-29 -11.5t-28.5 11.5t-11.5 28.5t11.5 29zM164.5 -219q11.5 12 28.5 12t29 -12t12 -29t-12 -28.5t-29 -11.5t-28.5 11.5t-11.5 28.5t11.5 29zM277.5 -219q11.5 12 28.5 12t29 -12
t12 -29t-12 -28.5t-29 -11.5t-28.5 11.5t-11.5 28.5t11.5 29z" />
    <glyph glyph-name="uniFB81" unicode="&#x687;" horiz-adv-x="492" arabic-form="medial" 
d="M-9 0v42h407q-7 7 -19.5 31t-22 57.5t-9.5 68.5v52q0 60 -12 93.5t-54 51.5t-130 18q-58 0 -115 -17l1 39q57 16 125 16q117 0 175 -43.5t58 -154.5v-59q0 -39 10 -74.5t24 -57t26 -21.5h46v-42h-510zM151.5 -109q11.5 12 28.5 12t29 -12t12 -29t-12 -28.5t-29 -11.5
t-28.5 11.5t-11.5 28.5t11.5 29zM264.5 -109q11.5 12 28.5 12t29 -12t12 -29t-12 -28.5t-29 -11.5t-28.5 11.5t-11.5 28.5t11.5 29zM151.5 -219q11.5 12 28.5 12t29 -12t12 -29t-12 -28.5t-29 -11.5t-28.5 11.5t-11.5 28.5t11.5 29zM264.5 -219q11.5 12 28.5 12t29 -12
t12 -29t-12 -28.5t-29 -11.5t-28.5 11.5t-11.5 28.5t11.5 29z" />
    <glyph glyph-name="uniFB82" unicode="&#x68d;" horiz-adv-x="461" arabic-form="isolated" 
d="M344 67.5q29 25.5 29 65.5q0 48 -68 130t-145 145l32 39q82 -67 155.5 -157t73.5 -150q0 -140 -166 -140h-214v42h203q71 0 100 25.5zM142.5 -115q11.5 12 28.5 12t29 -12t12 -29t-12 -28.5t-29 -11.5t-28.5 11.5t-11.5 28.5t11.5 29zM255.5 -115q11.5 12 28.5 12t29 -12
t12 -29t-12 -28.5t-29 -11.5t-28.5 11.5t-11.5 28.5t11.5 29z" />
    <glyph glyph-name="uniFB83" unicode="&#x68d;" horiz-adv-x="527" arabic-form="final" 
d="M458.5 12.5q-35.5 12.5 -63.5 35.5q-53 -48 -141 -48h-213v42h203q71 0 100 25.5t29 65.5q0 48 -68 130t-145 145l32 39q83 -68 156 -157.5t73 -149.5q0 -31 -9 -63q45 -35 108 -35h16v-42h-16q-26 0 -61.5 12.5zM142.5 -115q11.5 12 28.5 12t29 -12t12 -29t-12 -28.5
t-29 -11.5t-28.5 11.5t-11.5 28.5t11.5 29zM255.5 -115q11.5 12 28.5 12t29 -12t12 -29t-12 -28.5t-29 -11.5t-28.5 11.5t-11.5 28.5t11.5 29z" />
    <glyph glyph-name="uniFB84" unicode="&#x68c;" horiz-adv-x="461" arabic-form="isolated" 
d="M105.5 650q11.5 12 28.5 12t29 -12t12 -29t-12 -28.5t-29 -11.5t-28.5 11.5t-11.5 28.5t11.5 29zM218.5 650q11.5 12 28.5 12t29 -12t12 -29t-12 -28.5t-29 -11.5t-28.5 11.5t-11.5 28.5t11.5 29zM344 67.5q29 25.5 29 65.5q0 48 -68 130t-145 145l32 39
q82 -67 155.5 -157t73.5 -150q0 -140 -166 -140h-214v42h203q71 0 100 25.5z" />
    <glyph glyph-name="uniFB85" unicode="&#x68c;" horiz-adv-x="527" arabic-form="final" 
d="M105.5 650q11.5 12 28.5 12t29 -12t12 -29t-12 -28.5t-29 -11.5t-28.5 11.5t-11.5 28.5t11.5 29zM218.5 650q11.5 12 28.5 12t29 -12t12 -29t-12 -28.5t-29 -11.5t-28.5 11.5t-11.5 28.5t11.5 29zM458.5 12.5q-35.5 12.5 -63.5 35.5q-53 -48 -141 -48h-213v42h203
q71 0 100 25.5t29 65.5q0 48 -68 130t-145 145l32 39q83 -68 156 -157.5t73 -149.5q0 -31 -9 -63q45 -35 108 -35h16v-42h-16q-26 0 -61.5 12.5z" />
    <glyph glyph-name="uniFB86" unicode="&#x68e;" horiz-adv-x="461" arabic-form="isolated" 
d="M141.5 713q11.5 12 28.5 12t29 -12t12 -29t-12 -28.5t-29 -11.5t-28.5 11.5t-11.5 28.5t11.5 29zM82.5 603q11.5 12 28.5 12t29 -12t12 -29t-12 -28.5t-29 -11.5t-28.5 11.5t-11.5 28.5t11.5 29zM195.5 603q11.5 12 28.5 12t29 -12t12 -29t-12 -28.5t-29 -11.5
t-28.5 11.5t-11.5 28.5t11.5 29zM344 67.5q29 25.5 29 65.5q0 48 -68 130t-145 145l32 39q82 -67 155.5 -157t73.5 -150q0 -140 -166 -140h-214v42h203q71 0 100 25.5z" />
    <glyph glyph-name="uniFB87" unicode="&#x68e;" horiz-adv-x="527" arabic-form="final" 
d="M150.5 713q11.5 12 28.5 12t29 -12t12 -29t-12 -28.5t-29 -11.5t-28.5 11.5t-11.5 28.5t11.5 29zM91.5 603q11.5 12 28.5 12t29 -12t12 -29t-12 -28.5t-29 -11.5t-28.5 11.5t-11.5 28.5t11.5 29zM204.5 603q11.5 12 28.5 12t29 -12t12 -29t-12 -28.5t-29 -11.5
t-28.5 11.5t-11.5 28.5t11.5 29zM458.5 12.5q-35.5 12.5 -63.5 35.5q-53 -48 -141 -48h-213v42h203q71 0 100 25.5t29 65.5q0 48 -68 130t-145 145l32 39q83 -68 156 -157.5t73 -149.5q0 -31 -9 -63q45 -35 108 -35h16v-42h-16q-26 0 -61.5 12.5z" />
    <glyph glyph-name="uniFB88" unicode="&#x688;" horiz-adv-x="461" arabic-form="isolated" 
d="M95 575h20v167h26v-95q4 3 19.5 13.5t40.5 20.5t51 10q24 0 41.5 -18t17.5 -46q0 -33 -16 -58.5t-58 -25.5h-142v32zM272.5 651.5q-10.5 9.5 -34.5 9.5t-45.5 -11.5t-36.5 -25.5t-15 -15v-34h97q23 0 34 13t11 33q0 21 -10.5 30.5zM344 67.5q29 25.5 29 65.5
q0 48 -68 130t-145 145l32 39q82 -67 155.5 -157t73.5 -150q0 -140 -166 -140h-214v42h203q71 0 100 25.5z" />
    <glyph glyph-name="uniFB89" unicode="&#x688;" horiz-adv-x="527" arabic-form="final" 
d="M95 575h20v167h26v-95q4 3 19.5 13.5t40.5 20.5t51 10q24 0 41.5 -18t17.5 -46q0 -33 -16 -58.5t-58 -25.5h-142v32zM272.5 651.5q-10.5 9.5 -34.5 9.5t-45.5 -11.5t-36.5 -25.5t-15 -15v-34h97q23 0 34 13t11 33q0 21 -10.5 30.5zM458.5 12.5q-35.5 12.5 -63.5 35.5
q-53 -48 -141 -48h-213v42h203q71 0 100 25.5t29 65.5q0 48 -68 130t-145 145l32 39q83 -68 156 -157.5t73 -149.5q0 -31 -9 -63q45 -35 108 -35h16v-42h-16q-26 0 -61.5 12.5z" />
    <glyph glyph-name="uniFB8A" unicode="&#x698;" horiz-adv-x="257" arabic-form="isolated" 
d="M135.5 713q11.5 12 28.5 12t29 -12t12 -29t-12 -28.5t-29 -11.5t-28.5 11.5t-11.5 28.5t11.5 29zM76.5 603q11.5 12 28.5 12t29 -12t12 -29t-12 -28.5t-29 -11.5t-28.5 11.5t-11.5 28.5t11.5 29zM189.5 603q11.5 12 28.5 12t29 -12t12 -29t-12 -28.5t-29 -11.5
t-28.5 11.5t-11.5 28.5t11.5 29zM-37 -203q178 0 178 195v395h48v-355q0 -160 -64 -220q-62 -56 -166 -56q-25 0 -33 1l12 41q9 -1 25 -1z" />
    <glyph glyph-name="uniFB8B" unicode="&#x698;" horiz-adv-x="284" arabic-form="final" 
d="M135.5 713q11.5 12 28.5 12t29 -12t12 -29t-12 -28.5t-29 -11.5t-28.5 11.5t-11.5 28.5t11.5 29zM76.5 603q11.5 12 28.5 12t29 -12t12 -29t-12 -28.5t-29 -11.5t-28.5 11.5t-11.5 28.5t11.5 29zM189.5 603q11.5 12 28.5 12t29 -12t12 -29t-12 -28.5t-29 -11.5
t-28.5 11.5t-11.5 28.5t11.5 29zM-37 -203q178 0 178 195v395h48v-345h104v-42h-105q-6 -134 -63 -188q-62 -56 -166 -56q-25 0 -33 1l12 41q9 -1 25 -1z" />
    <glyph glyph-name="uniFB8C" unicode="&#x691;" horiz-adv-x="257" arabic-form="isolated" 
d="M58 575h20v167h26v-95q4 3 19.5 13.5t40.5 20.5t51 10q24 0 41.5 -18t17.5 -46q0 -33 -16 -58.5t-58 -25.5h-142v32zM235.5 651.5q-10.5 9.5 -34.5 9.5t-45.5 -11.5t-36.5 -25.5t-15 -15v-34h97q23 0 34 13t11 33q0 21 -10.5 30.5zM-37 -203q178 0 178 195v395h48v-355
q0 -160 -64 -220q-62 -56 -166 -56q-25 0 -33 1l12 41q9 -1 25 -1z" />
    <glyph glyph-name="uniFB8D" unicode="&#x691;" horiz-adv-x="284" arabic-form="final" 
d="M58 575h20v167h26v-95q4 3 19.5 13.5t40.5 20.5t51 10q24 0 41.5 -18t17.5 -46q0 -33 -16 -58.5t-58 -25.5h-142v32zM235.5 651.5q-10.5 9.5 -34.5 9.5t-45.5 -11.5t-36.5 -25.5t-15 -15v-34h97q23 0 34 13t11 33q0 21 -10.5 30.5zM-37 -203q178 0 178 195v395h48v-345
h104v-42h-105q-6 -134 -63 -188q-62 -56 -166 -56q-25 0 -33 1l12 41q9 -1 25 -1z" />
    <glyph glyph-name="uniFB8E" unicode="&#x6a9;" horiz-adv-x="762" arabic-form="isolated" 
d="M135.5 46q-80.5 46 -80.5 178q0 41 22 131q9 -2 20.5 -6t20.5 -6q-18 -65 -18 -119q0 -83 42.5 -123t98.5 -49.5t136 -9.5h279v115q0 60 -12 93.5t-53.5 51.5t-129.5 18h-128l-23 38l309 318l32 -29l-280 -289h100q82 0 132.5 -17.5t75.5 -60.5t25 -120v-160h-356
q-132 0 -212.5 46z" />
    <glyph glyph-name="uniFB8F" unicode="&#x6a9;" horiz-adv-x="745" arabic-form="final" 
d="M135.5 46q-80.5 46 -80.5 178q0 41 22 131q9 -2 20.5 -6t20.5 -6q-18 -65 -18 -119q0 -83 42.5 -123t98.5 -49.5t136 -9.5h279v115q0 60 -12 93.5t-53.5 51.5t-129.5 18h-128l-23 38l309 318l32 -29l-280 -289h100q82 0 132.5 -17.5t75.5 -60.5t25 -120v-118h50v-42h-406
q-132 0 -212.5 46z" />
    <glyph glyph-name="uniFB90" unicode="&#x6a9;" horiz-adv-x="499" arabic-form="initial" 
d="M108 358h100q82 0 132.5 -17.5t75.5 -60.5t25 -120v-160h-450v42h402v115q0 60 -12 93.5t-53.5 51.5t-129.5 18h-128l-23 38l309 318l32 -29z" />
    <glyph glyph-name="uniFB91" unicode="&#x6a9;" horiz-adv-x="482" arabic-form="medial" 
d="M-9 0v42h402v115q0 60 -12 93.5t-53.5 51.5t-129.5 18h-128l-23 38l309 318l32 -29l-280 -289h100q82 0 132.5 -17.5t75.5 -60.5t25 -120v-118h50v-42h-500z" />
    <glyph glyph-name="uniFB92" unicode="&#x6af;" horiz-adv-x="762" arabic-form="isolated" 
d="M449 642l103 106l27 -25l-206 -212l-106 -109l-28 24zM135.5 46q-80.5 46 -80.5 178q0 41 22 131q9 -2 20.5 -6t20.5 -6q-18 -65 -18 -119q0 -83 42.5 -123t98.5 -49.5t136 -9.5h279v115q0 60 -12 93.5t-53.5 51.5t-129.5 18h-128l-23 38l309 318l32 -29l-280 -289h100
q82 0 132.5 -17.5t75.5 -60.5t25 -120v-160h-356q-132 0 -212.5 46z" />
    <glyph glyph-name="uniFB93" unicode="&#x6af;" horiz-adv-x="745" arabic-form="final" 
d="M552 748l27 -25l-312 -321l-28 24zM135.5 46q-80.5 46 -80.5 178q0 41 22 131q9 -2 20.5 -6t20.5 -6q-18 -65 -18 -119q0 -83 42.5 -123t98.5 -49.5t136 -9.5h279v115q0 60 -12 93.5t-53.5 51.5t-129.5 18h-128l-23 38l309 318l32 -29l-280 -289h100q82 0 132.5 -17.5
t75.5 -60.5t25 -120v-118h50v-42h-406q-132 0 -212.5 46z" />
    <glyph glyph-name="uniFB94" unicode="&#x6af;" horiz-adv-x="499" arabic-form="initial" 
d="M192 642l103 106l27 -25l-206 -212l-106 -109l-28 24zM108 358h100q82 0 132.5 -17.5t75.5 -60.5t25 -120v-160h-450v42h402v115q0 60 -12 93.5t-53.5 51.5t-129.5 18h-128l-23 38l309 318l32 -29z" />
    <glyph glyph-name="uniFB95" unicode="&#x6af;" horiz-adv-x="482" arabic-form="medial" 
d="M292 748l27 -25l-312 -321l-28 24zM-9 0v42h402v115q0 60 -12 93.5t-53.5 51.5t-129.5 18h-128l-23 38l309 318l32 -29l-280 -289h100q82 0 132.5 -17.5t75.5 -60.5t25 -120v-118h50v-42h-500z" />
    <glyph glyph-name="uniFB96" unicode="&#x6b3;" horiz-adv-x="762" arabic-form="isolated" 
d="M449 642l103 106l27 -25l-206 -212l-106 -109l-28 24zM135.5 46q-80.5 46 -80.5 178q0 41 22 131q9 -2 20.5 -6t20.5 -6q-18 -65 -18 -119q0 -83 42.5 -123t98.5 -49.5t136 -9.5h279v115q0 60 -12 93.5t-53.5 51.5t-129.5 18h-128l-23 38l309 318l32 -29l-280 -289h100
q82 0 132.5 -17.5t75.5 -60.5t25 -120v-160h-356q-132 0 -212.5 46zM400.5 -109q11.5 12 28.5 12t29 -12t12 -29t-12 -28.5t-29 -11.5t-28.5 11.5t-11.5 28.5t11.5 29zM400.5 -219q11.5 12 28.5 12t29 -12t12 -29t-12 -28.5t-29 -11.5t-28.5 11.5t-11.5 28.5t11.5 29z" />
    <glyph glyph-name="uniFB97" unicode="&#x6b3;" horiz-adv-x="745" arabic-form="final" 
d="M552 748l27 -25l-312 -321l-28 24zM135.5 46q-80.5 46 -80.5 178q0 41 22 131q9 -2 20.5 -6t20.5 -6q-18 -65 -18 -119q0 -83 42.5 -123t98.5 -49.5t136 -9.5h279v115q0 60 -12 93.5t-53.5 51.5t-129.5 18h-128l-23 38l309 318l32 -29l-280 -289h100q82 0 132.5 -17.5
t75.5 -60.5t25 -120v-118h50v-42h-406q-132 0 -212.5 46zM400.5 -109q11.5 12 28.5 12t29 -12t12 -29t-12 -28.5t-29 -11.5t-28.5 11.5t-11.5 28.5t11.5 29zM400.5 -219q11.5 12 28.5 12t29 -12t12 -29t-12 -28.5t-29 -11.5t-28.5 11.5t-11.5 28.5t11.5 29z" />
    <glyph glyph-name="uniFB98" unicode="&#x6b3;" horiz-adv-x="499" arabic-form="initial" 
d="M192 642l103 106l27 -25l-206 -212l-106 -109l-28 24zM108 358h100q82 0 132.5 -17.5t75.5 -60.5t25 -120v-160h-450v42h402v115q0 60 -12 93.5t-53.5 51.5t-129.5 18h-128l-23 38l309 318l32 -29zM216.5 -109q11.5 12 28.5 12t29 -12t12 -29t-12 -28.5t-29 -11.5
t-28.5 11.5t-11.5 28.5t11.5 29zM216.5 -219q11.5 12 28.5 12t29 -12t12 -29t-12 -28.5t-29 -11.5t-28.5 11.5t-11.5 28.5t11.5 29z" />
    <glyph glyph-name="uniFB99" unicode="&#x6b3;" horiz-adv-x="482" arabic-form="medial" 
d="M292 748l27 -25l-312 -321l-28 24zM-9 0v42h402v115q0 60 -12 93.5t-53.5 51.5t-129.5 18h-128l-23 38l309 318l32 -29l-280 -289h100q82 0 132.5 -17.5t75.5 -60.5t25 -120v-118h50v-42h-500zM216.5 -109q11.5 12 28.5 12t29 -12t12 -29t-12 -28.5t-29 -11.5t-28.5 11.5
t-11.5 28.5t11.5 29zM216.5 -219q11.5 12 28.5 12t29 -12t12 -29t-12 -28.5t-29 -11.5t-28.5 11.5t-11.5 28.5t11.5 29z" />
    <glyph glyph-name="uniFB9A" unicode="&#x6b1;" horiz-adv-x="762" arabic-form="isolated" 
d="M449 642l103 106l27 -25l-206 -212l-106 -109l-28 24zM135.5 46q-80.5 46 -80.5 178q0 41 22 131q9 -2 20.5 -6t20.5 -6q-18 -65 -18 -119q0 -83 42.5 -123t98.5 -49.5t136 -9.5h279v115q0 60 -12 93.5t-53.5 51.5t-129.5 18h-128l-23 38l309 318l32 -29l-280 -289h100
q82 0 132.5 -17.5t75.5 -60.5t25 -120v-160h-356q-132 0 -212.5 46zM144.5 639q11.5 12 28.5 12t29 -12t12 -29t-12 -28.5t-29 -11.5t-28.5 11.5t-11.5 28.5t11.5 29zM257.5 639q11.5 12 28.5 12t29 -12t12 -29t-12 -28.5t-29 -11.5t-28.5 11.5t-11.5 28.5t11.5 29z" />
    <glyph glyph-name="uniFB9B" unicode="&#x6b1;" horiz-adv-x="745" arabic-form="final" 
d="M552 748l27 -25l-312 -321l-28 24zM135.5 46q-80.5 46 -80.5 178q0 41 22 131q9 -2 20.5 -6t20.5 -6q-18 -65 -18 -119q0 -83 42.5 -123t98.5 -49.5t136 -9.5h279v115q0 60 -12 93.5t-53.5 51.5t-129.5 18h-128l-23 38l309 318l32 -29l-280 -289h100q82 0 132.5 -17.5
t75.5 -60.5t25 -120v-118h50v-42h-406q-132 0 -212.5 46zM155.5 639q11.5 12 28.5 12t29 -12t12 -29t-12 -28.5t-29 -11.5t-28.5 11.5t-11.5 28.5t11.5 29zM268.5 639q11.5 12 28.5 12t29 -12t12 -29t-12 -28.5t-29 -11.5t-28.5 11.5t-11.5 28.5t11.5 29z" />
    <glyph glyph-name="uniFB9C" unicode="&#x6b1;" horiz-adv-x="557" arabic-form="initial" 
d="M250 642l103 106l27 -25l-206 -212l-106 -109l-28 24zM166 358h100q82 0 132.5 -17.5t75.5 -60.5t25 -120v-160h-508v42h460v115q0 60 -12 93.5t-53.5 51.5t-129.5 18h-128l-23 38l309 318l32 -29zM-36.5 639q11.5 12 28.5 12t29 -12t12 -29t-12 -28.5t-29 -11.5
t-28.5 11.5t-11.5 28.5t11.5 29zM76.5 639q11.5 12 28.5 12t29 -12t12 -29t-12 -28.5t-29 -11.5t-28.5 11.5t-11.5 28.5t11.5 29z" />
    <glyph glyph-name="uniFB9D" unicode="&#x6b1;" horiz-adv-x="569" arabic-form="medial" 
d="M379 748l27 -25l-312 -321l-28 24zM-9 0v42h489v115q0 60 -12 93.5t-53.5 51.5t-129.5 18h-128l-23 38l309 318l32 -29l-280 -289h100q82 0 132.5 -17.5t75.5 -60.5t25 -120v-118h50v-42h-587zM-27.5 639q11.5 12 28.5 12t29 -12t12 -29t-12 -28.5t-29 -11.5t-28.5 11.5
t-11.5 28.5t11.5 29zM85.5 639q11.5 12 28.5 12t29 -12t12 -29t-12 -28.5t-29 -11.5t-28.5 11.5t-11.5 28.5t11.5 29z" />
    <glyph glyph-name="uniFB9E" unicode="&#x6ba;" horiz-adv-x="681" arabic-form="isolated" 
d="M613 392v-411q0 -29 -19 -61.5t-67 -56.5t-129 -24h-49q-131 0 -211.5 46t-80.5 177q0 45 18 120.5t37 130.5q14 -4 24 -6l20 -4l-7 -22q-47 -157 -47 -219q0 -83 42.5 -123t98 -49t136.5 -9h36q58 0 104 27t46 85v399h48z" />
    <glyph glyph-name="uniFB9F" unicode="&#x6ba;" horiz-adv-x="727" arabic-form="final" 
d="M594 -80.5q-19 -32.5 -67 -56.5t-129 -24h-49q-131 0 -211.5 46t-80.5 177q0 45 18 120.5t37 130.5q14 -4 24 -6l20 -4l-7 -22q-47 -157 -47 -219q0 -83 42.5 -123t98 -49t136.5 -9h36q58 0 104 27t46 85v399h48v-320q43 -30 107 -30h16v-42h-16q-52 0 -107 32v-51
q0 -29 -19 -61.5z" />
    <glyph glyph-name="uniFBA0" unicode="&#x6bb;" horiz-adv-x="681" arabic-form="isolated" 
d="M271 508h20v167h26v-95q4 3 19.5 13.5t40.5 20.5t51 10q24 0 41.5 -18t17.5 -46q0 -33 -16 -58.5t-58 -25.5h-142v32zM448.5 584.5q-10.5 9.5 -34.5 9.5t-45.5 -11.5t-36.5 -25.5t-15 -15v-34h97q23 0 34 13t11 33q0 21 -10.5 30.5zM613 392v-411q0 -29 -19 -61.5
t-67 -56.5t-129 -24h-49q-131 0 -211.5 46t-80.5 177q0 45 18 120.5t37 130.5q14 -4 24 -6l20 -4l-7 -22q-47 -157 -47 -219q0 -83 42.5 -123t98 -49t136.5 -9h36q58 0 104 27t46 85v399h48z" />
    <glyph glyph-name="uniFBA1" unicode="&#x6bb;" horiz-adv-x="727" arabic-form="final" 
d="M271 508h20v167h26v-95q4 3 19.5 13.5t40.5 20.5t51 10q24 0 41.5 -18t17.5 -46q0 -33 -16 -58.5t-58 -25.5h-142v32zM448.5 584.5q-10.5 9.5 -34.5 9.5t-45.5 -11.5t-36.5 -25.5t-15 -15v-34h97q23 0 34 13t11 33q0 21 -10.5 30.5zM594 -80.5q-19 -32.5 -67 -56.5
t-129 -24h-49q-131 0 -211.5 46t-80.5 177q0 45 18 120.5t37 130.5q14 -4 24 -6l20 -4l-7 -22q-47 -157 -47 -219q0 -83 42.5 -123t98 -49t136.5 -9h36q58 0 104 27t46 85v399h48v-320q43 -30 107 -30h16v-42h-16q-52 0 -107 32v-51q0 -29 -19 -61.5z" />
    <glyph glyph-name="uniFBA2" unicode="&#x6bb;" horiz-adv-x="289" arabic-form="initial" 
d="M75 575h20v167h26v-95q4 3 19.5 13.5t40.5 20.5t51 10q24 0 41.5 -18t17.5 -46q0 -33 -16 -58.5t-58 -25.5h-142v32zM252.5 651.5q-10.5 9.5 -34.5 9.5t-45.5 -11.5t-36.5 -25.5t-15 -15v-34h97q23 0 34 13t11 33q0 21 -10.5 30.5zM-9 42h30q85 0 118.5 34.5t33.5 103.5
v266h48v-283q0 -163 -195 -163h-35v42z" />
    <glyph glyph-name="uniFBA3" unicode="&#x6bb;" horiz-adv-x="389" arabic-form="medial" 
d="M317 568.5q-16 -25.5 -58 -25.5h-142v32h20v167h26v-95q4 3 19.5 13.5t40.5 20.5t51 10q24 0 41.5 -18t17.5 -46q0 -33 -16 -58.5zM163 575h97q23 0 34 13t11 33q0 21 -10.5 30.5t-34.5 9.5t-45.5 -11.5t-36.5 -25.5t-15 -15v-34zM398 42v-42h-40q-38 0 -73.5 12.5
t-63.5 38.5q-18 -28 -56.5 -39.5t-109.5 -11.5h-64v42h66q59 0 87.5 8.5t39 31t10.5 68.5v296h48v-295q0 -33 -7 -68q25 -21 54 -31t70 -10h39z" />
    <glyph glyph-name="uniFBA4" unicode="&#x6c0;" horiz-adv-x="504" arabic-form="isolated" 
d="M162 550v34h49q-13 12 -18 30t-5 32q0 41 25.5 61t64.5 20q28 0 57 -11q-3 -9 -6 -15.5t-5 -11.5q-18 9 -46 9q-24 0 -39 -12.5t-15 -38.5q0 -18 7.5 -35.5t21.5 -27.5h78v-34h-169zM95 54q-57 61 -57 167q0 107 56 169t155 62t155 -62t56 -169q0 -106 -57 -167t-154 -61
t-154 61zM370 83.5q45 51.5 45 139.5q0 92 -43 141t-123 49t-122.5 -49t-42.5 -141q0 -88 44.5 -139.5t120.5 -51.5t121 51.5z" />
    <glyph glyph-name="uniFBA5" unicode="&#x6c0;" horiz-adv-x="533" arabic-form="final" 
d="M155 550v34h49q-13 12 -18 30t-5 32q0 41 25.5 61t64.5 20q28 0 57 -11q-3 -9 -6 -15.5t-5 -11.5q-18 9 -46 9q-24 0 -39 -12.5t-15 -38.5q0 -18 7.5 -35.5t21.5 -27.5h78v-34h-169zM392.5 95.5q10.5 -26.5 40.5 -40t88 -13.5h21v-42h-25q-86 0 -128.5 26.5t-54.5 98.5
q-51 -81 -168 -81q-48 0 -81.5 22t-51 57t-17.5 73q0 73 52.5 130.5t127.5 90.5t138 35v29h48v-311q0 -48 10.5 -74.5zM97 115q35 -33 88 -33q35 0 69.5 16t57 45t22.5 65v209q-58 0 -122 -30t-107 -80t-43 -107q0 -52 35 -85z" />
    <glyph glyph-name="uniFBA6" unicode="&#x6c1;" horiz-adv-x="504" arabic-form="isolated" 
d="M95 54q-57 61 -57 167q0 107 56 169t155 62t155 -62t56 -169q0 -106 -57 -167t-154 -61t-154 61zM370 83.5q45 51.5 45 139.5q0 92 -43 141t-123 49t-122.5 -49t-42.5 -141q0 -88 44.5 -139.5t120.5 -51.5t121 51.5z" />
    <glyph glyph-name="uniFBA7" unicode="&#x6c1;" horiz-adv-x="598" arabic-form="final" 
d="M62.5 130q43.5 59 105 93t116.5 34q51 0 80.5 -14t43 -34.5t26.5 -54.5q15 -37 29.5 -59.5t45.5 -37.5t84 -15h14v-42h-18q-63 0 -100 17.5t-54 41.5t-33 61q-13 31 -24.5 48.5t-32 29t-53.5 11.5q-52 0 -103 -28t-86 -76t-39 -105h-50q5 71 48.5 130z" />
    <glyph glyph-name="uniFBA8" unicode="&#x6c1;" horiz-adv-x="289" arabic-form="initial" 
d="M-9 42h30q85 0 118.5 34.5t33.5 103.5v266h48v-283q0 -139 -142 -160q-20 -37 -32 -88l7 -8q21 0 33 -13t12 -34t-12.5 -34t-33.5 -13q-18 0 -30.5 13.5t-12.5 33.5q0 32 13.5 72t28.5 69q-8 -1 -26 -1h-35v42z" />
    <glyph glyph-name="uniFBA9" unicode="&#x6c1;" horiz-adv-x="462" arabic-form="medial" 
d="M129.5 -247q-35.5 68 -35.5 185q0 11 3 62h-106v42h150v-130q0 -76 20.5 -130.5t76.5 -54.5l14 81q18 107 61.5 170.5t138.5 63.5h19v-42h-26q-48 0 -77 -24t-44 -62.5t-27 -96.5q-20 -92 -27 -132h-40q-65 0 -100.5 68z" />
    <glyph glyph-name="uniFBAA" unicode="&#x6be;" horiz-adv-x="626" arabic-form="isolated" 
d="M57 55q31 -13 49 -13h91q-17 19 -25 46t-8 55q0 40 16.5 76.5t48.5 59.5t76 23q59 0 90 -43.5t31 -111.5v-105h108v156q0 48 -20.5 97t-68.5 83.5t-125 34.5q-80 0 -162 -42l-18 35q39 19 87 32.5t93 13.5q94 0 152.5 -39t84 -100.5t25.5 -132.5v-138l-1 -42h-475
q-30 0 -65.5 16t-55.5 39l24 30q17 -17 48 -30zM222.5 73q20.5 -30 64.5 -31h97v116q0 46 -18 75t-67 29q-43 0 -70 -34.5t-27 -81.5q0 -43 20.5 -73z" />
    <glyph glyph-name="uniFBAB" unicode="&#x6be;" horiz-adv-x="630" arabic-form="final" 
d="M57 55q31 -13 49 -13h91q-17 19 -25 46t-8 55q0 40 16.5 76.5t48.5 59.5t76 23q59 0 90 -43.5t31 -111.5v-105h108v156q0 48 -20.5 97t-68.5 83.5t-125 34.5q-80 0 -162 -42l-18 35q39 19 87 32.5t93 13.5q94 0 152.5 -39t84 -100.5t25.5 -132.5v-138h57v-42h-533
q-30 0 -65.5 16t-55.5 39l24 30q17 -17 48 -30zM222.5 73q20.5 -30 64.5 -31h97v116q0 46 -18 75t-67 29q-43 0 -70 -34.5t-27 -81.5q0 -43 20.5 -73z" />
    <glyph glyph-name="uniFBAC" unicode="&#x6be;" horiz-adv-x="537" arabic-form="initial" 
d="M108 42q-17 19 -25 46t-8 55q0 40 16.5 76.5t48.5 59.5t76 23q59 0 90 -43.5t31 -111.5v-105h108v156q0 48 -20.5 97t-68.5 83.5t-125 34.5q-80 0 -162 -42l-18 35q39 19 87 32.5t93 13.5q94 0 152.5 -39t84 -100.5t25.5 -132.5v-180h-502v42h117zM133.5 73
q20.5 -30 64.5 -31h97v116q0 46 -18 75t-67 29q-43 0 -70 -34.5t-27 -81.5q0 -43 20.5 -73z" />
    <glyph glyph-name="uniFBAD" unicode="&#x6be;" horiz-adv-x="541" arabic-form="medial" 
d="M108 42q-17 19 -25 46t-8 55q0 40 16.5 76.5t48.5 59.5t76 23q59 0 90 -43.5t31 -111.5v-105h108v156q0 48 -20.5 97t-68.5 83.5t-125 34.5q-80 0 -162 -42l-18 35q39 19 87 32.5t93 13.5q94 0 152.5 -39t84 -100.5t25.5 -132.5v-138h57v-42h-559v42h117zM133.5 73
q20.5 -30 64.5 -31h97v116q0 46 -18 75t-67 29q-43 0 -70 -34.5t-27 -81.5q0 -43 20.5 -73z" />
    <glyph glyph-name="uniFBAE" unicode="&#x6d2;" horiz-adv-x="498" arabic-form="isolated" 
d="M248 0q-74 0 -114 -26.5t-40 -99.5q0 -78 53.5 -110t144.5 -32h320v-42h-298q-123 0 -193.5 41t-70.5 145q0 166 184 166h272v-42h-258z" />
    <glyph glyph-name="uniFBAF" unicode="&#x6d2;" horiz-adv-x="497" arabic-form="final" 
d="M248 0q-74 0 -114 -26.5t-40 -99.5q0 -78 53.5 -110t144.5 -32h320v-42h-298q-123 0 -193.5 41t-70.5 145q0 166 184 166h272v-42h-258z" />
    <glyph glyph-name="uniFBB0" unicode="&#x6d3;" horiz-adv-x="498" arabic-form="isolated" 
d="M121 175v34h49q-13 12 -18 30t-5 32q0 41 25.5 61t64.5 20q28 0 57 -11q-3 -9 -6 -15.5t-5 -11.5q-18 9 -46 9q-24 0 -39 -12.5t-15 -38.5q0 -18 7.5 -35.5t21.5 -27.5h78v-34h-169zM248 0q-74 0 -114 -26.5t-40 -99.5q0 -78 53.5 -110t144.5 -32h320v-42h-298
q-123 0 -193.5 41t-70.5 145q0 166 184 166h272v-42h-258z" />
    <glyph glyph-name="uniFBB1" unicode="&#x6d3;" horiz-adv-x="498" arabic-form="final" 
d="M121 175v34h49q-13 12 -18 30t-5 32q0 41 25.5 61t64.5 20q28 0 57 -11q-3 -9 -6 -15.5t-5 -11.5q-18 9 -46 9q-24 0 -39 -12.5t-15 -38.5q0 -18 7.5 -35.5t21.5 -27.5h78v-34h-169zM248 0q-74 0 -114 -26.5t-40 -99.5q0 -78 53.5 -110t144.5 -32h320v-42h-298
q-123 0 -193.5 41t-70.5 145q0 166 184 166h272v-42h-258z" />
    <glyph glyph-name="uniFBD3" unicode="&#x6ad;" horiz-adv-x="738" arabic-form="isolated" 
d="M370.5 793q11.5 12 28.5 12t29 -12t12 -29t-12 -28.5t-29 -11.5t-28.5 11.5t-11.5 28.5t11.5 29zM311.5 683q11.5 12 28.5 12t29 -12t12 -29t-12 -28.5t-29 -11.5t-28.5 11.5t-11.5 28.5t11.5 29zM424.5 683q11.5 12 28.5 12t29 -12t12 -29t-12 -28.5t-29 -11.5
t-28.5 11.5t-11.5 28.5t11.5 29zM100 224q0 -83 42.5 -123t99 -49.5t135.5 -9.5h235v632h48v-674h-312q-132 0 -212.5 46t-80.5 178q0 41 22 131l42 -11q-19 -78 -19 -120zM333 404q-11 22 -11 48q0 42 27.5 69.5t77.5 27.5q26 0 44 -9l-9 -31q-15 7 -41 7q-33 0 -47 -15.5
t-14 -45.5q0 -24 12 -51h98v-33h-191v33h54z" />
    <glyph glyph-name="uniFBD4" unicode="&#x6ad;" horiz-adv-x="716" arabic-form="final" 
d="M370.5 793q11.5 12 28.5 12t29 -12t12 -29t-12 -28.5t-29 -11.5t-28.5 11.5t-11.5 28.5t11.5 29zM311.5 683q11.5 12 28.5 12t29 -12t12 -29t-12 -28.5t-29 -11.5t-28.5 11.5t-11.5 28.5t11.5 29zM424.5 683q11.5 12 28.5 12t29 -12t12 -29t-12 -28.5t-29 -11.5
t-28.5 11.5t-11.5 28.5t11.5 29zM725 42v-42h-377q-132 0 -212.5 46t-80.5 178q0 41 22 131l42 -11q-19 -78 -19 -120q0 -83 42.5 -123t99 -49.5t135.5 -9.5h235v632h48v-632h65zM333 404q-11 22 -11 48q0 42 27.5 69.5t77.5 27.5q26 0 44 -9l-9 -31q-15 7 -41 7
q-33 0 -47 -15.5t-14 -45.5q0 -24 12 -51h98v-33h-191v33h54z" />
    <glyph glyph-name="uniFBD5" unicode="&#x6ad;" horiz-adv-x="499" arabic-form="initial" 
d="M100.5 823q11.5 12 28.5 12t29 -12t12 -29t-12 -28.5t-29 -11.5t-28.5 11.5t-11.5 28.5t11.5 29zM41.5 713q11.5 12 28.5 12t29 -12t12 -29t-12 -28.5t-29 -11.5t-28.5 11.5t-11.5 28.5t11.5 29zM154.5 713q11.5 12 28.5 12t29 -12t12 -29t-12 -28.5t-29 -11.5
t-28.5 11.5t-11.5 28.5t11.5 29zM108 358h100q82 0 132.5 -17.5t75.5 -60.5t25 -120v-160h-450v42h402v115q0 60 -12 93.5t-53.5 51.5t-129.5 18h-128l-23 38l309 318l32 -29z" />
    <glyph glyph-name="uniFBD6" unicode="&#x6ad;" horiz-adv-x="482" arabic-form="medial" 
d="M109.5 823q11.5 12 28.5 12t29 -12t12 -29t-12 -28.5t-29 -11.5t-28.5 11.5t-11.5 28.5t11.5 29zM50.5 713q11.5 12 28.5 12t29 -12t12 -29t-12 -28.5t-29 -11.5t-28.5 11.5t-11.5 28.5t11.5 29zM163.5 713q11.5 12 28.5 12t29 -12t12 -29t-12 -28.5t-29 -11.5
t-28.5 11.5t-11.5 28.5t11.5 29zM-9 0v42h402v115q0 60 -12 93.5t-53.5 51.5t-129.5 18h-128l-23 38l309 318l32 -29l-280 -289h100q82 0 132.5 -17.5t75.5 -60.5t25 -120v-118h50v-42h-500z" />
    <glyph glyph-name="uniFBD7" unicode="&#x6c7;" horiz-adv-x="488" arabic-form="isolated" 
d="M345 417.5q39 -34.5 61 -97t22 -143.5v-176q0 -119 -57 -182t-166 -63q-48 0 -104 13l13 42q48 -13 92 -13q85 0 129.5 49.5t44.5 144.5v8h-141q-184 0 -184 180q0 72 27 135t73.5 100t99.5 37q51 0 90 -34.5zM380 42v136q0 68 -16.5 121t-45.5 82t-66 29
q-39 0 -73.5 -31t-55 -83t-20.5 -114q0 -73 33.5 -106.5t108.5 -33.5h135zM260 587q-12 7 -19 20.5t-7 29.5q0 31 16 49t45 18q27 0 43 -18.5t16 -48.5q0 -47 -39 -61l-60 -21q-40 -14 -60 -22l-11 27zM318.5 612q8.5 9 8.5 25q0 17 -8.5 26.5t-23.5 9.5t-24 -9.5t-9 -26.5
q0 -16 9 -25t24 -9t23.5 9z" />
    <glyph glyph-name="uniFBD8" unicode="&#x6c7;" horiz-adv-x="486" arabic-form="final" 
d="M495 0h-67q0 -118 -57 -181t-166 -63q-48 0 -104 13l13 42q48 -13 92 -13q85 0 129.5 49.5t44.5 144.5v8h-141q-184 0 -184 180q0 72 27 135t73.5 100t99.5 37q51 0 90 -34.5t61 -97t22 -143.5v-135h67v-42zM380 42v136q0 68 -16.5 121t-45.5 82t-66 29q-39 0 -73.5 -31
t-55 -83t-20.5 -114q0 -73 33.5 -106.5t108.5 -33.5h135zM260 587q-12 7 -19 20.5t-7 29.5q0 31 16 49t45 18q27 0 43 -18.5t16 -48.5q0 -47 -39 -61l-60 -21q-40 -14 -60 -22l-11 27zM318.5 612q8.5 9 8.5 25q0 17 -8.5 26.5t-23.5 9.5t-24 -9.5t-9 -26.5q0 -16 9 -25
t24 -9t23.5 9z" />
    <glyph glyph-name="uniFBD9" unicode="&#x6c6;" horiz-adv-x="488" arabic-form="isolated" 
d="M246 528l-94 141h41l72 -106h2l72 106h41l-94 -141h-40zM345 417.5q39 -34.5 61 -97t22 -143.5v-176q0 -119 -57 -182t-166 -63q-48 0 -104 13l13 42q48 -13 92 -13q85 0 129.5 49.5t44.5 144.5v8h-141q-184 0 -184 180q0 72 27 135t73.5 100t99.5 37q51 0 90 -34.5z
M380 42v136q0 68 -16.5 121t-45.5 82t-66 29q-39 0 -73.5 -31t-55 -83t-20.5 -114q0 -73 33.5 -106.5t108.5 -33.5h135z" />
    <glyph glyph-name="uniFBDA" unicode="&#x6c6;" horiz-adv-x="486" arabic-form="final" 
d="M246 528l-94 141h41l72 -106h2l72 106h41l-94 -141h-40zM495 0h-67q0 -118 -57 -181t-166 -63q-48 0 -104 13l13 42q48 -13 92 -13q85 0 129.5 49.5t44.5 144.5v8h-141q-184 0 -184 180q0 72 27 135t73.5 100t99.5 37q51 0 90 -34.5t61 -97t22 -143.5v-135h67v-42z
M380 42v136q0 68 -16.5 121t-45.5 82t-66 29q-39 0 -73.5 -31t-55 -83t-20.5 -114q0 -73 33.5 -106.5t108.5 -33.5h135z" />
    <glyph glyph-name="uniFBDB" unicode="&#x6c8;" horiz-adv-x="488" arabic-form="isolated" 
d="M345 417.5q39 -34.5 61 -97t22 -143.5v-176q0 -119 -57 -182t-166 -63q-48 0 -104 13l13 42q48 -13 92 -13q85 0 129.5 49.5t44.5 144.5v8h-141q-184 0 -184 180q0 72 27 135t73.5 100t99.5 37q51 0 90 -34.5zM380 42v136q0 68 -16.5 121t-45.5 82t-66 29
q-39 0 -73.5 -31t-55 -83t-20.5 -114q0 -73 33.5 -106.5t108.5 -33.5h135zM280 704v-175h-39v175h39z" />
    <glyph glyph-name="uniFBDC" unicode="&#x6c8;" horiz-adv-x="486" arabic-form="final" 
d="M495 0h-67q0 -118 -57 -181t-166 -63q-48 0 -104 13l13 42q48 -13 92 -13q85 0 129.5 49.5t44.5 144.5v8h-141q-184 0 -184 180q0 72 27 135t73.5 100t99.5 37q51 0 90 -34.5t61 -97t22 -143.5v-135h67v-42zM380 42v136q0 68 -16.5 121t-45.5 82t-66 29q-39 0 -73.5 -31
t-55 -83t-20.5 -114q0 -73 33.5 -106.5t108.5 -33.5h135zM280 704v-175h-39v175h39z" />
    <glyph glyph-name="uniFBDD" unicode="&#x677;" horiz-adv-x="488" arabic-form="isolated" 
d="M356.5 611.5q7.5 -17.5 21.5 -27.5h78v-34h-169v34h49q-13 12 -18 30t-5 32q0 41 25.5 61t64.5 20q28 0 57 -11q-3 -9 -6 -15.5t-5 -11.5q-18 9 -46 9q-24 0 -39 -12.5t-15 -38.5q0 -18 7.5 -35.5zM65 565l84 30q-13 7 -21 22.5t-8 32.5q0 34 17.5 53.5t49.5 19.5
q30 0 47.5 -20t17.5 -53q0 -27 -11.5 -44t-31.5 -23l-66 -24q-11 -4 -27.5 -9.5t-38.5 -14.5zM160.5 679q-9.5 -10 -9.5 -29q0 -18 10 -28t26 -10t25.5 10t9.5 28t-9.5 28.5t-25.5 10.5q-17 0 -26.5 -10zM345 417.5q39 -34.5 61 -97t22 -143.5v-176q0 -119 -57 -182
t-166 -63q-48 0 -104 13l13 42q48 -13 92 -13q85 0 129.5 49.5t44.5 144.5v8h-141q-184 0 -184 180q0 72 27 135t73.5 100t99.5 37q51 0 90 -34.5zM380 178q0 68 -16.5 121t-45.5 82t-66 29q-39 0 -73.5 -31t-55 -83t-20.5 -114q0 -73 33.5 -106.5t108.5 -33.5h135v136z" />
    <glyph glyph-name="uniFBDE" unicode="&#x6cb;" horiz-adv-x="488" arabic-form="isolated" 
d="M345 417.5q39 -34.5 61 -97t22 -143.5v-176q0 -119 -57 -182t-166 -63q-48 0 -104 13l13 42q48 -13 92 -13q85 0 129.5 49.5t44.5 144.5v8h-141q-184 0 -184 180q0 72 27 135t73.5 100t99.5 37q51 0 90 -34.5zM380 42v136q0 68 -16.5 121t-45.5 82t-66 29
q-39 0 -73.5 -31t-55 -83t-20.5 -114q0 -73 33.5 -106.5t108.5 -33.5h135zM226.5 713q11.5 12 28.5 12t29 -12t12 -29t-12 -28.5t-29 -11.5t-28.5 11.5t-11.5 28.5t11.5 29zM167.5 603q11.5 12 28.5 12t29 -12t12 -29t-12 -28.5t-29 -11.5t-28.5 11.5t-11.5 28.5t11.5 29z
M280.5 603q11.5 12 28.5 12t29 -12t12 -29t-12 -28.5t-29 -11.5t-28.5 11.5t-11.5 28.5t11.5 29z" />
    <glyph glyph-name="uniFBDF" unicode="&#x6cb;" horiz-adv-x="486" arabic-form="final" 
d="M495 0h-67q0 -118 -57 -181t-166 -63q-48 0 -104 13l13 42q48 -13 92 -13q85 0 129.5 49.5t44.5 144.5v8h-141q-184 0 -184 180q0 72 27 135t73.5 100t99.5 37q51 0 90 -34.5t61 -97t22 -143.5v-135h67v-42zM380 42v136q0 68 -16.5 121t-45.5 82t-66 29q-39 0 -73.5 -31
t-55 -83t-20.5 -114q0 -73 33.5 -106.5t108.5 -33.5h135zM226.5 713q11.5 12 28.5 12t29 -12t12 -29t-12 -28.5t-29 -11.5t-28.5 11.5t-11.5 28.5t11.5 29zM167.5 603q11.5 12 28.5 12t29 -12t12 -29t-12 -28.5t-29 -11.5t-28.5 11.5t-11.5 28.5t11.5 29zM280.5 603
q11.5 12 28.5 12t29 -12t12 -29t-12 -28.5t-29 -11.5t-28.5 11.5t-11.5 28.5t11.5 29z" />
    <glyph glyph-name="uniFBE0" unicode="&#x6c5;" horiz-adv-x="488" arabic-form="isolated" 
d="M345 417.5q39 -34.5 61 -97t22 -143.5v-176q0 -119 -57 -182t-166 -63q-48 0 -104 13l13 42q48 -13 92 -13q117 0 157 93h-166v45h178q5 28 5 56v8h-141q-184 0 -184 180q0 72 27 135t73.5 100t99.5 37q51 0 90 -34.5zM380 42v136q0 68 -16.5 121t-45.5 82t-66 29
q-39 0 -73.5 -31t-55 -83t-20.5 -114q0 -73 33.5 -106.5t108.5 -33.5h135z" />
    <glyph glyph-name="uniFBE1" unicode="&#x6c5;" horiz-adv-x="486" arabic-form="final" 
d="M495 0h-67q0 -118 -57 -181t-166 -63q-48 0 -104 13l13 42q48 -13 92 -13q117 0 157 93h-166v45h178q5 28 5 56v8h-141q-184 0 -184 180q0 72 27 135t73.5 100t99.5 37q51 0 90 -34.5t61 -97t22 -143.5v-135h67v-42zM380 42v136q0 68 -16.5 121t-45.5 82t-66 29
q-39 0 -73.5 -31t-55 -83t-20.5 -114q0 -73 33.5 -106.5t108.5 -33.5h135z" />
    <glyph glyph-name="uniFBE2" unicode="&#x6c9;" horiz-adv-x="488" arabic-form="isolated" 
d="M193 528h-41l94 141h40l94 -141h-41l-72 106h-2zM345 417.5q39 -34.5 61 -97t22 -143.5v-176q0 -119 -57 -182t-166 -63q-48 0 -104 13l13 42q48 -13 92 -13q85 0 129.5 49.5t44.5 144.5v8h-141q-184 0 -184 180q0 72 27 135t73.5 100t99.5 37q51 0 90 -34.5zM380 42v136
q0 68 -16.5 121t-45.5 82t-66 29q-39 0 -73.5 -31t-55 -83t-20.5 -114q0 -73 33.5 -106.5t108.5 -33.5h135z" />
    <glyph glyph-name="uniFBE3" unicode="&#x6c9;" horiz-adv-x="486" arabic-form="final" 
d="M193 528h-41l94 141h40l94 -141h-41l-72 106h-2zM495 0h-67q0 -118 -57 -181t-166 -63q-48 0 -104 13l13 42q48 -13 92 -13q85 0 129.5 49.5t44.5 144.5v8h-141q-184 0 -184 180q0 72 27 135t73.5 100t99.5 37q51 0 90 -34.5t61 -97t22 -143.5v-135h67v-42zM380 42v136
q0 68 -16.5 121t-45.5 82t-66 29q-39 0 -73.5 -31t-55 -83t-20.5 -114q0 -73 33.5 -106.5t108.5 -33.5h135z" />
    <glyph glyph-name="uniFBE4" unicode="&#x6d0;" horiz-adv-x="738" arabic-form="isolated" 
d="M196.5 -111q-61.5 16 -100.5 64.5t-39 140.5q0 44 17.5 117.5t37.5 132.5l44 -11l-7 -21q-47 -153 -47 -218q0 -83 40.5 -122t93 -47t135.5 -8h116q60 0 105 23.5t45 80.5q0 27 -10.5 43.5t-32 28.5t-65.5 29q-89 35 -129.5 71t-40.5 93q0 50 26 89.5t72.5 61.5t103.5 22
q68 0 130 -32l-14 -38q-62 31 -119 31q-67 0 -109 -34t-42 -89q0 -35 12.5 -55.5t41 -36t94.5 -42.5q63 -25 95.5 -57t32.5 -75q0 -67 -46.5 -111.5t-165.5 -45.5h-129q-84 -1 -145.5 15zM369.5 -206q11.5 12 28.5 12t29 -12t12 -29t-12 -28.5t-29 -11.5t-28.5 11.5
t-11.5 28.5t11.5 29zM369.5 -316q11.5 12 28.5 12t29 -12t12 -29t-12 -28.5t-29 -11.5t-28.5 11.5t-11.5 28.5t11.5 29z" />
    <glyph glyph-name="uniFBE5" unicode="&#x6d0;" horiz-adv-x="765" arabic-form="final" 
d="M583.5 -164q46.5 27 46.5 85q0 48 -41.5 80t-118.5 63l14 45q69 -32 127.5 -49.5t125.5 -17.5h37v-42h-131q16 -24 24 -44t8 -47q0 -30 -18 -62t-65.5 -56t-128.5 -24h-114q-86 0 -148 14.5t-103 61.5t-41 138q0 45 18 120.5t37 130.5l20 -5l24 -6l-7 -21
q-47 -157 -47 -219q0 -76 36 -114t87 -48t122 -10h31h102q57 0 103.5 27zM337.5 -326q11.5 12 28.5 12t29 -12t12 -29t-12 -28.5t-29 -11.5t-28.5 11.5t-11.5 28.5t11.5 29zM337.5 -436q11.5 12 28.5 12t29 -12t12 -29t-12 -28.5t-29 -11.5t-28.5 11.5t-11.5 28.5t11.5 29z
" />
    <glyph glyph-name="uniFBE6" unicode="&#x6d0;" horiz-adv-x="289" arabic-form="initial" 
d="M-9 42h30q85 0 118.5 34.5t33.5 103.5v266h48v-283q0 -163 -195 -163h-35v42zM76.5 -109q11.5 12 28.5 12t29 -12t12 -29t-12 -28.5t-29 -11.5t-28.5 11.5t-11.5 28.5t11.5 29zM76.5 -219q11.5 12 28.5 12t29 -12t12 -29t-12 -28.5t-29 -11.5t-28.5 11.5t-11.5 28.5
t11.5 29z" />
    <glyph glyph-name="uniFBE7" unicode="&#x6d0;" horiz-adv-x="389" arabic-form="medial" 
d="M398 42v-42h-40q-38 0 -73.5 12.5t-63.5 38.5q-18 -28 -56.5 -39.5t-109.5 -11.5h-64v42h66q59 0 87.5 8.5t39 31t10.5 68.5v296h48v-295q0 -33 -7 -68q25 -21 54 -31t70 -10h39zM244 -109q12 -12 12 -29t-12 -28.5t-29 -11.5t-28.5 11.5t-11.5 28.5t11.5 29t28.5 12
t29 -12zM244 -219q12 -12 12 -29t-12 -28.5t-29 -11.5t-28.5 11.5t-11.5 28.5t11.5 29t28.5 12t29 -12z" />
    <glyph glyph-name="uniFBE8" unicode="&#x649;" horiz-adv-x="289" arabic-form="initial" 
d="M-9 42h30q85 0 118.5 34.5t33.5 103.5v266h48v-283q0 -163 -195 -163h-35v42z" />
    <glyph glyph-name="uniFBE9" unicode="&#x649;" horiz-adv-x="389" arabic-form="medial" 
d="M398 42v-42h-40q-38 0 -73.5 12.5t-63.5 38.5q-18 -28 -56.5 -39.5t-109.5 -11.5h-64v42h66q59 0 87.5 8.5t39 31t10.5 68.5v296h48v-295q0 -33 -7 -68q25 -21 54 -31t70 -10h39z" />
    <glyph glyph-name="uniFBEA" unicode="&#xfbea;" horiz-adv-x="558" arabic-form="isolated" 
d="M433.5 611.5q7.5 -17.5 21.5 -27.5h78v-34h-169v34h49q-13 12 -18 30t-5 32q0 41 25.5 61t64.5 20q28 0 57 -11q-3 -9 -6 -15.5t-5 -11.5q-18 9 -46 9q-24 0 -39 -12.5t-15 -38.5q0 -18 7.5 -35.5zM442 446h48v-283q0 -163 -195 -163h-35q-192 2 -192 163v511h48v-494
q0 -69 33.5 -103.5t118.5 -34.5h22q85 0 118.5 34.5t33.5 103.5v266z" />
    <glyph glyph-name="uniFBEB" unicode="&#xfbeb;" horiz-adv-x="675" arabic-form="final" 
d="M579 550h-169v34h49q-13 12 -18 30t-5 32q0 41 25.5 61t64.5 20q28 0 57 -11q-3 -9 -6 -15.5t-5 -11.5q-18 9 -46 9q-24 0 -39 -12.5t-15 -38.5q0 -18 7.5 -35.5t21.5 -27.5h78v-34zM684 42v-42h-40q-38 0 -73.5 12.5t-63.5 38.5q-18 -28 -56.5 -39.5t-109.5 -11.5h-78
q-195 0 -195 163v511h48v-494q0 -69 33.5 -103.5t118.5 -34.5h75q59 0 87.5 8.5t39 31t10.5 68.5v296h48v-295q0 -33 -7 -68q25 -21 54 -31t70 -10h39z" />
    <glyph glyph-name="uniFBEC" unicode="&#xfbec;" horiz-adv-x="827" arabic-form="isolated" 
d="M702.5 611.5q7.5 -17.5 21.5 -27.5h78v-34h-169v34h49q-13 12 -18 30t-5 32q0 41 25.5 61t64.5 20q28 0 57 -11q-3 -9 -6 -15.5t-5 -11.5q-18 9 -46 9q-24 0 -39 -12.5t-15 -38.5q0 -18 7.5 -35.5zM711 446h48v-283q0 -163 -195 -163h-47q-86 0 -128.5 26.5t-54.5 98.5
q-51 -81 -168 -81q-48 0 -81.5 22t-51 57t-17.5 73q0 73 52.5 130.5t127.5 90.5t138 35v29h48v-311q0 -48 10.5 -74.5t40.5 -40t88 -13.5h38q85 0 118.5 34.5t33.5 103.5v266zM334 417q-58 0 -122 -30t-107 -80t-43 -107q0 -52 35 -85t88 -33q35 0 69.5 16t57 45t22.5 65
v209z" />
    <glyph glyph-name="uniFBED" unicode="&#xfbed;" horiz-adv-x="924" arabic-form="final" 
d="M828 550h-169v34h49q-13 12 -18 30t-5 32q0 41 25.5 61t64.5 20q28 0 57 -11q-3 -9 -6 -15.5t-5 -11.5q-18 9 -46 9q-24 0 -39 -12.5t-15 -38.5q0 -18 7.5 -35.5t21.5 -27.5h78v-34zM933 42v-42h-40q-38 0 -73.5 12.5t-63.5 38.5q-18 -28 -56.5 -39.5t-109.5 -11.5h-73
q-86 0 -128.5 26.5t-54.5 98.5q-51 -81 -168 -81q-48 0 -81.5 22t-51 57t-17.5 73q0 73 52.5 130.5t127.5 90.5t138 35v29h48v-311q0 -48 10.5 -74.5t40.5 -40t88 -13.5h71q59 0 87.5 8.5t39 31t10.5 68.5v296h48v-295q0 -33 -7 -68q25 -21 54 -31t70 -10h39zM334 417
q-58 0 -122 -30t-107 -80t-43 -107q0 -52 35 -85t88 -33q35 0 69.5 16t57 45t22.5 65v209z" />
    <glyph glyph-name="uniFBEE" unicode="&#xfbee;" horiz-adv-x="779" arabic-form="isolated" 
d="M654.5 611.5q7.5 -17.5 21.5 -27.5h78v-34h-169v34h49q-13 12 -18 30t-5 32q0 41 25.5 61t64.5 20q28 0 57 -11q-3 -9 -6 -15.5t-5 -11.5q-18 9 -46 9q-24 0 -39 -12.5t-15 -38.5q0 -18 7.5 -35.5zM663 446h48v-283q0 -163 -195 -163h-88q0 -118 -57 -181t-166 -63
q-48 0 -104 13l13 42q48 -13 92 -13q85 0 129.5 49.5t44.5 144.5v8h-141q-184 0 -184 180q0 72 27 135t73.5 100t99.5 37q51 0 90 -34.5t61 -97t22 -143.5v-135h83q85 0 118.5 34.5t33.5 103.5v266zM380 42v136q0 68 -16.5 121t-45.5 82t-66 29q-39 0 -73.5 -31t-55 -83
t-20.5 -114q0 -73 33.5 -106.5t108.5 -33.5h135z" />
    <glyph glyph-name="uniFBEF" unicode="&#xfbef;" horiz-adv-x="879" arabic-form="final" 
d="M783 550h-169v34h49q-13 12 -18 30t-5 32q0 41 25.5 61t64.5 20q28 0 57 -11q-3 -9 -6 -15.5t-5 -11.5q-18 9 -46 9q-24 0 -39 -12.5t-15 -38.5q0 -18 7.5 -35.5t21.5 -27.5h78v-34zM888 42v-42h-40q-38 0 -73.5 12.5t-63.5 38.5q-18 -28 -56.5 -39.5t-109.5 -11.5h-117
q0 -118 -57 -181t-166 -63q-48 0 -104 13l13 42q48 -13 92 -13q85 0 129.5 49.5t44.5 144.5v8h-141q-184 0 -184 180q0 72 27 135t73.5 100t99.5 37q51 0 90 -34.5t61 -97t22 -143.5v-135h119q59 0 87.5 8.5t39 31t10.5 68.5v296h48v-295q0 -33 -7 -68q25 -21 54 -31t70 -10
h39zM380 42v136q0 68 -16.5 121t-45.5 82t-66 29q-39 0 -73.5 -31t-55 -83t-20.5 -114q0 -73 33.5 -106.5t108.5 -33.5h135z" />
    <glyph glyph-name="uniFBF0" unicode="&#xfbf0;" horiz-adv-x="777" arabic-form="isolated" 
d="M652.5 611.5q7.5 -17.5 21.5 -27.5h78v-34h-169v34h49q-13 12 -18 30t-5 32q0 41 25.5 61t64.5 20q28 0 57 -11q-3 -9 -6 -15.5t-5 -11.5q-18 9 -46 9q-24 0 -39 -12.5t-15 -38.5q0 -18 7.5 -35.5zM184 560l76 27q-12 7 -19 20.5t-7 29.5q0 31 16 49t45 18q27 0 43 -18.5
t16 -48.5q0 -47 -39 -61l-60 -21q-40 -14 -60 -22zM271 663.5q-9 -9.5 -9 -26.5q0 -16 9 -25t24 -9t23.5 9t8.5 25q0 17 -8.5 26.5t-23.5 9.5t-24 -9.5zM661 446h48v-283q0 -163 -195 -163h-86q0 -118 -57 -181t-166 -63q-48 0 -104 13l13 42q48 -13 92 -13q85 0 129.5 49.5
t44.5 144.5v8h-141q-184 0 -184 180q0 72 27 135t73.5 100t99.5 37q51 0 90 -34.5t61 -97t22 -143.5v-135h81q85 0 118.5 34.5t33.5 103.5v266zM380 42v136q0 68 -16.5 121t-45.5 82t-66 29q-39 0 -73.5 -31t-55 -83t-20.5 -114q0 -73 33.5 -106.5t108.5 -33.5h135z" />
    <glyph glyph-name="uniFBF1" unicode="&#xfbf1;" horiz-adv-x="879" arabic-form="final" 
d="M783 550h-169v34h49q-13 12 -18 30t-5 32q0 41 25.5 61t64.5 20q28 0 57 -11q-3 -9 -6 -15.5t-5 -11.5q-18 9 -46 9q-24 0 -39 -12.5t-15 -38.5q0 -18 7.5 -35.5t21.5 -27.5h78v-34zM184 560l76 27q-12 7 -19 20.5t-7 29.5q0 31 16 49t45 18q27 0 43 -18.5t16 -48.5
q0 -47 -39 -61l-60 -21q-40 -14 -60 -22zM271 663.5q-9 -9.5 -9 -26.5q0 -16 9 -25t24 -9t23.5 9t8.5 25q0 17 -8.5 26.5t-23.5 9.5t-24 -9.5zM888 42v-42h-40q-38 0 -73.5 12.5t-63.5 38.5q-18 -28 -56.5 -39.5t-109.5 -11.5h-117q0 -118 -57 -181t-166 -63q-48 0 -104 13
l13 42q48 -13 92 -13q85 0 129.5 49.5t44.5 144.5v8h-141q-184 0 -184 180q0 72 27 135t73.5 100t99.5 37q51 0 90 -34.5t61 -97t22 -143.5v-135h119q59 0 87.5 8.5t39 31t10.5 68.5v296h48v-295q0 -33 -7 -68q25 -21 54 -31t70 -10h39zM380 42v136q0 68 -16.5 121t-45.5 82
t-66 29q-39 0 -73.5 -31t-55 -83t-20.5 -114q0 -73 33.5 -106.5t108.5 -33.5h135z" />
    <glyph glyph-name="uniFBF2" unicode="&#xfbf2;" horiz-adv-x="785" arabic-form="isolated" 
d="M652.5 611.5q7.5 -17.5 21.5 -27.5h78v-34h-169v34h49q-13 12 -18 30t-5 32q0 41 25.5 61t64.5 20q28 0 57 -11q-3 -9 -6 -15.5t-5 -11.5q-18 9 -46 9q-24 0 -39 -12.5t-15 -38.5q0 -18 7.5 -35.5zM246 528l-94 141h41l72 -106h2l72 106h41l-94 -141h-40zM661 446h48
v-283q0 -163 -195 -163h-86q0 -118 -57 -181t-166 -63q-48 0 -104 13l13 42q48 -13 92 -13q85 0 129.5 49.5t44.5 144.5v8h-141q-184 0 -184 180q0 72 27 135t73.5 100t99.5 37q51 0 90 -34.5t61 -97t22 -143.5v-135h81q85 0 118.5 34.5t33.5 103.5v266zM380 42v136
q0 68 -16.5 121t-45.5 82t-66 29q-39 0 -73.5 -31t-55 -83t-20.5 -114q0 -73 33.5 -106.5t108.5 -33.5h135z" />
    <glyph glyph-name="uniFBF3" unicode="&#xfbf3;" horiz-adv-x="873" arabic-form="final" 
d="M777 550h-169v34h49q-13 12 -18 30t-5 32q0 41 25.5 61t64.5 20q28 0 57 -11q-3 -9 -6 -15.5t-5 -11.5q-18 9 -46 9q-24 0 -39 -12.5t-15 -38.5q0 -18 7.5 -35.5t21.5 -27.5h78v-34zM246 528l-94 141h41l72 -106h2l72 106h41l-94 -141h-40zM882 42v-42h-40
q-38 0 -73.5 12.5t-63.5 38.5q-18 -28 -56.5 -39.5t-109.5 -11.5h-111q0 -118 -57 -181t-166 -63q-48 0 -104 13l13 42q48 -13 92 -13q85 0 129.5 49.5t44.5 144.5v8h-141q-184 0 -184 180q0 72 27 135t73.5 100t99.5 37q51 0 90 -34.5t61 -97t22 -143.5v-135h113
q59 0 87.5 8.5t39 31t10.5 68.5v296h48v-295q0 -33 -7 -68q25 -21 54 -31t70 -10h39zM380 42v136q0 68 -16.5 121t-45.5 82t-66 29q-39 0 -73.5 -31t-55 -83t-20.5 -114q0 -73 33.5 -106.5t108.5 -33.5h135z" />
    <glyph glyph-name="uniFBF4" unicode="&#xfbf4;" horiz-adv-x="777" arabic-form="isolated" 
d="M652.5 611.5q7.5 -17.5 21.5 -27.5h78v-34h-169v34h49q-13 12 -18 30t-5 32q0 41 25.5 61t64.5 20q28 0 57 -11q-3 -9 -6 -15.5t-5 -11.5q-18 9 -46 9q-24 0 -39 -12.5t-15 -38.5q0 -18 7.5 -35.5zM280 529h-39v175h39v-175zM661 446h48v-283q0 -163 -195 -163h-86
q0 -118 -57 -181t-166 -63q-48 0 -104 13l13 42q48 -13 92 -13q85 0 129.5 49.5t44.5 144.5v8h-141q-184 0 -184 180q0 72 27 135t73.5 100t99.5 37q51 0 90 -34.5t61 -97t22 -143.5v-135h81q85 0 118.5 34.5t33.5 103.5v266zM380 42v136q0 68 -16.5 121t-45.5 82t-66 29
q-39 0 -73.5 -31t-55 -83t-20.5 -114q0 -73 33.5 -106.5t108.5 -33.5h135z" />
    <glyph glyph-name="uniFBF5" unicode="&#xfbf5;" horiz-adv-x="875" arabic-form="final" 
d="M779 550h-169v34h49q-13 12 -18 30t-5 32q0 41 25.5 61t64.5 20q28 0 57 -11q-3 -9 -6 -15.5t-5 -11.5q-18 9 -46 9q-24 0 -39 -12.5t-15 -38.5q0 -18 7.5 -35.5t21.5 -27.5h78v-34zM280 529h-39v175h39v-175zM884 42v-42h-40q-38 0 -73.5 12.5t-63.5 38.5
q-18 -28 -56.5 -39.5t-109.5 -11.5h-113q0 -118 -57 -181t-166 -63q-48 0 -104 13l13 42q48 -13 92 -13q85 0 129.5 49.5t44.5 144.5v8h-141q-184 0 -184 180q0 72 27 135t73.5 100t99.5 37q51 0 90 -34.5t61 -97t22 -143.5v-135h115q59 0 87.5 8.5t39 31t10.5 68.5v296h48
v-295q0 -33 -7 -68q25 -21 54 -31t70 -10h39zM380 42v136q0 68 -16.5 121t-45.5 82t-66 29q-39 0 -73.5 -31t-55 -83t-20.5 -114q0 -73 33.5 -106.5t108.5 -33.5h135z" />
    <glyph glyph-name="uniFBF6" unicode="&#xfbf6;" horiz-adv-x="1021" arabic-form="isolated" 
d="M896.5 611.5q7.5 -17.5 21.5 -27.5h78v-34h-169v34h49q-13 12 -18 30t-5 32q0 41 25.5 61t64.5 20q28 0 57 -11q-3 -9 -6 -15.5t-5 -11.5q-18 9 -46 9q-24 0 -39 -12.5t-15 -38.5q0 -18 7.5 -35.5zM905 446h48v-283q0 -155 -179 -163h-131q16 -24 24 -44t8 -47
q0 -30 -18 -62t-65.5 -56t-128.5 -24h-114q-86 0 -148 14.5t-103 61.5t-41 138q0 45 18 120.5t37 130.5l20 -5l24 -6l-7 -21q-47 -157 -47 -219q0 -76 36 -114t87 -48t122 -10h31h102q57 0 103.5 27t46.5 85q0 48 -41.5 80t-118.5 63l14 45q69 -32 127.5 -49.5t125.5 -17.5
h16q85 0 118.5 34.5t33.5 103.5v266zM395 -326q12 -12 12 -29t-12 -28.5t-29 -11.5t-28.5 11.5t-11.5 28.5t11.5 29t28.5 12t29 -12zM395 -436q12 -12 12 -29t-12 -28.5t-29 -11.5t-28.5 11.5t-11.5 28.5t11.5 29t28.5 12t29 -12z" />
    <glyph glyph-name="uniFBF7" unicode="&#xfbf7;" horiz-adv-x="1121" arabic-form="final" 
d="M1025 550h-169v34h49q-13 12 -18 30t-5 32q0 41 25.5 61t64.5 20q28 0 57 -11q-3 -9 -6 -15.5t-5 -11.5q-18 9 -46 9q-24 0 -39 -12.5t-15 -38.5q0 -18 7.5 -35.5t21.5 -27.5h78v-34zM1130 42v-42h-40q-38 0 -73.5 12.5t-63.5 38.5q-18 -28 -56.5 -39.5t-109.5 -11.5
h-144q16 -24 24 -44t8 -47q0 -30 -18 -62t-65.5 -56t-128.5 -24h-114q-86 0 -148 14.5t-103 61.5t-41 138q0 45 18 120.5t37 130.5l20 -5l24 -6l-7 -21q-47 -157 -47 -219q0 -76 36 -114t87 -48t122 -10h31h102q57 0 103.5 27t46.5 85q0 48 -41.5 80t-118.5 63l14 45
q69 -32 127.5 -49.5t125.5 -17.5h52q59 0 87.5 8.5t39 31t10.5 68.5v296h48v-295q0 -33 -7 -68q25 -21 54 -31t70 -10h39zM395 -326q12 -12 12 -29t-12 -28.5t-29 -11.5t-28.5 11.5t-11.5 28.5t11.5 29t28.5 12t29 -12zM395 -436q12 -12 12 -29t-12 -28.5t-29 -11.5
t-28.5 11.5t-11.5 28.5t11.5 29t28.5 12t29 -12z" />
    <glyph glyph-name="uniFBF8" unicode="&#xfbf8;" horiz-adv-x="681" arabic-form="initial" 
d="M556.5 611.5q7.5 -17.5 21.5 -27.5h78v-34h-169v34h49q-13 12 -18 30t-5 32q0 41 25.5 61t64.5 20q28 0 57 -11q-3 -9 -6 -15.5t-5 -11.5q-18 9 -46 9q-24 0 -39 -12.5t-15 -38.5q0 -18 7.5 -35.5zM565 446h48v-283q0 -163 -195 -163h-60q-38 0 -73.5 12.5t-63.5 38.5
q-18 -28 -56.5 -39.5t-109.5 -11.5h-64v42h66q59 0 87.5 8.5t39 31t10.5 68.5v296h48v-295q0 -33 -7 -68q25 -21 54 -31t70 -10h54q85 0 118.5 34.5t33.5 103.5v266zM244 -109q12 -12 12 -29t-12 -28.5t-29 -11.5t-28.5 11.5t-11.5 28.5t11.5 29t28.5 12t29 -12zM244 -219
q12 -12 12 -29t-12 -28.5t-29 -11.5t-28.5 11.5t-11.5 28.5t11.5 29t28.5 12t29 -12z" />
    <glyph glyph-name="uniFBF9" unicode="&#xfbf9;" horiz-adv-x="1026" arabic-form="isolated" 
d="M901.5 611.5q7.5 -17.5 21.5 -27.5h78v-34h-169v34h49q-13 12 -18 30t-5 32q0 41 25.5 61t64.5 20q28 0 57 -11q-3 -9 -6 -15.5t-5 -11.5q-18 9 -46 9q-24 0 -39 -12.5t-15 -38.5q0 -18 7.5 -35.5zM910 446h48v-283q0 -159 -184 -163h-131q16 -24 24 -44t8 -47
q0 -30 -18 -62t-65.5 -56t-128.5 -24h-114q-86 0 -148 14.5t-103 61.5t-41 138q0 45 18 120.5t37 130.5l20 -5l24 -6l-7 -21q-47 -157 -47 -219q0 -76 36 -114t87 -48t122 -10h31h102q57 0 103.5 27t46.5 85q0 48 -41.5 80t-118.5 63l14 45q69 -32 127.5 -49.5t125.5 -17.5
h21q85 0 118.5 34.5t33.5 103.5v266z" />
    <glyph glyph-name="uniFBFA" unicode="&#xfbfa;" horiz-adv-x="1111" arabic-form="final" 
d="M1015 550h-169v34h49q-13 12 -18 30t-5 32q0 41 25.5 61t64.5 20q28 0 57 -11q-3 -9 -6 -15.5t-5 -11.5q-18 9 -46 9q-24 0 -39 -12.5t-15 -38.5q0 -18 7.5 -35.5t21.5 -27.5h78v-34zM1120 42v-42h-40q-38 0 -73.5 12.5t-63.5 38.5q-18 -28 -56.5 -39.5t-109.5 -11.5
h-134q16 -24 24 -44t8 -47q0 -30 -18 -62t-65.5 -56t-128.5 -24h-114q-86 0 -148 14.5t-103 61.5t-41 138q0 45 18 120.5t37 130.5l20 -5l24 -6l-7 -21q-47 -157 -47 -219q0 -76 36 -114t87 -48t122 -10h31h102q57 0 103.5 27t46.5 85q0 48 -41.5 80t-118.5 63l14 45
q69 -32 127.5 -49.5t125.5 -17.5h42q59 0 87.5 8.5t39 31t10.5 68.5v296h48v-295q0 -33 -7 -68q25 -21 54 -31t70 -10h39z" />
    <glyph glyph-name="uniFBFB" unicode="&#xfbfb;" horiz-adv-x="681" arabic-form="initial" 
d="M556.5 611.5q7.5 -17.5 21.5 -27.5h78v-34h-169v34h49q-13 12 -18 30t-5 32q0 41 25.5 61t64.5 20q28 0 57 -11q-3 -9 -6 -15.5t-5 -11.5q-18 9 -46 9q-24 0 -39 -12.5t-15 -38.5q0 -18 7.5 -35.5zM565 446h48v-283q0 -163 -195 -163h-60q-38 0 -73.5 12.5t-63.5 38.5
q-18 -28 -56.5 -39.5t-109.5 -11.5h-64v42h66q59 0 87.5 8.5t39 31t10.5 68.5v296h48v-295q0 -33 -7 -68q25 -21 54 -31t70 -10h54q85 0 118.5 34.5t33.5 103.5v266z" />
    <glyph glyph-name="uniFBFC" unicode="&#x6cc;" horiz-adv-x="738" arabic-form="isolated" 
d="M196.5 -111q-61.5 16 -100.5 64.5t-39 140.5q0 44 17.5 117.5t37.5 132.5l44 -11l-7 -21q-47 -153 -47 -218q0 -83 40.5 -122t93 -47t135.5 -8h116q60 0 105 23.5t45 80.5q0 27 -10.5 43.5t-32 28.5t-65.5 29q-89 35 -129.5 71t-40.5 93q0 50 26 89.5t72.5 61.5t103.5 22
q68 0 130 -32l-14 -38q-62 31 -119 31q-67 0 -109 -34t-42 -89q0 -35 12.5 -55.5t41 -36t94.5 -42.5q63 -25 95.5 -57t32.5 -75q0 -67 -46.5 -111.5t-165.5 -45.5h-129q-84 -1 -145.5 15z" />
    <glyph glyph-name="uniFBFD" unicode="&#x6cc;" horiz-adv-x="765" arabic-form="final" 
d="M583.5 -164q46.5 27 46.5 85q0 48 -41.5 80t-118.5 63l14 45q69 -32 127.5 -49.5t125.5 -17.5h37v-42h-131q16 -24 24 -44t8 -47q0 -30 -18 -62t-65.5 -56t-128.5 -24h-114q-86 0 -148 14.5t-103 61.5t-41 138q0 45 18 120.5t37 130.5l20 -5l24 -6l-7 -21
q-47 -157 -47 -219q0 -76 36 -114t87 -48t122 -10h31h102q57 0 103.5 27z" />
    <glyph glyph-name="uniFBFE" unicode="&#x6cc;" horiz-adv-x="329" arabic-form="initial" 
d="M-9 42h70q85 0 118.5 34.5t33.5 103.5v266h48v-283q0 -163 -195 -163h-75v42zM47.5 -115q11.5 12 28.5 12t29 -12t12 -29t-12 -28.5t-29 -11.5t-28.5 11.5t-11.5 28.5t11.5 29zM160.5 -115q11.5 12 28.5 12t29 -12t12 -29t-12 -28.5t-29 -11.5t-28.5 11.5t-11.5 28.5
t11.5 29z" />
    <glyph glyph-name="uniFBFF" unicode="&#x6cc;" horiz-adv-x="389" arabic-form="medial" 
d="M398 42v-42h-40q-38 0 -73.5 12.5t-63.5 38.5q-18 -28 -56.5 -39.5t-109.5 -11.5h-64v42h66q59 0 87.5 8.5t39 31t10.5 68.5v296h48v-295q0 -33 -7 -68q25 -21 54 -31t70 -10h39zM190 -115q12 -12 12 -29t-12 -28.5t-29 -11.5t-28.5 11.5t-11.5 28.5t11.5 29t28.5 12
t29 -12zM303 -115q12 -12 12 -29t-12 -28.5t-29 -11.5t-28.5 11.5t-11.5 28.5t11.5 29t28.5 12t29 -12z" />
    <glyph glyph-name="uniFC00" unicode="&#xfc00;" horiz-adv-x="862" arabic-form="isolated" 
d="M737.5 611.5q7.5 -17.5 21.5 -27.5h78v-34h-169v34h49q-13 12 -18 30t-5 32q0 41 25.5 61t64.5 20q28 0 57 -11q-3 -9 -6 -15.5t-5 -11.5q-18 9 -46 9q-24 0 -39 -12.5t-15 -38.5q0 -18 7.5 -35.5zM746 446h48v-283q0 -163 -195 -163h-401q-74 0 -114 -26.5t-40 -99.5
q0 -143 199 -143h32v-41h-11q-122 0 -193 41.5t-71 144.5q0 166 184 166h294q-7 7 -19.5 31t-22 57.5t-9.5 68.5v52q0 60 -12 93.5t-54 51.5t-130 18q-58 0 -115 -17l1 39q57 16 125 16q117 0 175 -43.5t58 -154.5v-59q0 -39 10 -74.5t24 -57t26 -21.5h59q85 0 118.5 34.5
t33.5 103.5v266zM360 -115q12 -12 12 -29t-12 -28.5t-29 -11.5t-28.5 11.5t-11.5 28.5t11.5 29t28.5 12t29 -12z" />
    <glyph glyph-name="uniFC01" unicode="&#xfc01;" horiz-adv-x="879" arabic-form="isolated" 
d="M198 0q-74 0 -114 -26.5t-40 -99.5q0 -143 199 -143h32v-41h-11q-122 0 -193 41.5t-71 144.5q0 166 184 166h294q-7 7 -19.5 31t-22 57.5t-9.5 68.5v52q0 60 -12 93.5t-54 51.5t-130 18q-58 0 -115 -17l1 39q57 16 125 16q117 0 175 -43.5t58 -154.5v-59q0 -39 10 -74.5
t24 -57t26 -21.5h46v-42h-383zM685 550v34h49q-13 12 -18 30t-5 32q0 41 25.5 61t64.5 20q28 0 57 -11q-3 -9 -6 -15.5t-5 -11.5q-18 9 -46 9q-24 0 -39 -12.5t-15 -38.5q0 -18 7.5 -35.5t21.5 -27.5h78v-34h-169zM581 42h30q85 0 118.5 34.5t33.5 103.5v266h48v-283
q0 -163 -195 -163h-35v42z" />
    <glyph glyph-name="uniFC02" unicode="&#xfc02;" horiz-adv-x="946" arabic-form="isolated" 
d="M821.5 611.5q7.5 -17.5 21.5 -27.5h78v-34h-169v34h49q-13 12 -18 30t-5 32q0 41 25.5 61t64.5 20q28 0 57 -11q-3 -9 -6 -15.5t-5 -11.5q-18 9 -46 9q-24 0 -39 -12.5t-15 -38.5q0 -18 7.5 -35.5zM830 446h48v-283q0 -163 -195 -163h-35q-25 1 -56 11.5t-63 31.5
q-27 -37 -54.5 -56.5t-65.5 -19.5q-24 0 -54 7.5t-89 25.5h-69q-74 0 -114 -26.5t-40 -99.5v-184h-43v186q0 166 184 166h31q-31 83 -31 179q0 62 22.5 114.5t68 84.5t111.5 32q91 0 136.5 -70.5t45.5 -180.5q0 -57 -25 -126q43 -33 111 -33h24q85 0 118.5 34.5t33.5 103.5
v266zM494.5 67q28.5 57 28.5 138t-33 145t-111 64q-74 0 -111.5 -56t-37.5 -144q0 -84 28 -167q44 -18 77.5 -27.5t66.5 -9.5q64 0 92.5 57z" />
    <glyph glyph-name="uniFC03" unicode="&#xfc03;" horiz-adv-x="1028" arabic-form="isolated" 
d="M903.5 611.5q7.5 -17.5 21.5 -27.5h78v-34h-169v34h49q-13 12 -18 30t-5 32q0 41 25.5 61t64.5 20q28 0 57 -11q-3 -9 -6 -15.5t-5 -11.5q-18 9 -46 9q-24 0 -39 -12.5t-15 -38.5q0 -18 7.5 -35.5zM912 446h48v-283q0 -158 -186 -163h-131q16 -24 24 -44t8 -47
q0 -30 -18 -62t-65.5 -56t-128.5 -24h-114q-86 0 -148 14.5t-103 61.5t-41 138q0 45 18 120.5t37 130.5l20 -5l24 -6l-7 -21q-47 -157 -47 -219q0 -76 36 -114t87 -48t122 -10h31h102q57 0 103.5 27t46.5 85q0 48 -41.5 80t-118.5 63l14 45q69 -32 127.5 -49.5t125.5 -17.5
h23q85 0 118.5 34.5t33.5 103.5v266z" />
    <glyph glyph-name="uniFC04" unicode="&#xfc04;" horiz-adv-x="1026" arabic-form="isolated" 
d="M901.5 611.5q7.5 -17.5 21.5 -27.5h78v-34h-169v34h49q-13 12 -18 30t-5 32q0 41 25.5 61t64.5 20q28 0 57 -11q-3 -9 -6 -15.5t-5 -11.5q-18 9 -46 9q-24 0 -39 -12.5t-15 -38.5q0 -18 7.5 -35.5zM910 446h48v-283q0 -159 -184 -163h-131q16 -24 24 -44t8 -47
q0 -30 -18 -62t-65.5 -56t-128.5 -24h-114q-86 0 -148 14.5t-103 61.5t-41 138q0 45 18 120.5t37 130.5l20 -5l24 -6l-7 -21q-47 -157 -47 -219q0 -76 36 -114t87 -48t122 -10h31h102q57 0 103.5 27t46.5 85q0 48 -41.5 80t-118.5 63l14 45q69 -32 127.5 -49.5t125.5 -17.5
h21q85 0 118.5 34.5t33.5 103.5v266zM366 -325q12 -12 12 -29t-12 -28.5t-29 -11.5t-28.5 11.5t-11.5 28.5t11.5 29t28.5 12t29 -12zM479 -325q12 -12 12 -29t-12 -28.5t-29 -11.5t-28.5 11.5t-11.5 28.5t11.5 29t28.5 12t29 -12z" />
    <glyph glyph-name="uniFC05" unicode="&#xfc05;" horiz-adv-x="863" arabic-form="isolated" 
d="M795 446v-283q0 -163 -195 -163h-402q-74 0 -114 -26.5t-40 -99.5q0 -143 199 -143h32v-41h-11q-122 0 -193 41.5t-71 144.5q0 166 184 166h294q-7 7 -19.5 31t-22 57.5t-9.5 68.5v52q0 60 -12 93.5t-54 51.5t-130 18q-58 0 -115 -17l1 39q57 16 125 16q117 0 175 -43.5
t58 -154.5v-59q0 -39 10 -74.5t24 -57t26 -21.5h60q85 0 118.5 34.5t33.5 103.5v266h48zM360 -115q12 -12 12 -29t-12 -28.5t-29 -11.5t-28.5 11.5t-11.5 28.5t11.5 29t28.5 12t29 -12zM673 -115q12 -12 12 -29t-12 -28.5t-29 -11.5t-28.5 11.5t-11.5 28.5t11.5 29t28.5 12
t29 -12z" />
    <glyph glyph-name="uniFC06" unicode="&#xfc06;" horiz-adv-x="862" arabic-form="isolated" 
d="M794 446v-283q0 -163 -195 -163h-401q-74 0 -114 -26.5t-40 -99.5q0 -143 199 -143h32v-41h-11q-122 0 -193 41.5t-71 144.5q0 166 184 166h294q-7 7 -19.5 31t-22 57.5t-9.5 68.5v52q0 60 -12 93.5t-54 51.5t-130 18q-58 0 -115 -17l1 39q57 16 125 16q117 0 175 -43.5
t58 -154.5v-59q0 -39 10 -74.5t24 -57t26 -21.5h59q85 0 118.5 34.5t33.5 103.5v266h48zM672 -115q12 -12 12 -29t-12 -28.5t-29 -11.5t-28.5 11.5t-11.5 28.5t11.5 29t28.5 12t29 -12z" />
    <glyph glyph-name="uniFC07" unicode="&#xfc07;" horiz-adv-x="862" arabic-form="isolated" 
d="M259.5 592.5q-11.5 11.5 -11.5 28.5t11.5 29t28.5 12t29 -12t12 -29t-12 -28.5t-29 -11.5t-28.5 11.5zM794 446v-283q0 -163 -195 -163h-401q-74 0 -114 -26.5t-40 -99.5q0 -143 199 -143h32v-41h-11q-122 0 -193 41.5t-71 144.5q0 166 184 166h294q-7 7 -19.5 31
t-22 57.5t-9.5 68.5v52q0 60 -12 93.5t-54 51.5t-130 18q-58 0 -115 -17l1 39q57 16 125 16q117 0 175 -43.5t58 -154.5v-59q0 -39 10 -74.5t24 -57t26 -21.5h59q85 0 118.5 34.5t33.5 103.5v266h48zM672 -115q12 -12 12 -29t-12 -28.5t-29 -11.5t-28.5 11.5t-11.5 28.5
t11.5 29t28.5 12t29 -12z" />
    <glyph glyph-name="uniFC08" unicode="&#xfc08;" horiz-adv-x="960" arabic-form="isolated" 
d="M892 446v-283q0 -163 -195 -163h-43q-26 0 -59 10.5t-66 32.5q-27 -37 -54.5 -56.5t-65.5 -19.5q-24 0 -54 7.5t-89 25.5h-69q-74 0 -114 -26.5t-40 -99.5v-184h-43v186q0 166 184 166h31q-31 83 -31 179q0 62 22.5 114.5t68 84.5t111.5 32q91 0 136.5 -70.5t45.5 -180.5
q0 -57 -25 -126q43 -33 111 -33h38q85 0 118.5 34.5t33.5 103.5v266h48zM494.5 67q28.5 57 28.5 138t-33 145t-111 64q-74 0 -111.5 -56t-37.5 -144q0 -84 28 -167q44 -18 77.5 -27.5t66.5 -9.5q64 0 92.5 57zM770 -115q12 -12 12 -29t-12 -28.5t-29 -11.5t-28.5 11.5
t-11.5 28.5t11.5 29t28.5 12t29 -12z" />
    <glyph glyph-name="uniFC09" unicode="&#xfc09;" horiz-adv-x="1026" arabic-form="isolated" 
d="M958 446v-283q0 -159 -184 -163h-131q16 -24 24 -44t8 -47q0 -30 -18 -62t-65.5 -56t-128.5 -24h-114q-86 0 -148 14.5t-103 61.5t-41 138q0 45 18 120.5t37 130.5l20 -5l24 -6l-7 -21q-47 -157 -47 -219q0 -76 36 -114t87 -48t122 -10h31h102q57 0 103.5 27t46.5 85
q0 48 -41.5 80t-118.5 63l14 45q69 -32 127.5 -49.5t125.5 -17.5h21q85 0 118.5 34.5t33.5 103.5v266h48zM836 -115q12 -12 12 -29t-12 -28.5t-29 -11.5t-28.5 11.5t-11.5 28.5t11.5 29t28.5 12t29 -12z" />
    <glyph glyph-name="uniFC0A" unicode="&#xfc0a;" horiz-adv-x="1032" arabic-form="isolated" 
d="M964 446v-283q0 -162 -190 -163h-131q16 -24 24 -44t8 -47q0 -30 -18 -62t-65.5 -56t-128.5 -24h-114q-86 0 -148 14.5t-103 61.5t-41 138q0 45 18 120.5t37 130.5l20 -5l24 -6l-7 -21q-47 -157 -47 -219q0 -76 36 -114t87 -48t122 -10h31h102q57 0 103.5 27t46.5 85
q0 48 -41.5 80t-118.5 63l14 45q69 -32 127.5 -49.5t125.5 -17.5h27q85 0 118.5 34.5t33.5 103.5v266h48zM842 -115q12 -12 12 -29t-12 -28.5t-29 -11.5t-28.5 11.5t-11.5 28.5t11.5 29t28.5 12t29 -12zM366 -325q12 -12 12 -29t-12 -28.5t-29 -11.5t-28.5 11.5t-11.5 28.5
t11.5 29t28.5 12t29 -12zM479 -325q12 -12 12 -29t-12 -28.5t-29 -11.5t-28.5 11.5t-11.5 28.5t11.5 29t28.5 12t29 -12z" />
    <glyph glyph-name="uniFC0B" unicode="&#xfc0b;" horiz-adv-x="862" arabic-form="isolated" 
d="M684.5 592.5q-11.5 11.5 -11.5 28.5t11.5 29t28.5 12t29 -12t12 -29t-12 -28.5t-29 -11.5t-28.5 11.5zM855 650q12 -12 12 -29t-12 -28.5t-29 -11.5t-28.5 11.5t-11.5 28.5t11.5 29t28.5 12t29 -12zM746 446h48v-283q0 -163 -195 -163h-401q-74 0 -114 -26.5t-40 -99.5
q0 -143 199 -143h32v-41h-11q-122 0 -193 41.5t-71 144.5q0 166 184 166h294q-7 7 -19.5 31t-22 57.5t-9.5 68.5v52q0 60 -12 93.5t-54 51.5t-130 18q-58 0 -115 -17l1 39q57 16 125 16q117 0 175 -43.5t58 -154.5v-59q0 -39 10 -74.5t24 -57t26 -21.5h59q85 0 118.5 34.5
t33.5 103.5v266zM360 -115q12 -12 12 -29t-12 -28.5t-29 -11.5t-28.5 11.5t-11.5 28.5t11.5 29t28.5 12t29 -12z" />
    <glyph glyph-name="uniFC0C" unicode="&#xfc0c;" horiz-adv-x="863" arabic-form="isolated" 
d="M685.5 592.5q-11.5 11.5 -11.5 28.5t11.5 29t28.5 12t29 -12t12 -29t-12 -28.5t-29 -11.5t-28.5 11.5zM856 650q12 -12 12 -29t-12 -28.5t-29 -11.5t-28.5 11.5t-11.5 28.5t11.5 29t28.5 12t29 -12zM747 446h48v-283q0 -163 -195 -163h-402q-74 0 -114 -26.5t-40 -99.5
q0 -143 199 -143h32v-41h-11q-122 0 -193 41.5t-71 144.5q0 166 184 166h294q-7 7 -19.5 31t-22 57.5t-9.5 68.5v52q0 60 -12 93.5t-54 51.5t-130 18q-58 0 -115 -17l1 39q57 16 125 16q117 0 175 -43.5t58 -154.5v-59q0 -39 10 -74.5t24 -57t26 -21.5h60q85 0 118.5 34.5
t33.5 103.5v266z" />
    <glyph glyph-name="uniFC0D" unicode="&#xfc0d;" horiz-adv-x="865" arabic-form="isolated" 
d="M259.5 592.5q-11.5 11.5 -11.5 28.5t11.5 29t28.5 12t29 -12t12 -29t-12 -28.5t-29 -11.5t-28.5 11.5zM687.5 592.5q-11.5 11.5 -11.5 28.5t11.5 29t28.5 12t29 -12t12 -29t-12 -28.5t-29 -11.5t-28.5 11.5zM858 650q12 -12 12 -29t-12 -28.5t-29 -11.5t-28.5 11.5
t-11.5 28.5t11.5 29t28.5 12t29 -12zM749 446h48v-283q0 -163 -195 -163h-404q-74 0 -114 -26.5t-40 -99.5q0 -143 199 -143h32v-41h-11q-122 0 -193 41.5t-71 144.5q0 166 184 166h294q-7 7 -19.5 31t-22 57.5t-9.5 68.5v52q0 60 -12 93.5t-54 51.5t-130 18q-58 0 -115 -17
l1 39q57 16 125 16q117 0 175 -43.5t58 -154.5v-59q0 -39 10 -74.5t24 -57t26 -21.5h62q85 0 118.5 34.5t33.5 103.5v266z" />
    <glyph glyph-name="uniFC0E" unicode="&#xfc0e;" horiz-adv-x="954" arabic-form="isolated" 
d="M776.5 592.5q-11.5 11.5 -11.5 28.5t11.5 29t28.5 12t29 -12t12 -29t-12 -28.5t-29 -11.5t-28.5 11.5zM947 650q12 -12 12 -29t-12 -28.5t-29 -11.5t-28.5 11.5t-11.5 28.5t11.5 29t28.5 12t29 -12zM838 446h48v-283q0 -163 -195 -163h-37q-26 0 -59 10.5t-66 32.5
q-27 -37 -54.5 -56.5t-65.5 -19.5q-24 0 -54 7.5t-89 25.5h-69q-74 0 -114 -26.5t-40 -99.5v-184h-43v186q0 166 184 166h31q-31 83 -31 179q0 62 22.5 114.5t68 84.5t111.5 32q91 0 136.5 -70.5t45.5 -180.5q0 -57 -25 -126q43 -33 111 -33h32q85 0 118.5 34.5t33.5 103.5
v266zM494.5 67q28.5 57 28.5 138t-33 145t-111 64q-74 0 -111.5 -56t-37.5 -144q0 -84 28 -167q44 -18 77.5 -27.5t66.5 -9.5q64 0 92.5 57z" />
    <glyph glyph-name="uniFC0F" unicode="&#xfc0f;" horiz-adv-x="1030" arabic-form="isolated" 
d="M852.5 592.5q-11.5 11.5 -11.5 28.5t11.5 29t28.5 12t29 -12t12 -29t-12 -28.5t-29 -11.5t-28.5 11.5zM1023 650q12 -12 12 -29t-12 -28.5t-29 -11.5t-28.5 11.5t-11.5 28.5t11.5 29t28.5 12t29 -12zM914 446h48v-283q0 -160 -188 -163h-131q16 -24 24 -44t8 -47
q0 -30 -18 -62t-65.5 -56t-128.5 -24h-114q-86 0 -148 14.5t-103 61.5t-41 138q0 45 18 120.5t37 130.5l20 -5l24 -6l-7 -21q-47 -157 -47 -219q0 -76 36 -114t87 -48t122 -10h31h102q57 0 103.5 27t46.5 85q0 48 -41.5 80t-118.5 63l14 45q69 -32 127.5 -49.5t125.5 -17.5
h25q85 0 118.5 34.5t33.5 103.5v266z" />
    <glyph glyph-name="uniFC10" unicode="&#xfc10;" horiz-adv-x="1027" arabic-form="isolated" 
d="M849.5 592.5q-11.5 11.5 -11.5 28.5t11.5 29t28.5 12t29 -12t12 -29t-12 -28.5t-29 -11.5t-28.5 11.5zM1020 650q12 -12 12 -29t-12 -28.5t-29 -11.5t-28.5 11.5t-11.5 28.5t11.5 29t28.5 12t29 -12zM911 446h48v-283q0 -158 -185 -163h-131q16 -24 24 -44t8 -47
q0 -30 -18 -62t-65.5 -56t-128.5 -24h-114q-86 0 -148 14.5t-103 61.5t-41 138q0 45 18 120.5t37 130.5l20 -5l24 -6l-7 -21q-47 -157 -47 -219q0 -76 36 -114t87 -48t122 -10h31h102q57 0 103.5 27t46.5 85q0 48 -41.5 80t-118.5 63l14 45q69 -32 127.5 -49.5t125.5 -17.5
h22q85 0 118.5 34.5t33.5 103.5v266zM366 -325q12 -12 12 -29t-12 -28.5t-29 -11.5t-28.5 11.5t-11.5 28.5t11.5 29t28.5 12t29 -12zM479 -325q12 -12 12 -29t-12 -28.5t-29 -11.5t-28.5 11.5t-11.5 28.5t11.5 29t28.5 12t29 -12z" />
    <glyph glyph-name="uniFC11" unicode="&#xfc11;" horiz-adv-x="958" arabic-form="isolated" 
d="M811.5 655.5q-11.5 11.5 -11.5 28.5t11.5 29t28.5 12t29 -12t12 -29t-12 -28.5t-29 -11.5t-28.5 11.5zM752.5 545.5q-11.5 11.5 -11.5 28.5t11.5 29t28.5 12t29 -12t12 -29t-12 -28.5t-29 -11.5t-28.5 11.5zM923 603q12 -12 12 -29t-12 -28.5t-29 -11.5t-28.5 11.5
t-11.5 28.5t11.5 29t28.5 12t29 -12zM818 446h48v-283q0 -163 -195 -163h-403q-74 0 -114 -26.5t-40 -99.5q0 -143 199 -143h32v-41h-11q-122 0 -193 41.5t-71 144.5q0 166 184 166h294q-7 7 -19.5 31t-22 57.5t-9.5 68.5v52q0 60 -12 93.5t-54 51.5t-130 18q-58 0 -115 -17
l1 39q57 16 125 16q117 0 175 -43.5t58 -154.5v-59q0 -39 10 -74.5t24 -57t26 -21.5h61q85 0 118.5 34.5t33.5 103.5v266zM430 -115q12 -12 12 -29t-12 -28.5t-29 -11.5t-28.5 11.5t-11.5 28.5t11.5 29t28.5 12t29 -12z" />
    <glyph glyph-name="uniFC12" unicode="&#xfc12;" horiz-adv-x="951" arabic-form="isolated" 
d="M828.5 655.5q-11.5 11.5 -11.5 28.5t11.5 29t28.5 12t29 -12t12 -29t-12 -28.5t-29 -11.5t-28.5 11.5zM769.5 545.5q-11.5 11.5 -11.5 28.5t11.5 29t28.5 12t29 -12t12 -29t-12 -28.5t-29 -11.5t-28.5 11.5zM940 603q12 -12 12 -29t-12 -28.5t-29 -11.5t-28.5 11.5
t-11.5 28.5t11.5 29t28.5 12t29 -12zM835 446h48v-283q0 -163 -195 -163h-35q-26 0 -58.5 10.5t-65.5 32.5q-27 -37 -54.5 -56.5t-65.5 -19.5q-24 0 -54 7.5t-89 25.5h-69q-74 0 -114 -26.5t-40 -99.5v-184h-43v186q0 166 184 166h31q-31 83 -31 179q0 62 22.5 114.5
t68 84.5t111.5 32q91 0 136.5 -70.5t45.5 -180.5q0 -57 -25 -126q43 -33 111 -33h29q85 0 118.5 34.5t33.5 103.5v266zM494.5 67q28.5 57 28.5 138t-33 145t-111 64q-74 0 -111.5 -56t-37.5 -144q0 -84 28 -167q44 -18 77.5 -27.5t66.5 -9.5q64 0 92.5 57z" />
    <glyph glyph-name="uniFC13" unicode="&#xfc13;" horiz-adv-x="1023" arabic-form="isolated" 
d="M900.5 655.5q-11.5 11.5 -11.5 28.5t11.5 29t28.5 12t29 -12t12 -29t-12 -28.5t-29 -11.5t-28.5 11.5zM841.5 545.5q-11.5 11.5 -11.5 28.5t11.5 29t28.5 12t29 -12t12 -29t-12 -28.5t-29 -11.5t-28.5 11.5zM1012 603q12 -12 12 -29t-12 -28.5t-29 -11.5t-28.5 11.5
t-11.5 28.5t11.5 29t28.5 12t29 -12zM907 446h48v-283q0 -157 -181 -163h-131q16 -24 24 -44t8 -47q0 -30 -18 -62t-65.5 -56t-128.5 -24h-114q-86 0 -148 14.5t-103 61.5t-41 138q0 45 18 120.5t37 130.5l20 -5l24 -6l-7 -21q-47 -157 -47 -219q0 -76 36 -114t87 -48
t122 -10h31h102q57 0 103.5 27t46.5 85q0 48 -41.5 80t-118.5 63l14 45q69 -32 127.5 -49.5t125.5 -17.5h18q85 0 118.5 34.5t33.5 103.5v266z" />
    <glyph glyph-name="uniFC14" unicode="&#xfc14;" horiz-adv-x="1024" arabic-form="isolated" 
d="M901.5 655.5q-11.5 11.5 -11.5 28.5t11.5 29t28.5 12t29 -12t12 -29t-12 -28.5t-29 -11.5t-28.5 11.5zM842.5 545.5q-11.5 11.5 -11.5 28.5t11.5 29t28.5 12t29 -12t12 -29t-12 -28.5t-29 -11.5t-28.5 11.5zM1013 603q12 -12 12 -29t-12 -28.5t-29 -11.5t-28.5 11.5
t-11.5 28.5t11.5 29t28.5 12t29 -12zM908 446h48v-283q0 -157 -182 -163h-131q16 -24 24 -44t8 -47q0 -30 -18 -62t-65.5 -56t-128.5 -24h-114q-86 0 -148 14.5t-103 61.5t-41 138q0 45 18 120.5t37 130.5l20 -5l24 -6l-7 -21q-47 -157 -47 -219q0 -76 36 -114t87 -48
t122 -10h31h102q57 0 103.5 27t46.5 85q0 48 -41.5 80t-118.5 63l14 45q69 -32 127.5 -49.5t125.5 -17.5h19q85 0 118.5 34.5t33.5 103.5v266zM366 -325q12 -12 12 -29t-12 -28.5t-29 -11.5t-28.5 11.5t-11.5 28.5t11.5 29t28.5 12t29 -12zM479 -325q12 -12 12 -29
t-12 -28.5t-29 -11.5t-28.5 11.5t-11.5 28.5t11.5 29t28.5 12t29 -12z" />
    <glyph glyph-name="uniFC15" unicode="&#xfc15;" horiz-adv-x="1093" arabic-form="isolated" 
d="M1024 108.5q14 -40.5 31 -58.5v-50h-857q-74 0 -114 -26.5t-40 -99.5q0 -143 199 -143h32v-41h-11q-122 0 -193 41.5t-71 144.5q0 166 184 166h294q-7 7 -19.5 31t-22 57.5t-9.5 68.5v52q0 60 -12 93.5t-54 51.5t-130 18q-58 0 -115 -17l1 39q57 16 125 16
q117 0 175 -43.5t58 -154.5v-59q0 -39 10 -74.5t24 -57t26 -21.5h478q-7 7 -19.5 31t-22 57.5t-9.5 68.5v52q0 60 -12 93t-54 51.5t-130 18.5q-58 0 -115 -17l1 39q57 16 125 16q117 0 175 -43.5t58 -154.5v-59q0 -46 14 -86.5zM812 -115q12 -12 12 -29t-12 -28.5t-29 -11.5
t-28.5 11.5t-11.5 28.5t11.5 29t28.5 12t29 -12z" />
    <glyph glyph-name="uniFC16" unicode="&#xfc16;" horiz-adv-x="1184" arabic-form="isolated" 
d="M1115 108.5q14 -40.5 31 -58.5v-50h-492q-26 0 -59 10.5t-66 32.5q-27 -37 -54.5 -56.5t-65.5 -19.5q-24 0 -54 7.5t-89 25.5h-69q-74 0 -114 -26.5t-40 -99.5v-184h-43v186q0 166 184 166h31q-31 83 -31 179q0 62 22.5 114.5t68 84.5t111.5 32q91 0 136.5 -70.5
t45.5 -180.5q0 -57 -25 -126q43 -33 111 -33h450q-7 7 -19.5 31t-22 57.5t-9.5 68.5v52q0 60 -12 93t-54 51.5t-130 18.5q-58 0 -115 -17l1 39q57 16 125 16q117 0 175 -43.5t58 -154.5v-59q0 -46 14 -86.5zM494.5 67q28.5 57 28.5 138t-33 145t-111 64q-74 0 -111.5 -56
t-37.5 -144q0 -84 28 -167q44 -18 77.5 -27.5t66.5 -9.5q64 0 92.5 57zM903 -115q12 -12 12 -29t-12 -28.5t-29 -11.5t-28.5 11.5t-11.5 28.5t11.5 29t28.5 12t29 -12z" />
    <glyph glyph-name="uniFC17" unicode="&#xfc17;" horiz-adv-x="1089" arabic-form="isolated" 
d="M1020 108.5q14 -40.5 31 -58.5v-50h-853q-74 0 -114 -26.5t-40 -99.5q0 -143 199 -143h32v-41h-11q-122 0 -193 41.5t-71 144.5q0 166 184 166h294q-7 7 -19.5 31t-22 57.5t-9.5 68.5v52q0 60 -12 93.5t-54 51.5t-130 18q-58 0 -115 -17l1 39q57 16 125 16
q117 0 175 -43.5t58 -154.5v-59q0 -39 10 -74.5t24 -57t26 -21.5h474q-7 7 -19.5 31t-22 57.5t-9.5 68.5v52q0 60 -12 93t-54 51.5t-130 18.5q-58 0 -115 -17l1 39q57 16 125 16q117 0 175 -43.5t58 -154.5v-59q0 -46 14 -86.5zM360 -115q12 -12 12 -29t-12 -28.5t-29 -11.5
t-28.5 11.5t-11.5 28.5t11.5 29t28.5 12t29 -12z" />
    <glyph glyph-name="uniFC18" unicode="&#xfc18;" horiz-adv-x="1179" arabic-form="isolated" 
d="M1110 108.5q14 -40.5 31 -58.5v-50h-488q-26 0 -58.5 10.5t-65.5 32.5q-27 -37 -54.5 -56.5t-65.5 -19.5q-24 0 -54 7.5t-89 25.5h-69q-74 0 -114 -26.5t-40 -99.5v-184h-43v186q0 166 184 166h31q-31 83 -31 179q0 62 22.5 114.5t68 84.5t111.5 32q91 0 136.5 -70.5
t45.5 -180.5q0 -57 -25 -126q43 -33 111 -33h445q-7 7 -19.5 31t-22 57.5t-9.5 68.5v52q0 60 -12 93t-54 51.5t-130 18.5q-58 0 -115 -17l1 39q57 16 125 16q117 0 175 -43.5t58 -154.5v-59q0 -46 14 -86.5zM494.5 67q28.5 57 28.5 138t-33 145t-111 64q-74 0 -111.5 -56
t-37.5 -144q0 -84 28 -167q44 -18 77.5 -27.5t66.5 -9.5q64 0 92.5 57z" />
    </font>
</defs>
</svg>
